<svg viewBox="0 0 1357.666748046875 400" xmlns="http://www.w3.org/2000/svg"><g><g><g><g><g><line x1="58.59375" y1="355.87402016872664" x2="53.59375" y2="355.87402016872664" style="visibility: inherit;" fill="rgb(0, 0, 0)" stroke="rgb(204, 204, 204)" stroke-width="1.3333333730697632px"></line><line x1="58.59375" y1="326.0514025870214" x2="53.59375" y2="326.0514025870214" style="visibility: inherit;" fill="rgb(0, 0, 0)" stroke="rgb(204, 204, 204)" stroke-width="1.3333333730697632px"></line><line x1="58.59375" y1="296.22878500531624" x2="53.59375" y2="296.22878500531624" style="visibility: inherit;" fill="rgb(0, 0, 0)" stroke="rgb(204, 204, 204)" stroke-width="1.3333333730697632px"></line><line x1="58.59375" y1="266.406167423611" x2="53.59375" y2="266.406167423611" style="visibility: inherit;" fill="rgb(0, 0, 0)" stroke="rgb(204, 204, 204)" stroke-width="1.3333333730697632px"></line><line x1="58.59375" y1="236.5835498419058" x2="53.59375" y2="236.5835498419058" style="visibility: inherit;" fill="rgb(0, 0, 0)" stroke="rgb(204, 204, 204)" stroke-width="1.3333333730697632px"></line><line x1="58.59375" y1="206.76093226020063" x2="53.59375" y2="206.76093226020063" style="visibility: inherit;" fill="rgb(0, 0, 0)" stroke="rgb(204, 204, 204)" stroke-width="1.3333333730697632px"></line><line x1="58.59375" y1="176.9383146784954" x2="53.59375" y2="176.9383146784954" style="visibility: inherit;" fill="rgb(0, 0, 0)" stroke="rgb(204, 204, 204)" stroke-width="1.3333333730697632px"></line><line x1="58.59375" y1="147.11569709679023" x2="53.59375" y2="147.11569709679023" style="visibility: inherit;" fill="rgb(0, 0, 0)" stroke="rgb(204, 204, 204)" stroke-width="1.3333333730697632px"></line><line x1="58.59375" y1="117.29307951508503" x2="53.59375" y2="117.29307951508503" style="visibility: inherit;" fill="rgb(0, 0, 0)" stroke="rgb(204, 204, 204)" stroke-width="1.3333333730697632px"></line><line x1="58.59375" y1="87.4704619333798" x2="53.59375" y2="87.4704619333798" style="visibility: inherit;" fill="rgb(0, 0, 0)" stroke="rgb(204, 204, 204)" stroke-width="1.3333333730697632px"></line><line x1="58.59375" y1="57.64784435167468" x2="53.59375" y2="57.64784435167468" style="visibility: inherit;" fill="rgb(0, 0, 0)" stroke="rgb(204, 204, 204)" stroke-width="1.3333333730697632px"></line><line x1="58.59375" y1="27.82522676996939" x2="53.59375" y2="27.82522676996939" style="visibility: inherit;" fill="rgb(0, 0, 0)" stroke="rgb(204, 204, 204)" stroke-width="1.3333333730697632px"></line></g><g transform="translate(48.59375, 0)"><text x="0" y="355.87402016872664" dx="0em" dy="0.3em" style="text-anchor: end; visibility: inherit; font-family: &quot;Helvetica Neue&quot;, sans-serif; font-size: 16px; font-weight: 200;" fill="rgb(50, 49, 63)" stroke="none" stroke-width="1.3333333730697632px">-0.08</text><text x="0" y="326.0514025870214" dx="0em" dy="0.3em" style="text-anchor: end; visibility: inherit; font-family: &quot;Helvetica Neue&quot;, sans-serif; font-size: 16px; font-weight: 200;" fill="rgb(50, 49, 63)" stroke="none" stroke-width="1.3333333730697632px">-0.06</text><text x="0" y="296.22878500531624" dx="0em" dy="0.3em" style="text-anchor: end; visibility: inherit; font-family: &quot;Helvetica Neue&quot;, sans-serif; font-size: 16px; font-weight: 200;" fill="rgb(50, 49, 63)" stroke="none" stroke-width="1.3333333730697632px">-0.04</text><text x="0" y="266.406167423611" dx="0em" dy="0.3em" style="text-anchor: end; visibility: inherit; font-family: &quot;Helvetica Neue&quot;, sans-serif; font-size: 16px; font-weight: 200;" fill="rgb(50, 49, 63)" stroke="none" stroke-width="1.3333333730697632px">-0.02</text><text x="0" y="236.5835498419058" dx="0em" dy="0.3em" style="text-anchor: end; visibility: inherit; font-family: &quot;Helvetica Neue&quot;, sans-serif; font-size: 16px; font-weight: 200;" fill="rgb(50, 49, 63)" stroke="none" stroke-width="1.3333333730697632px">0</text><text x="0" y="206.76093226020063" dx="0em" dy="0.3em" style="text-anchor: end; visibility: inherit; font-family: &quot;Helvetica Neue&quot;, sans-serif; font-size: 16px; font-weight: 200;" fill="rgb(50, 49, 63)" stroke="none" stroke-width="1.3333333730697632px">0.02</text><text x="0" y="176.9383146784954" dx="0em" dy="0.3em" style="text-anchor: end; visibility: inherit; font-family: &quot;Helvetica Neue&quot;, sans-serif; font-size: 16px; font-weight: 200;" fill="rgb(50, 49, 63)" stroke="none" stroke-width="1.3333333730697632px">0.04</text><text x="0" y="147.11569709679023" dx="0em" dy="0.3em" style="text-anchor: end; visibility: inherit; font-family: &quot;Helvetica Neue&quot;, sans-serif; font-size: 16px; font-weight: 200;" fill="rgb(50, 49, 63)" stroke="none" stroke-width="1.3333333730697632px">0.06</text><text x="0" y="117.29307951508503" dx="0em" dy="0.3em" style="text-anchor: end; visibility: inherit; font-family: &quot;Helvetica Neue&quot;, sans-serif; font-size: 16px; font-weight: 200;" fill="rgb(50, 49, 63)" stroke="none" stroke-width="1.3333333730697632px">0.08</text><text x="0" y="87.4704619333798" dx="0em" dy="0.3em" style="text-anchor: end; visibility: inherit; font-family: &quot;Helvetica Neue&quot;, sans-serif; font-size: 16px; font-weight: 200;" fill="rgb(50, 49, 63)" stroke="none" stroke-width="1.3333333730697632px">0.1</text><text x="0" y="57.64784435167468" dx="0em" dy="0.3em" style="text-anchor: end; visibility: inherit; font-family: &quot;Helvetica Neue&quot;, sans-serif; font-size: 16px; font-weight: 200;" fill="rgb(50, 49, 63)" stroke="none" stroke-width="1.3333333730697632px">0.12</text><text x="0" y="27.82522676996939" dx="0em" dy="0.3em" style="text-anchor: end; visibility: inherit; font-family: &quot;Helvetica Neue&quot;, sans-serif; font-size: 16px; font-weight: 200;" fill="rgb(50, 49, 63)" stroke="none" stroke-width="1.3333333730697632px">0.14</text></g><line x1="58.59375" y1="0" x2="58.59375" y2="365.65625" fill="rgb(0, 0, 0)" stroke="rgb(204, 204, 204)" stroke-width="1.3333333730697632px"></line></g></g><g transform="translate(58, 0)" clip-path="url(#clip_0)"><clipPath id="clip_0"><rect width="1299" height="365"></rect></clipPath><g><g><g><line x1="54.833948345324835" y1="0" x2="54.833948345324835" y2="365.65625" fill="rgb(0, 0, 0)" stroke="rgb(60, 60, 60)" stroke-width="1.3333333730697632px" opacity="0.25"></line><line x1="240.8529175848507" y1="0" x2="240.8529175848507" y2="365.65625" fill="rgb(0, 0, 0)" stroke="rgb(60, 60, 60)" stroke-width="1.3333333730697632px" opacity="0.25"></line><line x1="426.8718868243765" y1="0" x2="426.8718868243765" y2="365.65625" fill="rgb(0, 0, 0)" stroke="rgb(60, 60, 60)" stroke-width="1.3333333730697632px" opacity="0.25"></line><line x1="612.8908560639023" y1="0" x2="612.8908560639023" y2="365.65625" fill="rgb(0, 0, 0)" stroke="rgb(60, 60, 60)" stroke-width="1.3333333730697632px" opacity="0.25"></line><line x1="798.9098253034282" y1="0" x2="798.9098253034282" y2="365.65625" fill="rgb(0, 0, 0)" stroke="rgb(60, 60, 60)" stroke-width="1.3333333730697632px" opacity="0.25"></line><line x1="984.928794542954" y1="0" x2="984.928794542954" y2="365.65625" fill="rgb(0, 0, 0)" stroke="rgb(60, 60, 60)" stroke-width="1.3333333730697632px" opacity="0.25"></line><line x1="1170.94776378248" y1="0" x2="1170.94776378248" y2="365.65625" fill="rgb(0, 0, 0)" stroke="rgb(60, 60, 60)" stroke-width="1.3333333730697632px" opacity="0.25"></line></g><g><line x1="0" y1="355.87402016872664" x2="1299.0728759765625" y2="355.87402016872664" fill="rgb(0, 0, 0)" stroke="rgb(60, 60, 60)" stroke-width="1.3333333730697632px" opacity="0.25"></line><line x1="0" y1="326.0514025870214" x2="1299.0728759765625" y2="326.0514025870214" fill="rgb(0, 0, 0)" stroke="rgb(60, 60, 60)" stroke-width="1.3333333730697632px" opacity="0.25"></line><line x1="0" y1="296.22878500531624" x2="1299.0728759765625" y2="296.22878500531624" fill="rgb(0, 0, 0)" stroke="rgb(60, 60, 60)" stroke-width="1.3333333730697632px" opacity="0.25"></line><line x1="0" y1="266.406167423611" x2="1299.0728759765625" y2="266.406167423611" fill="rgb(0, 0, 0)" stroke="rgb(60, 60, 60)" stroke-width="1.3333333730697632px" opacity="0.25"></line><line x1="0" y1="236.5835498419058" x2="1299.0728759765625" y2="236.5835498419058" fill="rgb(0, 0, 0)" stroke="rgb(60, 60, 60)" stroke-width="1.3333333730697632px" opacity="0.25"></line><line x1="0" y1="206.76093226020063" x2="1299.0728759765625" y2="206.76093226020063" fill="rgb(0, 0, 0)" stroke="rgb(60, 60, 60)" stroke-width="1.3333333730697632px" opacity="0.25"></line><line x1="0" y1="176.9383146784954" x2="1299.0728759765625" y2="176.9383146784954" fill="rgb(0, 0, 0)" stroke="rgb(60, 60, 60)" stroke-width="1.3333333730697632px" opacity="0.25"></line><line x1="0" y1="147.11569709679023" x2="1299.0728759765625" y2="147.11569709679023" fill="rgb(0, 0, 0)" stroke="rgb(60, 60, 60)" stroke-width="1.3333333730697632px" opacity="0.25"></line><line x1="0" y1="117.29307951508503" x2="1299.0728759765625" y2="117.29307951508503" fill="rgb(0, 0, 0)" stroke="rgb(60, 60, 60)" stroke-width="1.3333333730697632px" opacity="0.25"></line><line x1="0" y1="87.4704619333798" x2="1299.0728759765625" y2="87.4704619333798" fill="rgb(0, 0, 0)" stroke="rgb(60, 60, 60)" stroke-width="1.3333333730697632px" opacity="0.25"></line><line x1="0" y1="57.64784435167468" x2="1299.0728759765625" y2="57.64784435167468" fill="rgb(0, 0, 0)" stroke="rgb(60, 60, 60)" stroke-width="1.3333333730697632px" opacity="0.25"></line><line x1="0" y1="27.82522676996939" x2="1299.0728759765625" y2="27.82522676996939" fill="rgb(0, 0, 0)" stroke="rgb(60, 60, 60)" stroke-width="1.3333333730697632px" opacity="0.25"></line></g></g></g><g><g><line x1="0" y1="236.5835498419058" x2="1299.0728759765625" y2="236.5835498419058" fill="rgb(0, 0, 0)" stroke="rgb(153, 153, 153)" stroke-width="2px"></line></g></g><g><g><line x1="-27353166.504200812" y1="0" x2="-27353166.504200812" y2="365.65625" fill="rgb(0, 0, 0)" stroke="rgb(153, 153, 153)" stroke-width="2px"></line></g></g><g><g><g><g><g><path stroke="rgb(255, 112, 67)" stroke-width="2.6666667461395264px" d="M-1.08933052866239,333.1627936541107L1.0217091885480958,333.6040136196629L3.14912890943884,333.3496633938166L5.609591481182868,331.17680123411463L7.901224614363394,331.37694898694417L10.309360739019489,325.94530843562904L12.985915346696766,319.87046367023976L15.717018294705671,314.79391329354036L18.414655052230096,309.08526969326124L21.24047265874346,303.11858064735355L24.3234270422732,298.1093989721738L27.433199160534976,294.1686801009348L30.664555343969138,290.0227211308116L34.05852310968018,286.5841943242336L37.20927107311056,282.9610728185466L40.43032731732201,280.07687246830335L43.85691729856451,278.2048301784597L47.29794097390171,276.34771387913077L50.70009012946357,274.5305927238851L54.06014388124567,273.0237940214677L57.241584974600556,271.48585589266105L60.68756915578414,270.14724667735953L63.94860225440347,268.51396668642485L67.05961449912684,267.30544806081383L70.19927022031736,266.6634271518624L73.46269745196672,265.9910580914514L76.48593630157484,265.5686974647832L79.0226322027498,265.5312729216616L82.32293597265303,264.4565057435779L85.36748088383054,263.1094715675043L88.30106892465238,262.34681858479473L91.22191122128561,261.44153469443484L94.37901483283167,260.7789351016701L97.5010331999017,260.4843968451648L100.45270641828851,259.8816625726693L103.07819192931808,259.1558770021457L106.26428349690397,258.51273456507107L109.2747421543662,258.41676826399896L112.30986554923129,258.3526034540387L115.57634142509873,258.0190295360952L118.65526539762827,257.1866242710649L121.67691964120215,256.56482405345895L124.71245641155446,255.6547240797832L127.738399425808,255.70039065275398L131.09867708931233,255.60524509013845L134.15977424395643,254.97803127879814L137.6152832853242,254.20527994886223L140.8408522119376,253.3181252168408L144.1344214061952,252.0367828393839L147.1538193085681,251.26316430867126L150.44690623142398,250.0438446208895L153.57615866952,248.97863218784448L156.87093354228196,248.07012961723217L160.41316531606833,246.91263927125001L163.14835034701332,246.43934543808513L165.8254216740496,245.82020776578352L168.74915759909322,245.31959496522296L171.50552812375716,245.00387751485553L174.46924090320863,244.45636517589094L177.6943447823989,243.89359283965035L180.81448573579794,243.41674089092405L183.31206598149672,242.83466864522939L185.9039130622555,243.04860621827282L189.06435812565638,242.95514831294057L191.92706949440225,242.82073324089615L195.0915277448247,242.25497203069978L197.89610818568323,241.76206024171398L200.93881013114697,241.23338354020788L203.8753262483365,240.28532078950218L206.17247105467968,240.26628793923902L209.59478948922114,240.13438424658293L212.40243579827634,240.6068351551622L215.49221087734486,239.88941614012475L218.86077327457184,239.27022722545226L222.0547706483504,238.85441193860234L224.82517871560046,238.8238712396631L227.7102812565696,238.6396576576342L230.44591411095908,238.42294695581938L233.31079570101275,238.63692859165621L236.60036893222744,238.15653470901657L239.63628463010963,238.1726040904441L242.882332867318,238.29549349365732L245.77995724075353,237.4910698933292L247.85007278473134,237.47126525158478L250.94837373322335,237.62974679149522L253.91458398957664,237.60981908460465L257.1915148204745,237.09247910885938L260.1289093605743,235.70045768527592L262.62363042581995,235.18562637902033L265.56212730055233,235.17506991423883L268.26427674047864,235.59608102238056L271.3099584342459,235.96553613880832L274.5516834528173,235.46994545598497L277.79335679945285,234.58154953761505L280.970371330299,234.1197964951429L284.28869138185263,234.01619228722757L287.34470746279993,234.00656621583025L290.26499859211685,234.1727502185893L293.46593722928463,233.33132041416576L296.2677446095832,232.81987220311L299.5941254831372,232.55238568172646L302.61786382812573,232.3105237327499L305.49266642987214,231.8905242904323L308.76077858370974,231.30712799932152L311.58196293997077,230.94672609668658L315.1314115608045,230.6211805333602L318.0833948108067,230.3100166732913L320.92283658441903,229.49737046431866L323.87499207420757,228.97014417757902L326.26593866818763,228.86133779053975L329.39581116951445,229.00755370945097L332.3549423706495,228.08843007062026L334.7739640498018,227.8139308330806L337.51073368678107,226.56994744945624L340.47079498276224,225.67514398939366L343.42312271233715,225.0569363289429L346.54639842984744,224.41344944618928L349.0199167773955,224.51986263187715L351.35688342233885,224.72122823389714L353.6852897499014,223.91217560240045L356.35299123256124,222.597738256721L358.17490924443325,222.89041558563898L361.0945975344981,222.59778082684883L364.3704088067848,222.0795717420957L367.1593326510656,221.20780051754687L370.0055262243021,219.76334000227675L372.7300496124731,219.23453549261671L375.4076893308043,218.99695202567523L378.651515674769,218.73292192237074L381.3206295236767,218.16780800470622L384.0640476164084,217.6549660550966L386.67623621593305,217.05593629304533L389.4065468609249,216.72069692605257L392.66497913877055,216.42551069804443L395.68125950101086,215.8562141365945L397.7484641925996,215.75300256450666L400.62002868636296,216.03578431522476L403.4675485059543,216.00980315114057L405.5655152233821,215.75492541448494L408.6548252550275,215.02748622152177L411.74558210087815,214.6919264581678L414.8248161050231,214.40713113998564L417.7005488016157,213.8077886393258L419.76337860263163,213.63786219917574L422.04720927349126,213.54567430164445L425.3238128487951,213.01056174663643L428.32574563683386,212.17812482366952L431.18981769989176,212.08690678571662L434.09538232747724,211.77763218110778L437.02349314309373,211.29931443637957L439.90273953132754,210.32740773572425L443.08299217015673,210.35377101276472L446.0726098134727,210.37534938353565L448.8129792619863,209.0967927935755L451.5577236010727,208.17408853229725L454.52419221710556,207.33835857668927L457.5702872863601,207.6173201496883L460.5497944542183,207.71151339160738L463.426836173187,207.3383787018624L465.91907698550943,205.40773896990078L468.7192825357951,204.77358937659884L471.28872122035204,203.7485762095197L474.34654581905573,203.91007762363992L477.83188679141637,204.20387013564192L481.1611440694022,204.47441186599914L484.01713808648105,203.77746297931012L486.71207067936007,202.69607570787818L489.83767163398585,201.33777695527527L493.3044796053371,201.30587252371612L496.5510962338403,201.3771822614719L499.3907791431535,200.46149401734317L502.44875875766496,199.88192786171933L505.42582012055726,199.71059218509907L508.5110652932452,200.04787497053627L511.64405533470466,200.60462979499923L514.4631900375083,199.49184262758047L517.1884196088033,198.93085611488706L520.1092102335006,198.52324023656746L523.4432385535679,198.58117240878082L526.6342734030214,197.96871565337008L529.5553912833128,198.54317487351398L532.5357768740813,197.450837473175L535.7936579846107,196.64922546894348L538.699842675427,196.60676162346752L541.7162263815391,196.40064690349251L544.699643392547,196.73020358883636L547.5834885830759,195.92318102550132L550.2871881810793,195.03488017758096L552.8470847814733,194.25088106245593L556.0042400649553,193.6913688819661L558.9773399127619,193.06283705344057L561.9617559145306,192.3043049915145L564.7370555917125,191.47971152206634L567.3921146740554,191.1529831428109L570.5759154524831,190.56300224112502L573.7233219640585,190.34044114399714L576.8200383065163,190.00754024984417L579.713993972503,189.24770276124025L582.3504339339433,188.33603682325221L585.2166245463732,188.18043373820097L588.1739816777089,187.5775664299047L591.2588823708243,186.69719188971064L593.9052088960001,187.44438073792494L596.3610382174918,186.12587140605197L599.4564972095093,185.34653437329652L602.4832153028013,184.1050253621683L606.1359216755417,183.02129543498086L609.1340307403239,182.2825431112199L612.3553625681934,183.18895724127424L614.9095235837025,181.84847811524816L618.0757214559669,181.45754562538806L620.6821916945854,181.38085797519483L623.9272064930757,180.82415172854857L626.7958084625142,180.498883085384L629.8542531244487,180.85210232885427L632.7892707554971,180.69883670002653L635.9221574530848,180.5370118867285L639.0361666700903,180.44849487765254L642.3260327089419,180.39166145748607L644.8789535979894,180.96607602021768L647.4747794178124,180.30613157316674L650.3913846157018,179.2631392812735L653.1394876306218,177.97105734443096L656.2429041007679,177.0039185528442L659.2346575174344,177.9718424748269L662.0419421229384,177.4628233832582L664.873236954657,177.10109084482764L667.6011706905974,176.4843630443606L670.2935024627028,175.23314228863276L673.0548679411704,174.34728049330218L675.9006136909625,174.28172219895234L678.5213453838893,173.7405533373745L681.6450000289295,172.73034487531012L684.1029823477503,171.26682871841462L686.9338810279605,170.7431373200071L689.7337420986735,171.03756107131517L692.549035854242,171.19831984400412L694.8007954768864,170.51868618263896L697.2356976643385,169.76537271956778L699.8727576890097,168.07877841840525L702.3140844204921,168.36879763454002L705.02339903553,168.19988798653938L707.1397781861168,166.56230351677513L709.8462508446801,165.98822092215553L712.2987731622742,165.56232444645514L715.1713366467983,165.7000002922207L717.7770145823996,165.02463382061643L720.5116312220497,164.84450333322306L723.6343729962223,164.67558837126597L726.6936444091313,163.81053238668878L729.5346018928633,162.77674859632893L732.4359294217049,162.22692068041852L735.1238863032376,162.5093604121303L737.8543519640369,161.90052468621562L740.476530471169,162.0293462729033L743.3672480291725,162.56983010233628L746.3553671863475,162.04489343284493L749.1375220070254,161.0613642104336L752.8401779178023,162.31294958420196L755.2974885014564,161.24942188443057L758.499891176808,159.39787497876566L761.6703950437308,158.2910259860126L764.9358891528161,157.74128589712046L768.0267148945813,157.00141082587967L770.9867761905624,156.87072896149414L773.911132178837,156.97851523299312L776.513485886562,154.62263333067224L779.1436390958011,152.91613845412516L782.2830192333336,152.1436072261954L785.3016076087107,151.75661390690166L788.5745424765656,152.00319803832744L791.1558140344436,151.42707283250627L793.6693436843567,150.00984313498944L796.3242994228278,148.0908784678967L798.9323198195232,147.27896847782537L801.8197992695438,146.3509828230071L804.7325290722407,145.2833296409523L807.5342503326461,145.85900749907964L810.1299728085974,145.91575345860417L813.0664028058937,145.56825237841448L815.9408264801102,144.26374207283843L818.6265614683991,143.08977447532797L821.6286664962242,143.35540295471077L824.4185893312657,142.40786348237296L827.5206451070998,141.55614658923957L829.9112299975286,140.01772540210604L832.4281183232753,140.43862221458255L834.9867920211864,139.51869447681096L837.5951052255185,139.18695551981747L840.2674916303665,137.92113492476628L843.0720376232679,136.74767090544051L846.1279503603432,137.35977421865178L848.8155972102603,136.6085225630282L851.5001781919807,134.9140814461797L853.9814990018497,131.38584961751263L856.7078998036917,131.78921895997703L859.3285453767253,130.67469008459796L862.1643873388033,128.7107415337939L864.7606093101349,127.78622989526002L867.5504288013046,127.3705423700361L869.9852276448851,125.43035262260753L872.2604807743854,125.14952506219012L874.4486494679157,123.45911566686866L876.6654616379133,121.80296971800914L878.897293117279,119.97770638763461L881.1896841055194,118.7371475153478L883.6353857275747,117.77777491369778L886.1991232752039,114.92318721457801L888.6210385827667,113.93274973826786L891.1813485586478,115.24499488699288L893.8767806469072,115.37017496647829L896.4436357346691,113.53469050696671L898.921666764619,110.64413595168821L901.5666153715042,110.02561275695555L904.1355201127234,107.30913045948466L906.6974319186176,106.99353083671554L909.2066727978511,105.64481621269215L911.7351873091752,104.79538357432034L914.3578136397516,103.93727461552805L916.7369618083679,101.51432052604167L919.2047962429671,99.61934928285643L921.3562606380298,98.8717301065696L924.0015709484663,99.41537566785911L926.4624813436548,98.8401472498237L929.0568086773368,97.61112714615814L931.4687513012708,95.01848430458256L934.1135276683697,92.51046521646094L936.7752696544223,90.81485961034343L939.0152136277244,88.41197322227009L941.5723888394944,87.45478461641869L943.7980885824666,86.42413662161454L946.3392110461504,85.5039777265959L949.3684610643014,82.83372724262921L951.978066067031,81.43130126382272L953.9687618455309,80.95285317543835L956.4056964624618,80.33715079350588L958.9400671265213,79.1091093823506L961.2616355345664,78.76498802639702L963.6807088856547,77.46046022514497L966.0748591396606,77.52133211458641L968.3737952397815,73.40768432729931L970.6386967581232,72.07456404328423L972.9931629653579,71.88654972048084L975.4969438433649,73.31539569600835L977.7678909782067,70.98990161370904L980.2110606754028,70.64079236601151L982.7348385926028,72.336681766438L984.9996884390087,72.17825583604667L987.0881819681882,70.79126809458819L989.1416247008489,70.66505727533485L991.1453934791313,67.07691148508366L993.445569705714,68.48210601908897L995.9352785931773,67.91667275195249L998.2511286403162,66.54632991415838L1000.6706670388274,64.66918713607441L1002.9167599725016,64.86126147651999L1005.2067051557761,65.68344409056351L1007.3037417783578,66.29853382632308L1009.5653879647377,65.87105870491581L1011.6612016848364,65.55496301222371L1013.9573130524616,65.93318626100705L1016.081132961818,68.65995000752355L1018.213513188555,66.19507287768585L1020.5230248115569,65.3916927776441L1022.8614382707054,65.29421849778555L1025.2360909808986,65.00207758301866L1027.677124904744,61.794661372637336L1029.915432600076,59.86033833654295L1032.3279263913264,60.89149433119553L1034.6966368288909,60.99503462024728L1036.6102553030066,60.22240276831906L1038.7222078910845,58.708385373523924L1041.0087943985257,55.74247795987549L1043.1130995400904,55.010032651336985L1045.4073679420019,54.72464914004536L1047.4508552150126,51.674328915690694L1049.6459996198894,50.22021539239256L1052.0493474784855,50.774582681413676L1054.3095640746387,51.57348350414884L1056.6300129240728,50.74399232595215L1059.0309838736175,49.62408366958357L1061.2987962443483,48.99559303510887L1063.8548174495497,47.9541861883078L1065.9429320511993,45.40343612270851L1068.444559931877,43.386719715088645L1071.118634286631,44.4279941944385L1073.5262709159067,41.474571450977464" style="fill: none;" fill="none"></path></g></g></g></g><g opacity="0.20000000298023224"><g><g><g><path stroke="rgb(255, 112, 67)" stroke-width="2.6666667461395264px" d="M-1.08933052866239,336.7324812203456L1.0217091885480958,333.91701581744786L3.14912890943884,333.1692269088146L5.609591481182868,329.6353691037277L7.901224614363394,331.5189341449344L10.309360739019489,322.09209334367046L12.985915346696766,315.56095840932255L15.717018294705671,311.192599778446L18.414655052230096,305.03554816485814L21.24047265874346,298.88580123871816L24.3234270422732,294.5558769290975L27.433199160534976,291.3731273974063L30.664555343969138,287.0815707502968L34.05852310968018,284.14489752982354L37.20927107311056,280.39082422904215L40.43032731732201,278.0308158095838L43.85691729856451,276.8768001779723L47.29794097390171,275.03027240182905L50.70009012946357,273.2415238701638L54.06014388124567,271.95486844624855L57.241584974600556,270.39483995513154L60.68756915578414,269.19763501180375L63.94860225440347,267.35531506892414L67.05961449912684,266.4481228819616L70.19927022031736,266.20797642158055L73.46269745196672,265.51407833064707L76.48593630157484,265.2690741142408L79.0226322027498,265.50472388679754L82.32293597265303,263.6940640702365L85.36748088383054,262.1538832203751L88.30106892465238,261.80579125518034L91.22191122128561,260.7993247551197L94.37901483283167,260.30888581791385L97.5010331999017,260.27545090251573L100.45270641828851,259.454081849446L103.07819192931808,258.6410034777572L106.26428349690397,258.0564882208216L109.2747421543662,258.3486896059735L112.30986554923129,258.30708482816937L115.57634142509873,257.7823916284943L118.65526539762827,256.5961145531374L121.67691964120215,256.12371791618295L124.71245641155446,255.00909760273117L127.738399425808,255.73278659768192L131.09867708931233,255.53774866537702L134.15977424395643,254.53308472887292L137.6152832853242,253.65708883446325L140.8408522119376,252.68877613344097L144.1344214061952,251.12779636648713L147.1538193085681,250.71435800055892L150.44690623142398,249.17885715006997L153.57615866952,248.22296866696635L156.87093354228196,247.4256363406439L160.41316531606833,246.0915136411943L163.14835034701332,246.10358998378868L165.8254216740496,245.3809904426978L168.74915759909322,244.96445938875695L171.50552812375716,244.77990701587692L174.46924090320863,244.0679589867109L177.6943447823989,243.49436118231733L180.81448573579794,243.07846130336605L183.31206598149672,242.42174559913832L185.9039130622555,243.20037389829514L189.06435812565638,242.88884911514077L191.92706949440225,242.72537895901846L195.0915277448247,241.8536200610733L197.89610818568323,241.41238777602325L200.93881013114697,240.85833938443858L203.8753262483365,239.61276345353144L206.17247105467968,240.25278600272753L209.59478948922114,240.0408115415363L212.40243579827634,240.94199263731673L215.49221087734486,239.38047786449994L218.86077327457184,238.830973550941L222.0547706483504,238.55943186331564L224.82517871560046,238.80220561562928L227.7102812565696,238.50897622764785L230.44591411095908,238.26921201350635L233.31079570101275,238.7887275298994L236.60036893222744,237.81574246748585L239.63628463010963,238.18400373709784L242.882332867318,238.3826714463641L245.77995724075353,236.92041041617338L247.85007278473134,237.45721580487717L250.94837373322335,237.74217386681633L253.91458398957664,237.59568233527202L257.1915148204745,236.72547724572385L260.1289093605743,234.712955307862L262.62363042581995,234.8204041703091L265.56212730055233,235.1675811400776L268.26427674047864,235.89474702217342L271.3099584342459,236.22762822994932L274.5516834528173,235.11837257842657L277.79335679945285,233.95131995449788L280.970371330299,233.79222809749177L284.28869138185263,233.9426952850312L287.34470746279993,233.9997374643262L290.26499859211685,234.29064143422178L293.46593722928463,232.73440867256613L296.2677446095832,232.45704996791662L299.5941254831372,232.36263028621505L302.61786382812573,232.13894645270668L305.49266642987214,231.59257596810443L308.76077858370974,230.8932656731489L311.58196293997077,230.69105637088572L315.1314115608045,230.39023795424828L318.0833948108067,230.0892764990544L320.92283658441903,228.92087785453467L323.87499207420757,228.5961289485244L326.26593866818763,228.78415035358023L329.39581116951445,229.11127953226836L332.3549423706495,227.43640219008225L334.7739640498018,227.61920060474046L337.51073368678107,225.6874635106458L340.47079498276224,225.0403688852467L343.42312271233715,224.61837875785386L346.54639842984744,223.95695875158628L349.0199167773955,224.595352327707L351.35688342233885,224.86407733618483L353.6852897499014,223.33823228262077L356.35299123256124,221.6652741567945L358.17490924443325,223.09804138307652L361.0945975344981,222.39018522873275L364.3704088067848,221.71195333154435L367.1593326510656,220.58936452064472L370.0055262243021,218.73863724358085L372.7300496124731,218.85940066952452L375.4076893308043,218.82840990810135L378.651515674769,218.54561851575298L381.3206295236767,217.7669152255083L384.0640476164084,217.29115509939064L386.67623621593305,216.63098355586365L389.4065468609249,216.48287754604917L392.66497913877055,216.2161050833036L395.68125950101086,215.4523541827454L397.7484641925996,215.67978409883753L400.62002868636296,216.23639017257176L403.4675485059543,215.99137206892703L405.5655152233821,215.57411471241298L408.6548252550275,214.51143961454792L411.74558210087815,214.45387978843806L414.8248161050231,214.20509685443758L417.7005488016157,213.38261404484064L419.76337860263163,213.51731609206072L422.04720927349126,213.48027604954956L425.3238128487951,212.63095198539145L428.32574563683386,211.5875926475477L431.18981769989176,212.0221965536646L434.09538232747724,211.5582322479237L437.02349314309373,210.9599950106322L439.90273953132754,209.6379354609004L443.08299217015673,210.37247316656266L446.0726098134727,210.39065711664668L448.8129792619863,208.18978256309092L451.5577236010727,207.51952055207423L454.52419221710556,206.74549031758278L457.5702872863601,207.8152159664312L460.5497944542183,207.7783342384389L463.426836173187,207.07367631512028L465.91907698550943,204.03813984380835L468.7192825357951,204.323722571094L471.28872122035204,203.02143011663455L474.34654581905573,204.0246470028876L477.83188679141637,204.41228704586553L481.1611440694022,204.66633463197908L484.01713808648105,203.2830462477273L486.71207067936007,201.92893772899907L489.83767163398585,200.37419749830056L493.3044796053371,201.2832394654305L496.5510962338403,201.4277695113328L499.3907791431535,199.8119032116792L502.44875875766496,199.4707826402084L505.42582012055726,199.58904636322316L508.5110652932452,200.2871439550772L511.64405533470466,200.99959261919093L514.4631900375083,198.70242950881328L517.1884196088033,198.53289132383102L520.1092102335006,198.2340768357083L523.4432385535679,198.6222695907783L526.6342734030214,197.5342377841471L529.5553912833128,198.95069722626562L532.5357768740813,196.67593145413107L535.7936579846107,196.08056054286473L538.699842675427,196.5766376988991L541.7162263815391,196.2544287688094L544.699643392547,196.96399166476405L547.5834885830759,195.35067783954563L550.2871881810793,194.4047180376033L552.8470847814733,193.6947107500168L556.0042400649553,193.29444998469552L558.9773399127619,192.61695549987115L561.9617559145306,191.76620105014814L564.7370555917125,190.8947435052783L567.3921146740554,190.92120147205705L570.5759154524831,190.14446878095467L573.7233219640585,190.18255592124828L576.8200383065163,189.77137978647073L579.713993972503,188.70867274795714L582.3504339339433,187.68929944844018L585.2166245463732,188.07004864367744L588.1739816777089,187.1498913308569L591.2588823708243,186.07265268598323L593.9052088960001,187.97443778409405L596.3610382174918,185.1905186321592L599.4564972095093,184.79367135005975L602.4832153028013,183.22429674743628L606.1359216755417,182.25249557210432L609.1340307403239,181.75847094991937L612.3553625681934,183.8319689745606L614.9095235837025,180.89753993182796L618.0757214559669,181.18021744882068L620.6821916945854,181.32645562505772L623.9272064930757,180.42922336554307L626.7958084625142,180.26813695390825L629.8542531244487,181.1026766639657L632.7892707554971,180.59010980094354L635.9221574530848,180.42221308755128L639.0361666700903,180.38570076010294L642.3260327089419,180.35134373206878L644.8789535979894,181.37356669292473L647.4747794178124,179.8379658543186L650.3913846157018,178.52323876651167L653.1394876306218,177.05445220974784L656.2429041007679,176.31782864086378L659.2346575174344,178.65848935965224L662.0419421229384,177.10172436958135L664.873236954657,176.84447716371878L667.6011706905974,176.04685528847375L670.2935024627028,174.34552414568046L673.0548679411704,173.71884862140098L675.9006136909625,174.23521503287506L678.5213453838893,173.3566472218963L681.6450000289295,172.01370126546954L684.1029823477503,170.22860785497593L686.9338810279605,170.37162974677778L689.7337420986735,171.24642578378158L692.549035854242,171.31236239215102L694.8007954768864,170.03655290149956L697.2356976643385,169.23097086114979L699.8727576890097,166.88230553809336L702.3140844204921,168.5745377622254L705.02339903553,168.0800631935132L707.1397781861168,165.4005982946347L709.8462508446801,165.58096574819456L712.2987731622742,165.26019275856515L715.1713366467983,165.79766777255006L717.7770145823996,164.54552769118777L720.5116312220497,164.71671845755083L723.6343729962223,164.55575980851015L726.6936444091313,163.1968601925015L729.5346018928633,162.04338060829585L732.4359294217049,161.83687181699491L735.1238863032376,162.70972364060958L737.8543519640369,161.46861558150687L740.476530471169,162.12073252670734L743.3672480291725,162.95325025484004L746.3553671863475,161.67250246218012L749.1375220070254,160.3636468988084L752.8401779178023,163.2008263878154L755.2974885014564,160.49495351621673L758.499891176808,158.08438443884953L761.6703950437308,157.50582541850397L764.9358891528161,157.35129933833372L768.0267148945813,156.4765421855977L770.9867761905624,156.7780230235113L773.911132178837,157.0549789982445L776.513485886562,152.9513666820172L779.1436390958011,151.7055480716174L782.2830192333336,151.59557225253585L785.3016076087107,151.48208018466758L788.5745424765656,152.17812524267222L791.1558140344436,151.0183686266673L793.6693436843567,149.00445796495606L796.3242994228278,146.72956165277967L798.9323198195232,146.70299814298838L801.8197992695438,145.6926682131787L804.7325290722407,144.5259346485544L807.5342503326461,146.2673943556999L810.1299728085974,145.9560091392924L813.0664028058937,145.32173451810903L815.9408264801102,143.33832023213057L818.6265614683991,142.25695985487187L821.6286664962242,143.5438402520507L824.4185893312657,141.73567736097093L827.5206451070998,140.95193716932445L829.9112299975286,138.92636678217366L832.4281183232753,140.73720713283512L834.9867920211864,138.86609616710976L837.5951052255185,138.95161933665113L840.2674916303665,137.02315963084104L843.0720376232679,135.91521352420946L846.1279503603432,137.79400135537426L848.8155972102603,136.07558335433797L851.5001781919807,133.7120420214068L853.9814990018497,128.88291592709066L856.7078998036917,132.07536986104148L859.3285453767253,129.8840413952265L862.1643873388033,127.31751307467647L864.7606093101349,127.13037975852234L867.5504288013046,127.07565292906523L869.9852276448851,124.05397869921802L872.2604807743854,124.95030551078287L874.4486494679157,122.2599363522389L876.6654616379133,120.62809695086949L878.897293117279,118.68286146095872L881.1896841055194,117.85709293073407L883.6353857275747,117.09719435013409L886.1991232752039,112.89813782118534L888.6210385827667,113.23013169951793L891.1813485586478,116.17590383865246L893.8767806469072,115.45897792884827L896.4436357346691,112.23259469380892L898.921666764619,108.59357160905472L901.5666153715042,109.58683134530759L904.1355201127234,105.38205327409935L906.6974319186176,106.76964392483654L909.2066727978511,104.68803575291486L911.7351873091752,104.19279460863783L914.3578136397516,103.32853065330784L916.7369618083679,99.79547275315821L919.2047962429671,98.2750534436737L921.3562606380298,98.34136778493018L924.0015709484663,99.80103875834658L926.4624813436548,98.43207922677288L929.0568086773368,96.73925818372874L931.4687513012708,93.17925904090072L934.1135276683697,90.73127218813534L936.7752696544223,89.61199409489262L939.0152136277244,86.70736151107269L941.5723888394944,86.77575338320781L943.7980885824666,85.692993172309L946.3392110461504,84.85121543354848L949.3684610643014,80.93944698477247L951.978066067031,80.43641787714802L953.9687618455309,80.61344128367853L956.4056964624618,79.90037047128027L958.9400671265213,78.23793470606091L961.2616355345664,78.52086774824193L963.6807088856547,76.53502597297472L966.0748591396606,77.56451473701071L968.3737952397815,70.4894555551212L970.6386967581232,71.1288462349658L972.9931629653579,71.7531720384921L975.4969438433649,74.32902147351933L977.7678909782067,69.34019213652238L980.2110606754028,70.39313366892696L982.7348385926028,73.53974860605683L984.9996884390087,72.06586821021341L987.0881819681882,69.80733661987836L989.1416247008489,70.5755231044115L991.1453934791313,64.53147472789692L993.445569705714,69.47895342355423L995.9352785931773,67.51555342569327L998.2511286403162,65.57420636256074L1000.6706670388274,63.337538840510604L1002.9167599725016,64.99751934196422L1005.2067051557761,66.26670184240635L1007.3037417783578,66.73487953630632L1009.5653879647377,65.56780712306272L1011.6612016848364,65.33072418749344L1013.9573130524616,66.20149848022942L1016.081132961818,70.594320870437L1018.213513188555,64.44648482831377L1020.5230248115569,64.82177356137515L1022.8614382707054,65.22507007703126L1025.2360909808986,64.79483231869688L1027.677124904744,59.51931483023009L1029.915432600076,58.48812626820245L1032.3279263913264,61.622998156461904L1034.6966368288909,61.06848627829254L1036.6102553030066,59.67429641182298L1038.7222078910845,57.63433884559237L1041.0087943985257,53.63845817070603L1043.1130995400904,54.490434697416504L1045.4073679420019,54.522197589299935L1047.4508552150126,49.51042653431091L1049.6459996198894,49.18866477330073L1052.0493474784855,51.167851783881645L1054.3095640746387,52.1402251134395L1056.6300129240728,50.155549866205774L1059.0309838736175,48.82961855438185L1061.2987962443483,48.549740704669546L1063.8548174495497,47.21541039100447L1065.9429320511993,43.59392966591588L1068.444559931877,41.95605764814468L1071.118634286631,45.166676090045655L1073.5262709159067,39.379408308180246" style="fill: none;" fill="none"></path></g></g></g></g></g></g><g transform="translate(58, 365)" clip-path="url(#clip_1)"><clipPath id="clip_1"><rect width="1299" height="34"></rect></clipPath><g><g visibility="inherit"><g><g transform="translate(27.416974172662417,0)" style="visibility: inherit;"><text transform="translate(0,14.171875)" style="text-anchor: middle; font-family: &quot;Helvetica Neue&quot;, sans-serif; font-size: 16px; font-weight: 200;" fill="rgb(50, 49, 63)" stroke="none" stroke-width="1.3333333730697632px">11 AM</text></g><g transform="translate(147.84343296508774,0)" style="visibility: inherit;"><text transform="translate(0,14.171875)" style="text-anchor: middle; font-family: &quot;Helvetica Neue&quot;, sans-serif; font-size: 16px; font-weight: 200;" fill="rgb(50, 49, 63)" stroke="none" stroke-width="1.3333333730697632px">01 PM</text></g><g transform="translate(333.8624022046136,0)" style="visibility: inherit;"><text transform="translate(0,14.171875)" style="text-anchor: middle; font-family: &quot;Helvetica Neue&quot;, sans-serif; font-size: 16px; font-weight: 200;" fill="rgb(50, 49, 63)" stroke="none" stroke-width="1.3333333730697632px">04 PM</text></g><g transform="translate(519.8813714441394,0)" style="visibility: inherit;"><text transform="translate(0,14.171875)" style="text-anchor: middle; font-family: &quot;Helvetica Neue&quot;, sans-serif; font-size: 16px; font-weight: 200;" fill="rgb(50, 49, 63)" stroke="none" stroke-width="1.3333333730697632px">07 PM</text></g><g transform="translate(705.9003406836653,0)" style="visibility: inherit;"><text transform="translate(0,14.171875)" style="text-anchor: middle; font-family: &quot;Helvetica Neue&quot;, sans-serif; font-size: 16px; font-weight: 200;" fill="rgb(50, 49, 63)" stroke="none" stroke-width="1.3333333730697632px">10 PM</text></g><g transform="translate(891.9193099231911,0)" style="visibility: inherit;"><text transform="translate(0,14.171875)" style="text-anchor: middle; font-family: &quot;Helvetica Neue&quot;, sans-serif; font-size: 16px; font-weight: 200;" fill="rgb(50, 49, 63)" stroke="none" stroke-width="1.3333333730697632px">01 AM</text></g><g transform="translate(1077.938279162717,0)" style="visibility: inherit;"><text transform="translate(0,14.171875)" style="text-anchor: middle; font-family: &quot;Helvetica Neue&quot;, sans-serif; font-size: 16px; font-weight: 200;" fill="rgb(50, 49, 63)" stroke="none" stroke-width="1.3333333730697632px">04 AM</text></g><g transform="translate(1235.0103198795211,0)" style="visibility: inherit;"><text transform="translate(0,14.171875)" style="text-anchor: middle; font-family: &quot;Helvetica Neue&quot;, sans-serif; font-size: 16px; font-weight: 200;" fill="rgb(50, 49, 63)" stroke="none" stroke-width="1.3333333730697632px">07 AM</text></g></g><g><line x1="0" y1="0" x2="0" y2="17.171875" fill="rgb(0, 0, 0)" stroke="rgb(204, 204, 204)" stroke-width="1.3333333730697632px"></line><line x1="54.833948345324835" y1="0" x2="54.833948345324835" y2="17.171875" fill="rgb(0, 0, 0)" stroke="rgb(204, 204, 204)" stroke-width="1.3333333730697632px"></line><line x1="240.8529175848507" y1="0" x2="240.8529175848507" y2="17.171875" fill="rgb(0, 0, 0)" stroke="rgb(204, 204, 204)" stroke-width="1.3333333730697632px"></line><line x1="426.8718868243765" y1="0" x2="426.8718868243765" y2="17.171875" fill="rgb(0, 0, 0)" stroke="rgb(204, 204, 204)" stroke-width="1.3333333730697632px"></line><line x1="612.8908560639023" y1="0" x2="612.8908560639023" y2="17.171875" fill="rgb(0, 0, 0)" stroke="rgb(204, 204, 204)" stroke-width="1.3333333730697632px"></line><line x1="798.9098253034282" y1="0" x2="798.9098253034282" y2="17.171875" fill="rgb(0, 0, 0)" stroke="rgb(204, 204, 204)" stroke-width="1.3333333730697632px"></line><line x1="984.928794542954" y1="0" x2="984.928794542954" y2="17.171875" fill="rgb(0, 0, 0)" stroke="rgb(204, 204, 204)" stroke-width="1.3333333730697632px"></line><line x1="1170.94776378248" y1="0" x2="1170.94776378248" y2="17.171875" fill="rgb(0, 0, 0)" stroke="rgb(204, 204, 204)" stroke-width="1.3333333730697632px"></line><line x1="1299.0728759765625" y1="0" x2="1299.0728759765625" y2="17.171875" fill="rgb(0, 0, 0)" stroke="rgb(204, 204, 204)" stroke-width="1.3333333730697632px"></line></g><line x1="0" y1="0" x2="1299.0728759765625" y2="0" style="visibility: inherit;" fill="rgb(0, 0, 0)" stroke="rgb(204, 204, 204)" stroke-width="1.3333333730697632px"></line></g><g visibility="inherit"><g><g transform="translate(27.416974172662417,0)" style="visibility: hidden;"><text transform="translate(0,31.34375)" style="text-anchor: middle; font-family: &quot;Helvetica Neue&quot;, sans-serif; font-size: 16px; font-weight: 200;" fill="rgb(50, 49, 63)" stroke="none" stroke-width="1.3333333730697632px">April 28, 2020</text></g><g transform="translate(147.84343296508774,0)" style="visibility: inherit;"><text transform="translate(0,31.34375)" style="text-anchor: middle; font-family: &quot;Helvetica Neue&quot;, sans-serif; font-size: 16px; font-weight: 200;" fill="rgb(50, 49, 63)" stroke="none" stroke-width="1.3333333730697632px">April 28, 2020</text></g><g transform="translate(333.8624022046136,0)" style="visibility: inherit;"><text transform="translate(0,31.34375)" style="text-anchor: middle; font-family: &quot;Helvetica Neue&quot;, sans-serif; font-size: 16px; font-weight: 200;" fill="rgb(50, 49, 63)" stroke="none" stroke-width="1.3333333730697632px">April 28, 2020</text></g><g transform="translate(519.8813714441394,0)" style="visibility: inherit;"><text transform="translate(0,31.34375)" style="text-anchor: middle; font-family: &quot;Helvetica Neue&quot;, sans-serif; font-size: 16px; font-weight: 200;" fill="rgb(50, 49, 63)" stroke="none" stroke-width="1.3333333730697632px">April 28, 2020</text></g><g transform="translate(705.9003406836653,0)" style="visibility: inherit;"><text transform="translate(0,31.34375)" style="text-anchor: middle; font-family: &quot;Helvetica Neue&quot;, sans-serif; font-size: 16px; font-weight: 200;" fill="rgb(50, 49, 63)" stroke="none" stroke-width="1.3333333730697632px">April 28, 2020</text></g><g transform="translate(891.9193099231911,0)" style="visibility: inherit;"><text transform="translate(0,31.34375)" style="text-anchor: middle; font-family: &quot;Helvetica Neue&quot;, sans-serif; font-size: 16px; font-weight: 200;" fill="rgb(50, 49, 63)" stroke="none" stroke-width="1.3333333730697632px">April 29, 2020</text></g><g transform="translate(1077.938279162717,0)" style="visibility: inherit;"><text transform="translate(0,31.34375)" style="text-anchor: middle; font-family: &quot;Helvetica Neue&quot;, sans-serif; font-size: 16px; font-weight: 200;" fill="rgb(50, 49, 63)" stroke="none" stroke-width="1.3333333730697632px">April 29, 2020</text></g><g transform="translate(1235.0103198795211,0)" style="visibility: inherit;"><text transform="translate(0,31.34375)" style="text-anchor: middle; font-family: &quot;Helvetica Neue&quot;, sans-serif; font-size: 16px; font-weight: 200;" fill="rgb(50, 49, 63)" stroke="none" stroke-width="1.3333333730697632px">April 29, 2020</text></g></g><g><line x1="0" y1="17.171875" x2="0" y2="34.34375" fill="rgb(0, 0, 0)" stroke="rgb(204, 204, 204)" stroke-width="1.3333333730697632px"></line><line x1="54.833948345324835" y1="17.171875" x2="54.833948345324835" y2="34.34375" fill="rgb(0, 0, 0)" stroke="rgb(204, 204, 204)" stroke-width="1.3333333730697632px"></line><line x1="240.8529175848507" y1="17.171875" x2="240.8529175848507" y2="34.34375" fill="rgb(0, 0, 0)" stroke="rgb(204, 204, 204)" stroke-width="1.3333333730697632px"></line><line x1="426.8718868243765" y1="17.171875" x2="426.8718868243765" y2="34.34375" fill="rgb(0, 0, 0)" stroke="rgb(204, 204, 204)" stroke-width="1.3333333730697632px"></line><line x1="612.8908560639023" y1="17.171875" x2="612.8908560639023" y2="34.34375" fill="rgb(0, 0, 0)" stroke="rgb(204, 204, 204)" stroke-width="1.3333333730697632px"></line><line x1="798.9098253034282" y1="17.171875" x2="798.9098253034282" y2="34.34375" fill="rgb(0, 0, 0)" stroke="rgb(204, 204, 204)" stroke-width="1.3333333730697632px"></line><line x1="984.928794542954" y1="17.171875" x2="984.928794542954" y2="34.34375" fill="rgb(0, 0, 0)" stroke="rgb(204, 204, 204)" stroke-width="1.3333333730697632px"></line><line x1="1170.94776378248" y1="17.171875" x2="1170.94776378248" y2="34.34375" fill="rgb(0, 0, 0)" stroke="rgb(204, 204, 204)" stroke-width="1.3333333730697632px"></line><line x1="1299.0728759765625" y1="17.171875" x2="1299.0728759765625" y2="34.34375" fill="rgb(0, 0, 0)" stroke="rgb(204, 204, 204)" stroke-width="1.3333333730697632px"></line></g><line x1="0" y1="17.171875" x2="1299.0728759765625" y2="17.171875" style="visibility: inherit;" fill="rgb(0, 0, 0)" stroke="rgb(204, 204, 204)" stroke-width="1.3333333730697632px"></line></g></g></g></g></g></svg>