<svg viewBox="0 0 963 400" xmlns="http://www.w3.org/2000/svg"><g><g><g><g><g><line x1="68.3125" y1="365.65625" x2="63.3125" y2="365.65625" style="visibility: inherit;" fill="rgb(0, 0, 0)" stroke="rgb(204, 204, 204)" stroke-width="1px"></line><line x1="68.3125" y1="332.41477272727275" x2="63.3125" y2="332.41477272727275" style="visibility: inherit;" fill="rgb(0, 0, 0)" stroke="rgb(204, 204, 204)" stroke-width="1px"></line><line x1="68.3125" y1="299.17329545454544" x2="63.3125" y2="299.17329545454544" style="visibility: inherit;" fill="rgb(0, 0, 0)" stroke="rgb(204, 204, 204)" stroke-width="1px"></line><line x1="68.3125" y1="265.9318181818182" x2="63.3125" y2="265.9318181818182" style="visibility: inherit;" fill="rgb(0, 0, 0)" stroke="rgb(204, 204, 204)" stroke-width="1px"></line><line x1="68.3125" y1="232.6903409090909" x2="63.3125" y2="232.6903409090909" style="visibility: inherit;" fill="rgb(0, 0, 0)" stroke="rgb(204, 204, 204)" stroke-width="1px"></line><line x1="68.3125" y1="199.44886363636365" x2="63.3125" y2="199.44886363636365" style="visibility: inherit;" fill="rgb(0, 0, 0)" stroke="rgb(204, 204, 204)" stroke-width="1px"></line><line x1="68.3125" y1="166.20738636363637" x2="63.3125" y2="166.20738636363637" style="visibility: inherit;" fill="rgb(0, 0, 0)" stroke="rgb(204, 204, 204)" stroke-width="1px"></line><line x1="68.3125" y1="132.9659090909091" x2="63.3125" y2="132.9659090909091" style="visibility: inherit;" fill="rgb(0, 0, 0)" stroke="rgb(204, 204, 204)" stroke-width="1px"></line><line x1="68.3125" y1="99.72443181818181" x2="63.3125" y2="99.72443181818181" style="visibility: inherit;" fill="rgb(0, 0, 0)" stroke="rgb(204, 204, 204)" stroke-width="1px"></line><line x1="68.3125" y1="66.4829545454545" x2="63.3125" y2="66.4829545454545" style="visibility: inherit;" fill="rgb(0, 0, 0)" stroke="rgb(204, 204, 204)" stroke-width="1px"></line><line x1="68.3125" y1="33.24147727272731" x2="63.3125" y2="33.24147727272731" style="visibility: inherit;" fill="rgb(0, 0, 0)" stroke="rgb(204, 204, 204)" stroke-width="1px"></line><line x1="68.3125" y1="0" x2="63.3125" y2="0" style="visibility: inherit;" fill="rgb(0, 0, 0)" stroke="rgb(204, 204, 204)" stroke-width="1px"></line></g><g transform="translate(58.3125, 0)"><text x="0" y="365.65625" dx="0em" dy="0.3em" style="text-anchor: end; visibility: hidden; font-family: &quot;Helvetica Neue&quot;, sans-serif; font-size: 12px; font-weight: 200;" fill="rgb(50, 49, 63)" stroke="none" stroke-width="1px">-200</text><text x="0" y="332.41477272727275" dx="0em" dy="0.3em" style="text-anchor: end; visibility: inherit; font-family: &quot;Helvetica Neue&quot;, sans-serif; font-size: 12px; font-weight: 200;" fill="rgb(50, 49, 63)" stroke="none" stroke-width="1px">0</text><text x="0" y="299.17329545454544" dx="0em" dy="0.3em" style="text-anchor: end; visibility: inherit; font-family: &quot;Helvetica Neue&quot;, sans-serif; font-size: 12px; font-weight: 200;" fill="rgb(50, 49, 63)" stroke="none" stroke-width="1px">200</text><text x="0" y="265.9318181818182" dx="0em" dy="0.3em" style="text-anchor: end; visibility: inherit; font-family: &quot;Helvetica Neue&quot;, sans-serif; font-size: 12px; font-weight: 200;" fill="rgb(50, 49, 63)" stroke="none" stroke-width="1px">400</text><text x="0" y="232.6903409090909" dx="0em" dy="0.3em" style="text-anchor: end; visibility: inherit; font-family: &quot;Helvetica Neue&quot;, sans-serif; font-size: 12px; font-weight: 200;" fill="rgb(50, 49, 63)" stroke="none" stroke-width="1px">600</text><text x="0" y="199.44886363636365" dx="0em" dy="0.3em" style="text-anchor: end; visibility: inherit; font-family: &quot;Helvetica Neue&quot;, sans-serif; font-size: 12px; font-weight: 200;" fill="rgb(50, 49, 63)" stroke="none" stroke-width="1px">800</text><text x="0" y="166.20738636363637" dx="0em" dy="0.3em" style="text-anchor: end; visibility: inherit; font-family: &quot;Helvetica Neue&quot;, sans-serif; font-size: 12px; font-weight: 200;" fill="rgb(50, 49, 63)" stroke="none" stroke-width="1px">1e+3</text><text x="0" y="132.9659090909091" dx="0em" dy="0.3em" style="text-anchor: end; visibility: inherit; font-family: &quot;Helvetica Neue&quot;, sans-serif; font-size: 12px; font-weight: 200;" fill="rgb(50, 49, 63)" stroke="none" stroke-width="1px">1.2e+3</text><text x="0" y="99.72443181818181" dx="0em" dy="0.3em" style="text-anchor: end; visibility: inherit; font-family: &quot;Helvetica Neue&quot;, sans-serif; font-size: 12px; font-weight: 200;" fill="rgb(50, 49, 63)" stroke="none" stroke-width="1px">1.4e+3</text><text x="0" y="66.4829545454545" dx="0em" dy="0.3em" style="text-anchor: end; visibility: inherit; font-family: &quot;Helvetica Neue&quot;, sans-serif; font-size: 12px; font-weight: 200;" fill="rgb(50, 49, 63)" stroke="none" stroke-width="1px">1.6e+3</text><text x="0" y="33.24147727272731" dx="0em" dy="0.3em" style="text-anchor: end; visibility: inherit; font-family: &quot;Helvetica Neue&quot;, sans-serif; font-size: 12px; font-weight: 200;" fill="rgb(50, 49, 63)" stroke="none" stroke-width="1px">1.8e+3</text><text x="0" y="0" dx="0em" dy="0.3em" style="text-anchor: end; visibility: hidden; font-family: &quot;Helvetica Neue&quot;, sans-serif; font-size: 12px; font-weight: 200;" fill="rgb(50, 49, 63)" stroke="none" stroke-width="1px">2e+3</text></g><line x1="68.3125" y1="0" x2="68.3125" y2="365.65625" fill="rgb(0, 0, 0)" stroke="rgb(204, 204, 204)" stroke-width="1px"></line></g></g><g transform="translate(68, 0)" clip-path="url(#clip_0)"><clipPath id="clip_0"><rect width="894" height="365"></rect></clipPath><g><g><g><line x1="0" y1="0" x2="0" y2="365.65625" fill="rgb(0, 0, 0)" stroke="rgb(60, 60, 60)" stroke-width="1px" opacity="0.25"></line><line x1="89.46875" y1="0" x2="89.46875" y2="365.65625" fill="rgb(0, 0, 0)" stroke="rgb(60, 60, 60)" stroke-width="1px" opacity="0.25"></line><line x1="178.9375" y1="0" x2="178.9375" y2="365.65625" fill="rgb(0, 0, 0)" stroke="rgb(60, 60, 60)" stroke-width="1px" opacity="0.25"></line><line x1="268.40625" y1="0" x2="268.40625" y2="365.65625" fill="rgb(0, 0, 0)" stroke="rgb(60, 60, 60)" stroke-width="1px" opacity="0.25"></line><line x1="357.875" y1="0" x2="357.875" y2="365.65625" fill="rgb(0, 0, 0)" stroke="rgb(60, 60, 60)" stroke-width="1px" opacity="0.25"></line><line x1="447.34375" y1="0" x2="447.34375" y2="365.65625" fill="rgb(0, 0, 0)" stroke="rgb(60, 60, 60)" stroke-width="1px" opacity="0.25"></line><line x1="536.8125" y1="0" x2="536.8125" y2="365.65625" fill="rgb(0, 0, 0)" stroke="rgb(60, 60, 60)" stroke-width="1px" opacity="0.25"></line><line x1="626.28125" y1="0" x2="626.28125" y2="365.65625" fill="rgb(0, 0, 0)" stroke="rgb(60, 60, 60)" stroke-width="1px" opacity="0.25"></line><line x1="715.75" y1="0" x2="715.75" y2="365.65625" fill="rgb(0, 0, 0)" stroke="rgb(60, 60, 60)" stroke-width="1px" opacity="0.25"></line><line x1="805.21875" y1="0" x2="805.21875" y2="365.65625" fill="rgb(0, 0, 0)" stroke="rgb(60, 60, 60)" stroke-width="1px" opacity="0.25"></line><line x1="894.6875" y1="0" x2="894.6875" y2="365.65625" fill="rgb(0, 0, 0)" stroke="rgb(60, 60, 60)" stroke-width="1px" opacity="0.25"></line></g><g><line x1="0" y1="365.65625" x2="894.6875" y2="365.65625" fill="rgb(0, 0, 0)" stroke="rgb(60, 60, 60)" stroke-width="1px" opacity="0.25"></line><line x1="0" y1="332.41477272727275" x2="894.6875" y2="332.41477272727275" fill="rgb(0, 0, 0)" stroke="rgb(60, 60, 60)" stroke-width="1px" opacity="0.25"></line><line x1="0" y1="299.17329545454544" x2="894.6875" y2="299.17329545454544" fill="rgb(0, 0, 0)" stroke="rgb(60, 60, 60)" stroke-width="1px" opacity="0.25"></line><line x1="0" y1="265.9318181818182" x2="894.6875" y2="265.9318181818182" fill="rgb(0, 0, 0)" stroke="rgb(60, 60, 60)" stroke-width="1px" opacity="0.25"></line><line x1="0" y1="232.6903409090909" x2="894.6875" y2="232.6903409090909" fill="rgb(0, 0, 0)" stroke="rgb(60, 60, 60)" stroke-width="1px" opacity="0.25"></line><line x1="0" y1="199.44886363636365" x2="894.6875" y2="199.44886363636365" fill="rgb(0, 0, 0)" stroke="rgb(60, 60, 60)" stroke-width="1px" opacity="0.25"></line><line x1="0" y1="166.20738636363637" x2="894.6875" y2="166.20738636363637" fill="rgb(0, 0, 0)" stroke="rgb(60, 60, 60)" stroke-width="1px" opacity="0.25"></line><line x1="0" y1="132.9659090909091" x2="894.6875" y2="132.9659090909091" fill="rgb(0, 0, 0)" stroke="rgb(60, 60, 60)" stroke-width="1px" opacity="0.25"></line><line x1="0" y1="99.72443181818181" x2="894.6875" y2="99.72443181818181" fill="rgb(0, 0, 0)" stroke="rgb(60, 60, 60)" stroke-width="1px" opacity="0.25"></line><line x1="0" y1="66.4829545454545" x2="894.6875" y2="66.4829545454545" fill="rgb(0, 0, 0)" stroke="rgb(60, 60, 60)" stroke-width="1px" opacity="0.25"></line><line x1="0" y1="33.24147727272731" x2="894.6875" y2="33.24147727272731" fill="rgb(0, 0, 0)" stroke="rgb(60, 60, 60)" stroke-width="1px" opacity="0.25"></line><line x1="0" y1="0" x2="894.6875" y2="0" fill="rgb(0, 0, 0)" stroke="rgb(60, 60, 60)" stroke-width="1px" opacity="0.25"></line></g></g></g><g><g><line x1="0" y1="332.41477272727275" x2="894.6875" y2="332.41477272727275" fill="rgb(0, 0, 0)" stroke="rgb(153, 153, 153)" stroke-width="1.5px"></line></g></g><g><g><line x1="-39472181" y1="0" x2="-39472181" y2="365.65625" fill="rgb(0, 0, 0)" stroke="rgb(153, 153, 153)" stroke-width="1.5px"></line></g></g><g><g><g><g><g><path stroke="rgb(255, 112, 67)" stroke-width="2px" d="M102.44912477430556,-3.841918937775233L102.57462954861111,49.490430003129916L102.95019947916666,79.5276212275607L105.71868568576389,131.7750870307324L105.94004628472221,164.2399846713688L106.87723144097222,183.64874870431646L107.43397559027778,196.8763678335639L107.70026938368056,205.64990225124612L109.26912876736111,207.34720017166163L109.35745430555556,208.38595536927136L109.71162629340277,208.6578177562613L111.00698467881944,208.7691503806162L111.90214437499999,205.9534100572291L114.31802429687501,202.68023263576475L114.36243559027777,200.591138349114L115.25851482638888,197.93892224691575L116.06723776909722,197.54280946642106L116.68879705729167,197.5249621368616L119.33560576388889,199.8976976171001L120.678805078125,199.62107845988996L121.36376291666667,200.3932399611359L121.65766776041666,202.21664170040935L121.6995938107639,203.4720490108383L123.08712986111112,203.07114475734036L123.68420950520833,202.51043062945146L124.01902144965277,202.29856872179926L124.22812980034722,202.67220521844445L124.32425900173611,203.2101978000007L124.82453842881944,203.43323984448165L125.24397289930556,203.06746328094488L127.06543238715278,202.2663397939713L127.40054256076388,201.43655603917435L127.74651324652778,200.3550567447124L128.846407265625,199.52437820876463L129.22242453993056,199.81948606896415L129.38963169270832,200.0847252842018L129.473583203125,200.53737349513224L130.07014094618054,201.11105276772227L130.15396819444445,201.20554257860158L130.4477487760417,200.7675246219681L130.79322241319446,200.12996099026216L131.04433137152776,199.75789399552966L132.2274810329861,198.1732585792611L137.10059532118055,194.0118551313961L137.82079390625,189.91785694961632L138.19850114583335,187.16497253478704L138.2404520486111,185.21823598669548L138.50167594618057,185.1817831971066L138.75263578993057,185.1514037812384L139.51495924479167,185.0198059547009L139.64058828125002,184.62509942371517L140.0166801128472,184.48817638776106L142.08954678819444,181.47213739523318L142.2151758246528,178.73511620881604L142.46693094618055,174.5285311621185L142.72760809027778,169.3103595520848L143.35605150173612,162.5437432479913L143.61717598958333,156.82124858803934L143.82732814236113,150.97652982956757L146.0330807638889,137.8913413770029L146.25481414930556,128.3592308024825L146.29915088541668,121.62321989268034L147.10297789930556,115.772470715351L147.69941138020832,111.87163434031885L149.85702484375,111.41661766698752L150.5786400173611,113.6261996048126L151.42658009548612,119.95398405218276L152.90400738715277,127.10607066609262L153.02988494791668,132.40133758821756L153.6268403298611,137.98876316785365L153.7942711545139,142.17525993232337L156.03312721354166,143.63820616716114L156.32904510416665,145.77843133313382L157.26001715277778,147.07053178138915L157.7707097482639,145.77573375464343L158.19200815104168,145.40098002234964L159.460153125,144.46530810669324L159.93155402777776,143.80606963406902L160.26721095486113,142.27010820992908L160.51889151909722,139.73435319685666L161.87006846354166,136.715314843394L163.105333671875,131.0745248371502L163.7757776909722,128.04573600644807L164.45775323784721,125.89909245120649L164.62555684895833,124.78750770368504L165.34749510416665,124.69282323503751L166.82609046006945,126.65264412756292L168.60701563368056,128.19601282137958L168.9842755295139,128.07915444024974L169.23565786458332,127.51797164692468L169.4555024652778,127.22752650178504L169.7487859982639,127.3480451536318L170.12587192708335,127.17092562579825L170.9255734375,125.78684802007194L171.0097237673611,124.68976516207292L171.1361729340278,123.03923083018586L171.51636541666667,122.89666708604236L172.99734660590278,121.22655920617393L174.01164885416665,118.42663560567064L174.90081911458333,114.61217125186212L175.65285366319443,111.6580125684927L176.03940836805558,106.20047265050789L176.58360203993055,100.31218593019406L176.70938019097224,95.62879021363091L177.05472956597222,91.02705200202223L178.74019655381946,79.70605204235267L179.46245789062502,67.34536878135737L179.90271869791667,57.15225384376731L180.02978917534722,50.396329084036665L180.87787836805555,44.61081929232438L181.55828821180555,39.580522164991066L182.32334543402777,36.2691168828714L182.82571246527777,34.92939556138538L183.54678088541667,34.56537622365141L183.79798925347222,35.35903768098183L185.38553766493055,38.46588987082106L185.52175383680554,41.11762773624798L185.56372959201389,43.42104865860915L185.89836756944445,45.46925599194839L186.06589780381944,47.09879047085468L186.3584357638889,48.086321017598095L188.61033934895835,47.831318825046594L188.90362288194444,47.778683168028465L189.30292688368056,46.87487335637155L190.43664506076388,45.79159690959068L190.6059646701389,45.436521865168515L190.95213417534723,45.0833634476632L191.286200546875,43.26664836891263L191.45281124131944,41.01854925646779L192.29963296006943,39.00905604623921L192.50956144097222,36.901027065876406L192.55171116319443,35.30115712740866L192.76084436631945,34.36949197161579L193.27300325520835,36.226453236566044L193.3991044878472,36.80374980168375L193.6210615451389,37.34945080680535L194.42752291666667,39.52243570794627L195.09652549479165,41.531245837359904L195.52336598958334,43.87006940995116L196.024241875,46.08909117522842L197.1221974045139,46.53849806559265L197.5082550607639,46.68166526203538L198.99863046875,44.835391767020326L199.04055651909724,43.70505690551113L199.12413524305555,42.22816423590564L200.98237632812499,42.89801063286927L201.3163681423611,44.27200109812071L201.90313402777778,45.42443279266428L201.9860417361111,46.017005519763416L202.1948518576389,47.99742195265759L203.26397856770834,49.716353483900775L203.3057555034722,51.046244378922154L203.72340059895834,51.57179977010884L203.8065071267361,52.136701195422575L204.02436353298611,52.38111746078073L204.60919092881943,53.55381412755116L204.86074723090277,54.454528611492435L205.24750075520834,54.52351839160872L205.8764412152778,54.232736821454296L206.13701894965277,52.68427149275908L208.37493061631943,50.40479354253898L209.10857436631946,48.642329021948115L211.73207149305554,52.79761803027429L211.9412295486111,56.15126826853441L212.69870677951388,58.88490934528454L214.25973764756944,61.142941500228346L214.85395926215278,64.21520844051571L216.35285905381943,67.31017443486553L219.85364697916665,66.21013811371154L220.6418418142361,65.04636163224887L221.099424765625,63.04097404575543L222.11879690972222,59.74224729548769L224.101548671875,58.48452949616774L224.44620217881945,57.716805680397954L225.97475092013886,58.38521466713172L226.6548128298611,59.398682236104605L226.7808146527778,60.384613908713675L227.11555203993058,61.38445196642141L227.24120592881945,62.58879659277244L228.4229887065972,65.11563259176654L229.71196001736112,68.06816471708208L232.077240390625,67.46405584801965L232.32842390625,67.24184875801183L233.0092313888889,63.00523474465683L233.76293105034722,58.40102583567318L233.80488195312503,54.73805380539761L235.26028999131947,50.85060271580437L235.67940138020833,47.76511826962712L235.80532864583336,45.76366302476197L235.84713043402778,43.88336731647303L235.93078371527778,42.60563087100303L235.9725357986111,42.01564887133759L237.0301558333333,41.852612915682414L238.43608268229164,41.70102979961894L240.12212127604164,43.14847828894676L241.44012022569444,42.47345120374456L242.58049885416665,39.47995130969167L242.78988058159723,36.99147117786623L243.72743852430554,33.74448575287494L244.53320402777777,30.611097280262754L245.16256697916666,28.230432901403503L245.84180875868054,28.785343091104437L247.26968030381943,32.0373579796788L247.39918631944445,34.570345005939146L248.46398870659723,36.78495234136835L250.28127298611113,39.53203388562724L251.13013260416665,41.245194515362925L251.88952347222224,43.72301669537404L251.97332586805555,46.047265370349805L252.05871881944444,47.58030537888169L252.31966934027778,47.70583106735569M254.83456134548612,107.00940557937508L255.0097709809028,152.47976586160087L255.49310105034724,189.05702370700791L256.80637803819445,218.7247062593949L257.1407177864583,240.3918756813747L257.6964429861111,256.62253666343423L257.90567559895834,268.47157859779577L258.5964986111111,278.35190491254036L258.81820714409724,285.9342243270239L258.90702973090276,291.475690498851L259.3513166319444,295.6104135557154L260.84201512152777,295.1984341092041L261.3445809722222,292.2571446867099L263.5412873090278,278.70558047416887L264.0205664322917,267.22798114832057L264.7737193402778,255.30993953657742L266.02772328124996,243.74141962571014L267.72106848958333,232.8612392089109L268.2333764930555,225.81407452653755L268.3669334548611,220.77811471410502L270.92029702256946,221.35985747383228L271.1300018315972,221.82851002539405L271.5911635329861,221.64745293083647L274.67997271701387,218.33256420214136L275.17284611979164,214.12033167348525L275.2146976128472,210.81226806938844L275.50196685763893,208.5082295076639L275.709807734375,207.4577581406899L275.75153496527776,206.67971969533923L276.81415033854165,207.67338090443684L277.02258767361116,208.77696750305898L277.1476948090278,209.76903035709168L277.4917767100694,209.91745455440295L278.32788703125004,210.45649762972968L278.4633576302083,210.59923692678012L278.5051345659722,210.7918492247473L279.13454722222224,211.35783044967562L280.0667121875,213.38669688012735L280.6215178472222,213.8763396771296L280.70507171875,214.13347351196336L282.8227721788195,212.96713080104325L283.8370992795139,211.40049767966556L284.12904078125,210.47790209343412L284.38019944444443,210.02002518344912L285.39750883680557,211.0191650719977L285.52385859375,211.43155391753945L288.029207265625,210.64081062932638L288.7403098611111,209.9793105010246L289.6306481857639,207.17020151951675L289.7567245659722,205.28268211863139L291.8609798611111,205.30530251035387L291.98581361979166,205.4030791826532L292.6633157291667,205.61017426368963L293.9692115451389,206.61897161309005L295.14835996527773,206.68849049672085L295.49249157118055,206.453677969538L295.65964901909723,206.1089948417497L295.9945603732639,204.5565639501152L296.45490194444443,202.99333552153018L297.5515651475695,197.0239775518441L297.7946716232639,191.52879839289247L298.46775,183.66536647541858L299.1481846961806,174.36963836581037L299.4830711979167,165.47817869832434L299.86925311631944,157.27422604253917L300.24658756944444,150.29589943026247L300.70658120659726,143.05350737441015L300.7484575520833,137.79669032021397L301.2602436545139,131.32384480978754L301.3438223784722,126.84119078303257L302.95314151909724,121.5206630032165L303.4544647482639,117.87436930030162L304.25849058159724,114.64517733082923L305.23205969618056,114.98121021001623L306.0774896788194,118.06304188930679L308.0922762239584,123.89877195276244L308.47709125868056,129.60698767813707L308.6022978038194,134.25903154937308L311.15382229166664,139.38175235577506L311.9979599479166,143.5160961009129L312.08124044270835,146.5803358434712L312.12279370659724,148.59475723722213L314.35247921875003,153.04243347625408L315.19785949652777,155.5415659243858L315.5311802951389,155.82865316577843L316.8463212152778,157.68937255968896L317.55682735243056,157.00052355090244L318.31925021701386,156.60641355954743L318.65371422743056,155.36005860207874L319.9714398003472,156.69101176240474L322.0852384288194,160.1163718298128L323.3097425347222,161.78681025677392L323.7692391232639,161.94565421983634L324.4466666753472,159.4832127291705L325.0320656770833,157.15350588824037L326.1157807638889,152.69612897727694L327.805671484375,144.52823480600628L328.73443166666664,139.36379315377505L328.94331634548615,134.37019514914454L330.495996796875,129.89924234115745L330.96439055555555,124.34767495549684L331.80919922743055,117.17029862638859L331.89257913194444,111.37195658334264L333.2378163454861,102.45313690075193L334.2496084982639,91.19020493541262L334.7508571701389,82.80547408275197L334.83441104166667,76.63555935363075L335.0941934982639,70.55454563550819L336.64918522569445,65.73181776115405L337.828631875,62.10158918749897L337.912061484375,59.002718561335826L338.08873741319445,57.426041347132184L338.7154411545139,55.606988762615515L340.4476307118056,56.5983234748536L340.57323489583337,58.027233487703484L342.80652401041664,59.672542744763575L342.93210334201393,60.87345416161793L343.36003734375004,60.03271979490722L344.11378671006946,58.33409887532906L344.1556630555556,57.09233072340231L345.06983486111113,57.02325495045375L345.1967313715278,56.84800732095056L346.6260195052083,56.94497145750927L346.71866936631943,57.77156957017422L347.01003926215276,58.352860442779615L348.52168835069443,61.92698045520211L349.4084479253472,65.17211982651503L350.41899745659725,70.40209150221028L350.62770816840276,73.96083825280829L350.87804670138894,75.42937340654606L352.0240668315972,73.87526000479039L352.86164344618055,72.47827209653929L353.08094129340276,71.04364735543192L353.7089870659722,70.41587857529345L353.9174492534722,69.24299878927786L355.73224828993057,69.28196635841721L356.9841646267361,71.48740238677254L357.0687623003472,73.17797984962925L357.75108578124997,75.9090269599397L357.8346893576389,77.46307971179027L358.08500303819443,77.47957158582142L358.16815927083337,76.97891118362162L358.92750043402776,76.34834738041411L359.9002494184028,75.55567297115357L360.27661462673615,74.51777028817651L361.08006885416665,71.27384963218435L361.5383476736111,68.19703498728461L361.6218766927083,65.66709991154937L361.88168400173606,64.85214866438156L362.425156953125,65.82667245514239L363.18874788194444,66.86233565390125L364.86454727430555,69.88231768692361L365.82790203993056,71.02656677657001L366.04682710069443,71.87465432621337L367.26310505208335,71.41483349856907L367.72759697916666,72.6356195724212L368.1894296961805,73.64074731671002L368.4914612847222,75.05196360389391L368.74197378472223,74.94405311077901L369.7773508940972,75.22539296673398L372.26266850694446,77.30233886661125L373.7843828298611,75.73773839981317L373.82601065104166,74.6380073754562L373.9933669184028,73.42091700620324L374.85949897569446,71.25538702988132L374.9012013541667,69.93018773882312L374.94292858506947,68.98993587840226L375.278237578125,70.45606042207902L377.35960378472225,68.61950414547749L377.6519926302083,67.17864139020668L377.77764651909723,66.85267202211298L378.5805788454861,66.83615265468427L380.87751503472225,69.55717413868354L381.2637715104167,72.8644692563181L381.34725082465275,74.93867497353568L381.51463194444443,77.87410272741079L381.76613854166663,80.28617712943554L381.8916930208333,82.4550715601913L382.18418127604167,84.15487116543875L382.5285117013889,85.98511124258772L382.6541655902778,86.5189404520425L383.15546396701393,88.06534301423426L384.29263663194445,91.43925463456628L384.47003328125,92.50153896125363L384.9303251475694,92.32776858376758L385.3994147743055,91.27541456171002L388.26156979166666,86.19565499229964L388.8561641927083,84.49678711599182L389.1903548263889,82.89515145580236L389.7853965711805,81.33176410414461L389.8271486545139,80.33394442132243L390.92458228298614,81.05106676925544L391.5097327604167,81.2670789693459L392.562705390625,81.36475609345933L393.7848982204861,82.75779866421493L393.9196729513889,83.38689736614111L395.0153420572917,83.77376373044518L395.76824644097223,84.02724123962099L395.9451211892361,84.30799738097767L396.99903821180555,82.62636628808986L399.19084861979167,77.89765371959925L399.81891924479163,74.58734983574789L400.16305085069445,72.45730140420693L400.20470352430556,71.1071730315519L401.12292627604165,69.30705153690008L402.08220524305557,68.94884562809887L403.7721705208333,69.46730579307166L404.65979993055555,68.95131308798227L405.9641797482639,69.59727095029388L408.1933682118056,71.17057186571662L408.65164703125,72.67937682478345L409.41034203124997,71.73541885426226L409.836660625,71.27991259214491L409.87843756076387,71.12444832015939L410.67127980034724,68.03401346700224L411.6408476736111,65.41748161232323L412.44333265625,62.71310497215978L413.70591068576385,60.556853287148726L414.08965706597223,59.18960149721448L414.2148636111111,58.43829279115255L414.50675540798613,57.830105033133975L414.92387860243053,58.22840743540371L415.0489608854167,58.56408252956538L415.26979958333334,59.60525791742566L415.68978080729164,59.63033459293723L416.7048286284722,58.8613495319517L417.0810198697917,58.19168437253177L417.8855427517361,59.098016457633435L418.79872046006943,58.63860455001378L421.4121275,59.13388347249651L422.8948980642361,60.7927433572018L423.6058266927083,62.398167338035364L424.03348731770836,63.217977378864475L424.2421980295139,62.87211456260701L424.7028626822917,63.310841153404L424.9641611371528,64.46209533935655L425.25737011284724,66.4445753691557L426.02093618923607,67.20468786423169L426.22987057291664,67.23736066112991L426.43917774305555,67.02303816016962L427.2028680815972,65.94193018210666L427.6628368663194,64.81681971998563L427.78859016493055,64.66133774393865L428.6352876215278,65.16929063475277L428.9696025173611,63.923820915994725L429.39823238715275,62.034072206974486L430.8734975173611,64.50995245959183L431.0827549826389,66.23140576191469L433.87219178819447,68.66840611886886L433.9142421006944,70.37642663208595L435.25985210069445,67.17628530844718L437.07718608506946,64.92547501713409L437.4111281944445,63.538218305091675L437.7550361284722,61.226401407186586L437.79661424479167,59.85566795737486L439.22684677083333,61.72508026156868L439.68669129340276,64.43248131190626L440.19701110243057,66.87766620924089L440.91661322916667,67.16261410273279L443.4432852864584,68.84340448593298L444.4559969791666,70.6221666560607L445.7181276649306,73.704697457441L445.88496203125004,75.61164796833589L446.47816469618056,75.18853388654253L447.19833842881945,72.44755920285138L447.448204765625,70.92168024275293L449.2119569097222,68.87564210906163L449.89055252604163,68.20893691628339L450.36103388888887,67.47956006692607L450.73893994791666,67.6078416732787L451.07504421874995,68.12811048340461L451.92231328125,68.64988620951556L452.00584230034724,69.33991301147222L452.1311482552083,69.47505998782401L452.2147269791667,69.61368496300037L452.47565264756946,69.54999259270903L453.31342808159724,71.02022579116186L453.4391068229167,71.82116140914593L453.65803188368056,71.917615285078L454.03377578125003,71.0765322821602L457.1924451475695,70.67391134832701L458.03688103298606,68.774048817812L458.07858341145834,67.38899526551717L458.16218698784724,66.404102095783L458.7483564149306,65.05734274974111L458.9156132725695,64.2954549674775L459.30072653645834,65.1929808185804L459.3425283246528,66.19726193816746L459.55141300347225,66.84763060686197L459.7600988628472,66.79011631949197L460.396122265625,66.26278868456023L461.7025896875,65.14295675791328L462.2144503472222,64.87644841588167L462.50768417534726,65.553489712427L462.71706590277773,65.44692180802116L463.31270410590275,65.14096742782539L463.6894172482639,65.61379574711918L464.9840797656249,65.97048071024892L465.2803704427084,66.05436967071847L465.32266927951383,66.38598757323365L465.70952221354173,66.77092462105281L467.30559500868054,69.001054372304L467.64970176215274,70.16992472111355L467.6916029600694,70.79713287194528L467.8588846701389,71.09225908435587L469.20695506076385,71.0606093493331L471.1938323263889,70.02095311532133L471.36158623263884,69.396166415182L472.3335150868056,70.46606957393789L473.09643500000004,71.12659324957923L473.22218829861106,71.17116885187534L474.10944492187497,70.02734116461431L474.7699231163194,67.23940854002205L475.81461988715273,66.96971449907261L476.10693417534725,67.11744954968833L476.82730672743054,66.94946653874848L476.9112333854167,66.78005111514335L477.0369369791667,67.07107542938263L477.92682796006943,67.76127283899183L478.0106303559028,68.56420624705248L478.22018605034725,69.11873942116529L478.6899963975694,69.69533407599022L479.19248769097226,71.41731237158746L479.9125371614583,72.62395320416516L480.69779940972217,75.49275497118657L480.94918174479164,77.0994468453004L481.368491953125,77.43325709337057L482.1319586197917,77.39274950790434L482.17393437500004,77.66897885220635L483.313095234375,77.70020486446009L483.64810599826393,78.7598314355094L484.07646249131943,78.42945976999329L484.53672950520837,77.51520331966026L485.4454834809028,77.9782526464993L486.20770752604164,80.89084162013808L487.5561755555555,82.73781655253526L487.8484649913194,84.40261767697865L490.06159878472226,84.97223297459362L490.1452023611111,85.20834547759375L490.5630462760417,84.97220020142748L490.8561061371528,86.23860689343957L491.99581374999997,87.41896788146448L493.07962824652776,89.5660996584246L493.5102214583333,91.49124290796811L494.1781305295139,92.94958643192189L494.2611625,94.07883435296014L494.56113133680554,93.72398531860273L495.9052750434028,92.58705340664568L496.5830256770833,91.34024267297258L496.7916121267361,91.02568571901071L498.5964950434028,89.09971697604726L498.7315928559027,87.87185591810771L499.5668084895833,85.14267918919836L499.82721225694445,83.30777483880712L499.86881522569445,82.31635752031997L500.96557783854166,82.4154224806797L501.2580412413194,82.95476906380242L504.0995687413195,84.61093070114663L504.48607374131944,86.48286304753134L504.78094782986113,88.54591570501447L505.21009960069443,90.10333351298237L505.3352067361111,91.14355586439683L506.26016449652775,92.7799776377546L506.7197604947917,91.71778837126249L507.180226328125,91.87632801425718L507.69188816840284,93.92347172179984L507.7337148090278,95.27252719114381L507.85934384548614,96.10181650716657L508.8715584895834,94.59802049688204L509.12209584201395,93.81916916489376L510.09469571180557,93.10852959334363L510.52295279513885,91.7576833261113L510.8807283854166,91.52838232288576L513.45265671875,89.7288693303799L513.8409759461805,89.19636953405802L514.218285546875,88.90231593931122L515.695414609375,91.16649674250732L516.8891017013889,92.04109096067765L517.015078671875,92.54253381539462L518.7014900520833,93.59701618649137L519.7192467881945,94.59465779195904L522.5019485850695,94.89935870927951L524.4849488715278,92.51807335604491L525.9972192708334,93.05544426933L526.206650703125,93.57694072865235L526.2484524913194,94.09908674811828L526.3322797395833,94.94902451686323L526.9270481076388,96.30585186444273L527.4297133680556,97.6435057671302L528.4008966493055,101.44044278535779L528.6514588541667,103.71985272940009L529.2880290104167,104.67096090253784L529.5387900347222,104.98886917976864L529.9679418055555,105.20812911781246L530.9843316579861,104.65070981010524L531.6935951736111,103.47648652258977L532.8234115190972,101.87785261560322L534.1309724479167,97.73664294222033L534.4316371527777,94.21842296384864L534.8919787239583,93.12299392704159L535.7407389322916,90.59061994467072L536.0331277777778,89.06384291534397L536.2417390798611,87.24128265150779L538.0187624218751,87.31020843485288L539.5413962847222,89.34670881332636L540.7220855555555,90.58462428956113L540.8055897222222,92.7527406986045L540.8474163628473,94.77420630964468L540.9310696440972,96.31935949573483L541.8608736284722,98.66524550868604L542.1138216666667,99.94346077939497L542.3265087673611,100.6249521629702L543.5518330034722,101.757119562642L544.1444889149305,101.96389999960218L544.6072163194444,104.5051154330377L545.0373621875,106.37360195263193L545.2046190451389,107.87664586239691L545.2466693576389,108.92582562280342L546.4263893836805,107.27630603506799L546.8024812152778,105.86582686224244L547.7781876388889,106.24267136456393L547.8200888368056,106.60859353311844L548.5163296788194,107.13052712579577L549.8288362413194,103.1011739143728L550.2043067621528,101.18226356850124L550.9247290190973,101.80188671723681L551.1337876649307,102.11985753419174L551.5105505121528,101.70010201525207L551.8745640625,99.86518505641607L552.2097984982638,98.15243389657655L552.9328799652777,96.29502324638884L554.1958804861112,96.8024368466734L554.6146439409722,97.25958237083324L556.1860134201389,97.45084252043233L556.5707290451389,97.31842910421886L556.6125556857639,96.95592963310372L556.8736056163194,96.10331555066716L557.5445218315972,95.74338691743128L557.8375071354167,94.84124374456144L559.0240367274305,93.85102306088521L559.0655154340277,93.71674853522899L559.4420297569444,95.58834165751477L559.6511132552084,96.76771080155959L560.3053286371528,97.32339271965833L560.6841790885417,96.76292478379338L561.2805628645833,96.73921714571776L562.9067568055556,98.4063106383964L563.0342000694445,98.80646033424523L563.4200092013889,98.35835126111078L564.6620839756945,98.59898527579941L564.8312793229167,98.9302021512803L565.2108753472222,99.12970558266875L565.8064141406251,99.3555413977407L566.0561313628473,100.44607848608877L566.1398592013888,101.12171971059894L567.7661525520833,101.05879758291292L568.027972907986,101.41420657420014L568.2789576041666,102.0644027787963L568.3624369184029,102.0009230162255L568.8215607204861,101.33199410470382L569.0307187760417,101.30857420898622L569.6508614756945,99.05187413761735L570.0283947482638,98.688932428263L570.7095998697916,97.95560822381833L571.7666980034722,98.4585045554469L572.5705250173611,98.75815697933893L572.9467162586806,98.65856964211213L573.7329974565972,99.10717633604662L574.8717855295139,99.65901180407644L575.8480387065973,97.77375117830923L575.9319405121528,96.02628148949714L575.9739659722222,94.90071559082565L578.1257888194444,93.67275272617911L578.4601534201389,92.63602566036968L578.5856084895834,92.07293435875874L579.1589540625,92.08500048704178L580.7626565538194,93.74893973277034L582.077151310764,94.21011281642154L582.9147776302084,95.06312795953176L583.7189028732639,94.94274565496016L585.0227856423611,94.58889194467724L585.3678864930555,93.59817205106981L585.4516391840278,92.72778482080628L586.8815237760417,92.12804766212656L587.7862765104167,90.68395890881425L588.3745832465278,90.52288419380653L588.6337443923611,89.03141056798859L589.8099105208333,89.41298647628662L589.9357135243055,89.44012833426132L589.9779129513889,89.41870330596038L590.2290964670138,88.68279017922993L590.3128243055556,88.07088618136834L591.0319293836806,88.0461576997385L591.3653495920139,87.99910523506276L591.9363838888889,87.8188716081288L592.5676853298611,86.65708693455633L593.2472750434029,86.54868206142078L594.8876597222222,87.83167974270282L595.3991724479167,87.38158229592159L595.4824529427084,86.89110808212564L595.899178498264,85.50124819636198L596.3702563194445,86.75770885627492L596.6645836545139,86.90881215493187L596.958090859375,87.13141163125329L597.0418684027778,86.9630309612711L597.7611474479166,87.55509415451087L598.5679816059028,87.58691679574167L600.0852721961805,88.27796807473555L601.4158961805555,88.40856566755377L601.6770952256944,88.40971819811466L602.0528391232639,86.75005462919836L603.3154420052083,84.74118987903739L604.2903780034721,83.96095648791317L604.3322294965278,83.01823389303627L605.0927635763888,82.10846569880351L606.278050546875,80.39253736610118L606.487407421875,79.00335343489309L607.8227782204862,79.77090064070546L608.1697927083334,80.57797328943195L608.3795223697917,81.68796518479377L608.4630762413194,82.97215239786067L608.5047537673611,84.21084027086562L609.3486428993056,83.90184742186648L609.5582234461805,84.8505962590404L610.1466047395833,86.85890630706825L610.5746132986112,88.75465809651445L610.7836719444444,90.76338062252847L611.0767566579862,93.30216490974226L611.8811552777778,93.05303820120685L612.3946561979167,91.68959274566782L613.8675603472221,89.3957496918884L614.2449942100695,86.28517957628776L616.2733501822917,85.85124572770081L616.482905876736,85.86425122257253L617.1225328819444,87.6008465200407L617.7809731770833,91.27817519177557L617.9498205902778,93.19953053174686L618.6243652604167,94.74883243967071L619.1775803645834,94.30411776877389L620.0231843142361,93.73280051896222L620.4000217187499,94.0258445652077L620.7347591059028,93.78490973212342L622.2617172916667,90.35608743067542L623.1084893055555,87.21207420833537L623.2339692274305,84.93775010124449L623.90182859375,83.12995381129917L624.5799768663194,81.60272200197079L627.7618086979166,83.36937792560286L628.1374531857639,86.1934539266731L628.1792798263889,88.28454501504541L629.4462567361111,87.6137885860947L630.2490150954861,89.15793047920886L630.3743707552084,89.69953110017263L631.3054173611112,87.93690216898858L634.238376953125,86.70688610308025L634.49224453125,84.56252610309429L634.5768919097222,82.48435618443557L635.4644219097222,82.98412078152734L636.3920140277778,82.75709746009352L637.6152258072916,80.2603331451337L639.5607734809028,74.85137357604054L640.7412390798611,73.82470842329622L643.2365473697917,77.01245400001523L643.9154660677083,80.45128473572515L645.2230767013889,81.34395894694529L645.5577395312499,82.1333506232279L646.4462387760417,84.04425104785463L647.5035108767361,82.71338064289478L647.7224607899306,81.51381690993418L648.2659834461806,81.180657232199L648.8184778298612,80.26990381788949L649.0695122309028,79.19976202373073L650.839576892361,78.20000168473308L650.8915930295138,77.07251024864917L651.1013226909722,76.21553251534328L651.7293187586805,76.23744152007998L654.2228873784723,78.38801939212243L654.9352823003472,78.071736146474L656.0775497135417,78.06393105642553L656.1195503211806,78.35914134458386L656.4701932638889,78.03494966936483L656.9738277690972,77.09435784388165L657.4864837065973,75.31381319148005L658.1144797743056,74.16212500176749L658.2822585329861,73.96169176828238L659.0047435416667,73.45980227600239L659.9562685503472,74.2490510146776L660.7231151475694,74.23455080443608L661.3489490538195,73.72167990937908L661.7783990538194,74.61749610746875L661.9050967447916,75.70803517806598L662.412359704861,77.83832400235713L662.4542111979167,79.46593652680463L662.6220893663194,80.0073852334657L663.8106817100694,79.18209462745745L664.9037910156251,77.86958162672988L666.29212234375,73.56925377469099L666.9366949826389,70.02631126871842L668.4610188107639,68.62113534566782L668.6700028993056,67.54353478973024L670.8760040451389,68.52365406108163L671.0427638541667,68.92946280460745L671.8843417100694,70.60114803081223L673.9473668229166,72.24574593197065L675.0424146180555,74.72527919393775L675.167646015625,76.61525192794636L676.9445450954861,77.03744417966965L677.6124293142361,76.82318320969449L679.0934105034722,75.27081264837676L679.7205864409723,73.48251971178769L680.0641712934029,73.35426640506563L680.3146837934028,72.1457370732362L681.9126702256945,71.85476503340675L682.6323717621528,69.63860285623258L682.7569321440973,68.27955905571616L682.8814179687499,67.30240661606751L683.431924157986,66.40553309615677L684.5682766927084,63.9305548191972L685.3303516232639,63.44956886267744L685.6227901736111,63.99117572746269L685.9156512152778,64.31034391002544L686.8455049045139,65.72937327727101L687.735545,66.79167428184076L688.2820996527778,67.0301266285806L689.7692939496527,67.06265011108707L690.7422666059027,67.21065580984913L690.8683429861111,68.1456519170016L691.4137295746527,69.65345831204422L691.5814834809028,69.47917914575845L691.8426576736111,70.46559982616259L693.67850671875,72.01616124104982L693.7202836545139,73.18632413401565L694.5253532899305,72.57257433232837L694.651255703125,72.83435228029225L694.9978725520833,73.05515204280312L695.0398483072917,72.92717275468027L695.0818240625,72.52276030142048L695.3332063975695,72.59269351098777L696.1807985416666,72.60612166693858L696.2641287413195,73.5257203648693L697.026651015625,74.79967608219715L699.1404993489584,75.96298386693036L699.7261965798612,76.50900620877877L699.9776037673611,77.72057454137303L701.6041953472222,77.2158959481904L703.3308428125,76.80313594943402L704.5188386979166,77.22757203306276L705.67805546875,76.92320307004155L705.8868158854167,75.9011999240048L706.1371295659721,75.62322952662828L707.1119164496528,76.74831079115722L708.165336423611,78.87439293588051L708.6672064062501,79.28871798063494L708.7090827517361,79.55801128996552L708.969387109375,80.35283974018847L709.3461251041666,80.83227977454146L710.0676408680555,82.4758138666034L710.5686161631945,83.64258864324137L710.8200233506944,84.91787333867148L711.6676154947917,84.83253670614289L711.8349469097222,85.05383840407626L712.8480562413195,85.90663891444581L712.9318586371528,86.0031174317466L713.3185127517361,86.33879827780402L715.4580833506944,86.47618563767008L716.4722613368056,87.47944345522626L717.6426368489583,86.5689669476833L719.1328879947916,86.92833209691963L719.1747394878472,87.50218759737726L720.1872772135416,88.00685514189314L720.2708559375001,88.38582956279788L720.3128813975694,88.61331012284643L721.5783671614583,89.92971270400409L722.8190750520833,90.98951018901823L723.0359622135417,92.50372034183488L723.6885373350694,92.18736506279288L723.9408392100694,92.40444611867622L725.2121652951389,92.24990084668036L725.2540416406249,92.38559895513498L725.5892263715277,91.53257754250757L725.7567069010416,90.55197599615406L726.0075673350694,90.37890522584132L726.6851191493056,89.71138383271625L728.5037206076389,90.26527982902593L729.0069823263889,91.46679182249119L729.4783335243055,92.66800302447808L729.8977182899305,93.50003311971687L729.9396940451388,93.92772485906238L730.1076467708333,94.26504562492232L730.2756740538194,94.1182632839571L730.4536423090277,94.62025778249796L731.1660123784721,94.83101181495499L731.4271865711805,95.04942628074753L731.5948907725694,95.41011510582331L731.6788919878472,96.07036671525321L732.7552259027777,95.77129335035596L733.5621346180556,97.30212561548643L733.8543494965278,97.671312816512L733.8961015798611,98.29908789420836L734.76255671875,100.23066801243624L734.8895029340277,101.9061099778367L736.2407792881945,104.41599298481026L736.2825810763889,106.45043988974527L736.3245568315972,107.62625292146606L737.3403999305556,110.07081383144507L737.9382748524305,111.5242349309136L740.0979759201389,113.278750507437L740.6008897048611,113.74526012885806L743.4754460850695,115.97034096857993L745.2696921614584,118.24811282462218L745.4374460677083,119.14879964604151L746.285063064236,119.91914289664447L747.2990670833334,120.26438283935846L747.3829440364584,120.02940595031302L748.1034408506944,119.34741386396723L749.6884791666666,118.84111252384025L750.2017564149305,118.0606988929714L750.9643532465277,118.2762830187921L751.1730391059028,118.46650567843565L751.2572391406251,117.72619972288993L751.6769221354167,118.63259442799747L752.4416314236112,119.83076953679026L753.1205252690972,118.83820815828577L753.413485720486,118.07558797886546L754.13343578125,114.97837465255304L754.3841471006945,113.02062317745853L754.8652404513889,112.22544210289016L756.8790328993056,110.54120328476608L757.0882158072916,109.27715355542625L757.7703653211806,108.99615355310209L758.0223938194445,109.16836098312228L758.4419525520833,110.16049353610777L758.7869539930556,111.75220677589462L759.2057174479168,112.14092850124106L759.4988021614583,113.34617613567542L759.9283764236111,115.91264749018629L759.9706504079861,118.17163840224501L760.0128001302083,119.5645985441258L760.5590565538195,120.98543104498881L761.3680777256944,119.47951967854453L762.2156201649306,117.3503353708085L762.6770303906251,116.41560111832189L764.6693503385417,112.98125982181472L765.1825530295139,113.0284794637785L765.643416501736,113.43630470875434L767.2208499739584,113.02636565491787L768.5705854774305,113.4328552750118L769.8798860763889,116.06435504611548L771.4502863107639,116.8419925906779L772.4657566232638,115.59760251865256L772.9324107118056,114.98759135573533L773.1841906857638,114.25195327237347L773.8280674565972,111.93221778072831L774.54125765625,110.25481218767246L775.1382875954861,109.10800095672101L775.2640905989583,108.92480653567691L776.072291640625,107.85499489236054L776.8795234375,109.39769078115484L777.2148324305555,111.20501852576325L780.3795160850694,114.88907302143235L781.7733895052083,114.57131937590057L782.1082511545138,114.16371724617801L782.3698478385417,114.9307345225144L783.4753088020833,113.59607613925252L783.5369925347222,112.67996859657606L783.8328855729167,112.44735413822869L785.1400488628473,113.2643518263699L785.3921270659722,114.74042165819702L786.2832358159721,116.67697295049712L786.7972834895834,117.90324114612056L787.5105482465278,120.24381069465264L787.6881934201389,121.5554941320365L794.9232330034722,119.36773186973264L795.4705332291667,117.75902461161917L795.8993619184027,116.26831775217582L796.0667181857639,113.90419264558471L796.3170815711806,111.49083967093722L797.2235739756944,110.2596936607799L798.1826044184028,110.7003291113046L798.7277176302083,111.1731700916524L798.8212124739583,111.32140894923268" style="fill: none;" fill="none"></path></g></g></g></g><g opacity="0.20000000298023224"><g><g><g><path stroke="rgb(255, 112, 67)" stroke-width="2px" d="M99.84285038194444,-163.43745262146L102.44912477430556,112.66282065131449L102.57462954861111,116.84385348059917L102.95019947916666,129.1465680434487L105.71868568576389,232.92092525308783L105.94004628472221,233.8189665664326L106.87723144097222,228.18294956987555L107.43397559027778,228.68898735393176L107.70026938368056,227.45793274272572L109.26912876736111,211.6660296830264L109.35745430555556,211.0737434127114L109.71162629340277,209.36979307868265L111.00698467881944,209.0632670541243L111.90214437499999,198.4677592078122L114.31802429687501,193.93853691794655L114.36243559027777,194.9931686375358L115.25851482638888,190.81475308765064L116.06723776909722,196.47692258921538L116.68879705729167,197.47687548724087L119.33560576388889,206.2966404169256L120.678805078125,198.87456355355002L121.36376291666667,202.47812107346275L121.65766776041666,207.1417274726521L121.6995938107639,206.86385964306916L123.08712986111112,201.98778696580368L123.68420950520833,200.99500622489236L124.01902144965277,201.72591700293802L124.22812980034722,203.68220147566362L124.32425900173611,204.664553676952L124.82453842881944,204.03621387568387L125.24397289930556,202.07859032977711L127.06543238715278,200.1004647619074L127.40054256076388,199.19316152572634L127.74651324652778,197.4310933867368L128.846407265625,197.27852020003579L129.22242453993056,200.61735715432602L129.38963169270832,200.80184491851114L129.473583203125,201.7611894078688L130.07014094618054,202.66210161295805L130.15396819444445,201.46101383642716L130.4477487760417,199.5832578901811L130.79322241319446,198.40618213046682L131.04433137152776,198.75193691253662L132.2274810329861,193.88887962081216L137.10059532118055,182.76066411625254L137.82079390625,178.84890673030503L138.19850114583335,179.72199258891018L138.2404520486111,179.95483915502373L138.50167594618057,185.0832256819985L138.75263578993057,185.06926685853438L139.51495924479167,184.66400447585366L139.64058828125002,183.55793002822182L140.0166801128472,184.11797709725118L142.08954678819444,173.31766206567937L142.2151758246528,171.3350221980702L142.46693094618055,163.15517193707552L142.72760809027778,155.2019699564847L143.35605150173612,144.24881798137315L143.61717598958333,141.3493187644265L143.82732814236113,135.17414221156727L146.0330807638889,102.51286911704324L146.25481414930556,102.58722825657236L146.29915088541668,103.41104230880734L147.10297789930556,99.95377853393552L147.69941138020832,101.32492860447275L149.85702484375,110.18638740366157L150.5786400173611,119.60025446805088L151.42658009548612,137.06243828686803L152.90400738715277,146.4431937235052L153.02988494791668,146.71817037235607L153.6268403298611,153.0955063975941L153.7942711545139,153.4943067377264L156.03312721354166,147.5935793200406L156.32904510416665,151.56496604052455L157.26001715277778,150.5639885486256L157.7707097482639,142.27498353437943L158.19200815104168,144.38775696841154L159.460153125,141.93552848295732L159.93155402777776,142.02368413404986L160.26721095486113,138.11732361880215L160.51889151909722,132.87842297640714L161.87006846354166,128.55272966558286L163.105333671875,115.82350000554865L163.7757776909722,119.85678842717951L164.45775323784721,120.09520432038741L164.62555684895833,121.78211190483788L165.34749510416665,124.43682448647237L166.82609046006945,131.95141913327305L168.60701563368056,132.36882447502828L168.9842755295139,127.76320400238038L169.23565786458332,126.00069965015757L169.4555024652778,126.44224888714876L169.7487859982639,127.67389187899502L170.12587192708335,126.69204690239647L170.9255734375,122.04471227125688L171.0097237673611,121.72357817563142L171.1361729340278,118.57667504397307L171.51636541666667,122.51121696298773L172.99734660590278,116.71108234578915L174.01164885416665,110.85647179690275L174.90081911458333,104.29898985082451L175.65285366319443,103.6708427949385L176.03940836805558,91.4449017611417L176.58360203993055,84.39200331601228L176.70938019097224,82.96627586884932L177.05472956597222,78.58531535582108L178.74019655381946,49.0974225217646L179.46245789062502,33.92574366829615L179.90271869791667,29.593091234727353L180.02978917534722,32.13031028920955L180.87787836805555,28.968515040657735L181.55828821180555,25.980089191089974L182.32334543402777,27.31605815714056L182.82571246527777,31.307186062552717L183.54678088541667,33.58117579200052L183.79798925347222,37.50486310265279L185.38553766493055,46.8658976433494L185.52175383680554,48.28714122425424L185.56372959201389,49.64881633758546L185.89836756944445,51.007001745050616L186.06589780381944,51.504568876786664L186.3584357638889,50.75631101434885L188.61033934895835,47.14186845259235L188.90362288194444,47.63637194720178L189.30292688368056,44.431239421150906L190.43664506076388,42.86273836829446L190.6059646701389,44.476504152471364L190.95213417534723,44.128527726260074L191.286200546875,38.35478908192027L191.45281124131944,34.94035535985773L192.29963296006943,33.57598181117669L192.50956144097222,31.20154130415483L192.55171116319443,30.975582849329157L192.76084436631945,31.85054543928669L193.27300325520835,41.247126286246555L193.3991044878472,38.36458866292776L193.6210615451389,38.82486463546752L194.42752291666667,45.397543033253044L195.09652549479165,46.96247322429309L195.52336598958334,50.19355536547573L196.024241875,52.08866854060784L197.1221974045139,47.75356113954024L197.5082550607639,47.06874694130636L198.99863046875,39.84361528049817L199.04055651909724,40.648966354023344L199.12413524305555,38.235084055120296L200.98237632812499,44.70907681725242L201.3163681423611,47.986864207874646L201.90313402777778,48.54026663346724L201.9860417361111,47.61914659673516L202.1948518576389,53.35188119714911L203.26397856770834,54.36383503133601L203.3057555034722,54.64187531731346L203.72340059895834,52.99274582776155L203.8065071267361,53.664027271270754L204.02436353298611,53.04194662267514L204.60919092881943,56.72443844881923L204.86074723090277,56.889793697703965L205.24750075520834,54.7100463156267L205.8764412152778,53.44654961325904L206.13701894965277,48.497680048509096L208.37493061631943,44.24176056601783L209.10857436631946,43.87714716998016L211.73207149305554,64.03228831204501L211.9412295486111,65.21854483864524L212.69870677951388,66.27586484909057L214.25973764756944,67.24799140063197L214.85395926215278,72.52170794573698L216.35285905381943,75.6780454566262L219.85364697916665,63.23596583799883L220.6418418142361,61.89985484903508L221.099424765625,57.61900020079179L222.11879690972222,50.82346756328235L224.101548671875,55.084033223932465L224.44620217881945,55.64110795627943L225.97475092013886,60.19239452015273L226.6548128298611,62.13879825592039L226.7808146527778,63.050281023545665L227.11555203993058,64.08771782614969L227.24120592881945,65.84498761957343L228.4229887065972,71.94744844089854L229.71196001736112,76.05093675960194L232.077240390625,65.8307244612954L232.32842390625,66.64106662576853L233.0092313888889,51.550685745586065L233.76293105034722,45.95260915582833L233.80488195312503,44.8344627605785L235.26028999131947,40.340086806904196L235.67940138020833,39.42288254477762L235.80532864583336,40.35232106642292L235.84713043402778,38.79960484591396L235.93078371527778,39.15101011102854L235.9725357986111,40.42051235372372L237.0301558333333,41.41181199854071L238.43608268229164,41.29119396729902L240.12212127604164,47.061950130462606L241.44012022569444,40.648377973383106L242.58049885416665,31.386414559104196L242.78988058159723,30.263358228856873L243.72743852430554,24.96559923345393L244.53320402777777,22.13934326171875L245.16256697916666,21.793821803006267L245.84180875868054,30.28565582622184L247.26968030381943,40.82984267841687L247.39918631944445,41.418791410272775L248.46398870659723,42.77259439641779L250.28127298611113,46.959328431216136L251.13013260416665,45.87707325501873L251.88952347222224,50.42231370058926L251.97332586805555,52.33134512121029L252.05871881944444,51.725191327875336L252.31966934027778,48.04521533619277M254.83456134548612,267.3486996303905L255.0097709809028,275.4181473653967L255.49310105034724,287.9510912149603L256.80637803819445,298.93732945658945L257.1407177864583,298.9734818963571L257.6964429861111,300.5054348741878L257.90567559895834,300.50787716106936L258.5964986111111,305.0653797635165L258.81820714409724,306.43456941062755L258.90702973090276,306.4581731115688L259.3513166319444,306.7894795983488L260.84201512152777,294.0845637538216L261.3445809722222,284.30476958144794L263.5412873090278,242.06616612174295L264.0205664322917,236.19595334139737L264.7737193402778,223.0870862900127L266.02772328124996,212.46356949632818L267.72106848958333,203.4444551190463L268.2333764930555,206.7606292741949L268.3669334548611,207.1623715175282L270.92029702256946,222.93271752790972L271.1300018315972,223.09560766480186L271.5911635329861,221.15792819369923L274.67997271701387,209.37008726900274L275.17284611979164,202.73170298489657L275.2146976128472,201.86824425090444L275.50196685763893,202.2787919148532L275.709807734375,204.6175948151675L275.75153496527776,204.57613426902077L276.81415033854165,210.35994639570063L277.02258767361116,211.76073867711153L277.1476948090278,212.4512743698467L277.4917767100694,210.3187496063926L278.32788703125004,211.91391038894653L278.4633576302083,210.98516169287942L278.5051345659722,211.31261580814015L279.13454722222224,212.88807598374106L280.0667121875,218.87215056245975L280.6215178472222,215.20018872087653L280.70507171875,214.82868721355092L282.8227721788195,209.81368569374087L283.8370992795139,207.1647859070518L284.12904078125,207.9834769899195L284.38019944444443,208.78206168608233L285.39750883680557,213.72054328918458L285.52385859375,212.54653116659685L288.029207265625,208.50287507230584L288.7403098611111,208.19081015413457L289.6306481857639,199.5752031621066L289.7567245659722,200.179388923645L291.8609798611111,205.36646134723318L291.98581361979166,205.66743833368474L292.6633157291667,206.1700980013067L293.9692115451389,209.34646074295043L295.14835996527773,206.87644895987077L295.49249157118055,205.81881447011773L295.65964901909723,205.17707379254426L295.9945603732639,200.35925079865888L296.45490194444443,198.76682902943003L297.5515651475695,180.8846023004705L297.7946716232639,176.6714621483196L298.46775,162.40497647632253L299.1481846961806,149.23674384724012L299.4830711979167,141.43830626401035L299.86925311631944,135.09316886208276L300.24658756944444,131.42857192299581L300.70658120659726,123.47222514932804L300.7484575520833,123.58381458109073L301.2602436545139,113.82318842974578L301.3438223784722,114.72142248847268L302.95314151909724,107.13553233926945L303.4544647482639,108.01587151093918L304.25849058159724,105.91439904299648L305.23205969618056,115.88974355004049L306.0774896788194,126.39540161479604L308.0922762239584,139.6768569391424L308.47709125868056,145.04031167637217L308.6022978038194,146.836779793826L311.15382229166664,153.23207157308406L311.9979599479166,154.69413659702647L312.08124044270835,154.86513218446214L312.12279370659724,154.0411558203264L314.35247921875003,165.0676321965998L315.19785949652777,162.29847958044573L315.5311802951389,156.60485200361774L316.8463212152778,162.72020647655833L317.55682735243056,155.13807993455367L318.31925021701386,155.5408569162542L318.65371422743056,151.99028408744118L319.9714398003472,160.28951475143433L322.0852384288194,169.3775305305828L323.3097425347222,166.30318081855776L323.7692391232639,162.37512123107908L324.4466666753472,152.82550055070357L325.0320656770833,150.85466887387363L326.1157807638889,140.64470251430163L327.805671484375,122.44466908368199L328.73443166666664,125.40067313107576L328.94331634548615,120.86898572921754L330.495996796875,117.81111067511821L330.96439055555555,109.33788165352564L331.80919922743055,97.76479966250332L331.89257913194444,95.69495772621849L333.2378163454861,78.33929109226574L334.2496084982639,60.73857406616213L334.7508571701389,60.13564622185447L334.83441104166667,59.95393804896963L335.0941934982639,54.11328632354736L336.64918522569445,52.692590545307496L337.828631875,52.28652674761685L337.912061484375,50.62429057207976L338.08873741319445,53.163173323544584L338.7154411545139,50.688809552626196L340.4476307118056,59.27859880794182L340.57323489583337,61.89058278170501L342.80652401041664,64.12097147681499L342.93210334201393,64.12036280718718L343.36003734375004,57.75962317380038L344.11378671006946,53.74153120387683L344.1556630555556,53.73495757189664L345.06983486111113,56.836494527296566L345.1967313715278,56.374189655997554L346.6260195052083,57.2071337526495L346.71866936631943,60.00644594886086L347.01003926215276,59.924498727971866L348.52168835069443,71.59034197027029L349.4084479253472,73.94601516376838L350.41899745659725,84.54238529205321L350.62770816840276,83.58263502294363L350.87804670138894,79.39985734072599L352.0240668315972,69.67339784448797L352.86164344618055,68.70123071497136L353.08094129340276,67.16484712947499L353.7089870659722,68.71857779936357L353.9174492534722,66.07187936782839L355.73224828993057,69.38732311942357L356.9841646267361,77.45024794491854L357.0687623003472,77.74880039735274L357.75108578124997,83.29296914707533L357.8346893576389,81.6647778927196L358.08500303819443,77.52416072672065L358.16815927083337,75.6252737998962L358.92750043402776,74.64348969026048L359.9002494184028,73.41251623500477L360.27661462673615,71.71158896012741L361.08006885416665,62.50324934005738L361.5383476736111,59.8782398362593L361.6218766927083,58.82690507715398L361.88168400173606,62.648761959075955L362.425156953125,68.46149603756993L363.18874788194444,69.6624620801752L364.86454727430555,78.0474542947249L365.82790203993056,74.12027727820657L366.04682710069443,74.1676317752491L367.26310505208335,70.17161422382702L367.72759697916666,75.93626340172506L368.1894296961805,76.35831492163919L368.4914612847222,78.86747430627997L368.74197378472223,74.65229511087591L369.7773508940972,75.98605257727883L372.26266850694446,82.91778518850157L373.7843828298611,71.50752232291478L373.82601065104166,71.66466053182427L373.9933669184028,70.13026526711201L374.85949897569446,65.40043561241845L374.9012013541667,66.34724150744353L374.94292858506947,66.44777344096792L375.278237578125,74.42002678090876L377.35960378472225,63.65400013836944L377.6519926302083,63.28297542225232L377.77764651909723,65.971347434304L378.5805788454861,66.7914891797846L380.87751503472225,76.9140100028298L381.2637715104167,81.80641531510787L381.34725082465275,80.54671265342017L381.51463194444443,85.81062961751763L381.76613854166663,86.80771162379875L381.8916930208333,88.31911946556784L382.18418127604167,88.75062565370035L382.5285117013889,90.93353811784226L382.6541655902778,87.96225646279072L383.15546396701393,92.24635734904894L384.29263663194445,100.56131197842683L384.47003328125,95.37364102970469L384.9303251475694,91.8579449705644L385.3994147743055,88.4301610946655L388.26156979166666,72.46149023056034L388.8561641927083,79.90355174671521L389.1903548263889,78.56480318936434L389.7853965711805,77.10482793114403L389.8271486545139,77.63613564924759L390.92458228298614,82.98995311737065L391.5097327604167,81.85111195477572L392.562705390625,81.62884609569204L393.7848982204861,86.5241730221835L393.9196729513889,85.08779385653406L395.0153420572917,84.81973575245252L395.76824644097223,84.7125693199851L395.9451211892361,85.06707880020144L396.99903821180555,78.07973407398572L399.19084861979167,65.11261603442108L399.81891924479163,65.63726896459406L400.16305085069445,66.69828157078132L400.20470352430556,67.45682594992894L401.12292627604165,64.44005638469349L402.08220524305557,67.98036298578438L403.7721705208333,70.86906846133144L404.65979993055555,67.55622170014811L405.9641797482639,71.34374961506239L408.1933682118056,75.42431137778539L408.65164703125,76.75873838077894L409.41034203124997,69.18323619322342L409.836660625,70.04835862419822L409.87843756076387,70.70411899219863L410.67127980034724,59.67839330846613L411.6408476736111,58.34315474596889L412.44333265625,55.40127183393997L413.70591068576385,54.72698762026698L414.08965706597223,55.49295776887374L414.2148636111111,56.40697665994816L414.50675540798613,56.18574553923173L414.92387860243053,59.305299115614446L415.0489608854167,59.471648524891236L415.26979958333334,62.420287669788706L415.68978080729164,59.69813449339432L416.7048286284722,56.78224177447231L417.0810198697917,56.381108200766846L417.8855427517361,61.548469872908186L418.79872046006943,57.396490873856976L421.4121275,60.472970929579276L422.8948980642361,65.27780897140502L423.6058266927083,66.73875810102982L424.03348731770836,65.43450082258744L424.2421980295139,61.937003985318256L424.7028626822917,64.49702786185526L424.9641611371528,67.57474554582075L425.25737011284724,71.80461396824228L426.02093618923607,69.25980683240022L426.22987057291664,67.32569822311399L426.43917774305555,66.44357362053609L427.2028680815972,63.01893453771419L427.6628368663194,61.774854396473245L427.78859016493055,64.24096054944124L428.6352876215278,66.54264474695378L428.9696025173611,60.55643982453779L429.39823238715275,56.9247516233271L430.8734975173611,71.20399906852026L431.0827549826389,70.88570543115787L433.87219178819447,75.25733300989327L433.9142421006944,74.99440801967273L435.25985210069445,58.52405135935004L437.07718608506946,58.83995089617639L437.4111281944445,59.787487194754874L437.7550361284722,54.97593349803577L437.79661424479167,56.14961085232818L439.22684677083333,66.77941723216668L439.68669129340276,71.7524915591153L440.19701110243057,73.48872167240489L440.91661322916667,67.93302877772936L443.4432852864584,73.38776367014106L444.4559969791666,75.43141252344304L445.7181276649306,82.03894740191373L445.88496203125004,80.76747712742201L446.47816469618056,74.04455877650867L447.19833842881945,65.03677579879763L447.448204765625,66.79615564693108L449.2119569097222,63.34376122908162L449.89055252604163,66.40636361729014L450.36103388888887,65.50754117792303L450.73893994791666,67.95467712749138L451.07504421874995,69.53476319226348L451.92231328125,70.0606131727045L452.00584230034724,71.20554103157735L452.1311482552083,69.84045736833053L452.2147269791667,69.98848582181063L452.47565264756946,69.37778729525479L453.31342808159724,74.99530073512682L453.4391068229167,73.98665400591761L453.65803188368056,72.17839798667217L454.03377578125003,68.80249305204916L457.1924451475695,69.58534363833343L458.03688103298606,63.63738345753063L458.07858341145834,63.644220846349526L458.16218698784724,63.74124278502029L458.7483564149306,61.41610451784999L458.9156132725695,62.23553614876488L459.30072653645834,67.61962478637696L459.3425283246528,68.9125405207547L459.55141300347225,68.60603478518397L459.7600988628472,66.63461472771388L460.396122265625,64.83705100493L461.7025896875,62.11526303031229L462.2144503472222,64.15588882446286L462.50768417534726,67.38400877345691L462.71706590277773,65.1587937701832L463.31270410590275,64.3137574369257L463.6894172482639,66.89218342520974L464.9840797656249,66.93485116611828L465.2803704427084,66.28118056384L465.32266927951383,67.28258412447843L465.70952221354173,67.81168034293432L467.30559500868054,75.03066444050182L467.64970176215274,73.33020381233911L467.6916029600694,72.49291787234216L467.8588846701389,71.8901929179105L469.20695506076385,70.9750378435308L471.1938323263889,67.21003070484505L471.36158623263884,67.70692829999058L472.3335150868056,73.3587707068703L473.09643500000004,72.91245355779472L473.22218829861106,71.29168807289818L474.10944492187497,66.93477001016794L474.7699231163194,59.70166477723558L475.81461988715273,66.24054172169082L476.10693417534725,67.5168813532049L476.82730672743054,66.49529024991125L476.9112333854167,66.32200200687754L477.0369369791667,67.85791894565932L477.92682796006943,69.62736213163896L478.0106303559028,70.73510027625343L478.22018605034725,70.61803281784057L478.6899963975694,71.25427517977624L479.19248769097226,76.07303146709097L479.9125371614583,75.88635249224575L480.69779940972217,83.24914493387399L480.94918174479164,81.44346561605278L481.368491953125,78.33578109741211L482.1319586197917,77.28322899905118L482.17393437500004,78.41582115346733L483.313095234375,77.78463074944239L483.64810599826393,81.62474772019817L484.07646249131943,77.53623267433858L484.53672950520837,75.04332476875999L485.4454834809028,79.2302008264715L486.20770752604164,88.76561921553179L487.5561755555555,87.73148951790546L487.8484649913194,88.90374664306643L490.06159878472226,86.51230396444146L490.1452023611111,85.84672372644599L490.5630462760417,84.33373334364461L490.8561061371528,89.6625953570279L491.99581374999997,90.61031425649469L493.07962824652776,95.37130779613148L493.5102214583333,96.69625984191896L494.1781305295139,96.89251521890816L494.2611625,97.13198613947088L494.56113133680554,92.76457867015495L495.9052750434028,89.51312638542868L496.5830256770833,87.96923587452278L496.7916121267361,90.17521691755815L498.5964950434028,83.8924681524797L498.7315928559027,84.55208342812278L499.5668084895833,77.76379395918411L499.82721225694445,78.34673715071244L499.86881522569445,79.63585884441028L500.96557783854166,82.68326478091154L501.2580412413194,84.41300241817129L504.0995687413195,89.08870105396613L504.48607374131944,91.54401346553453L504.78094782986113,94.12379881598736L505.21009960069443,94.31412980859926L505.3352067361111,93.95600888859138L506.26016449652775,97.20437724720347L506.7197604947917,88.84594331741334L507.180226328125,92.30497223420576L507.69188816840284,99.45834174589675L507.7337148090278,98.91997346011078L507.85934384548614,98.34396910233932L508.8715584895834,90.5322016542608L509.12209584201395,91.71338593396274L510.09469571180557,91.18717075174504L510.52295279513885,88.10539527026089L510.8807283854166,90.90842035120181L513.45265671875,84.86351938767865L513.8409759461805,87.7566478625211L514.218285546875,88.10728214610708L515.695414609375,97.28817076596346L516.8891017013889,94.40573458758269L517.015078671875,93.8982867188887L518.7014900520833,96.44802407871589L519.7192467881945,97.29198509563099L522.5019485850695,95.72317970796064L524.4849488715278,86.07978332692926L525.9972192708334,94.50833599784158L526.206650703125,94.98691263719036L526.2484524913194,95.51081487482247L526.3322797395833,97.24700441013681L526.9270481076388,99.97431098937989L527.4297133680556,101.26012557810003L528.4008966493055,111.70623546426947L528.6514588541667,109.88270183736628L529.2880290104167,107.24247559287329L529.5387900347222,105.84839896635577L529.9679418055555,105.80094302437521L530.9843316579861,103.14361316334117L531.6935951736111,100.30173467115924L532.8234115190972,97.55562020041725L534.1309724479167,86.5400390104814L534.4316371527777,84.70619857788085L534.8919787239583,90.1612783830816L535.7407389322916,83.74383102937179L536.0331277777778,84.93589020642366L536.2417390798611,82.31361971595072L538.0187624218751,87.49656333056362L539.5413962847222,94.85280242919924L540.7220855555555,93.9315809475292L540.8055897222222,98.6146850637956L540.8474163628473,100.23965036912398L540.9310696440972,100.49699588775633L541.8608736284722,105.00782621036876L542.1138216666667,103.39937614094129L542.3265087673611,102.46750294078481L543.5518330034722,104.81816475434738L544.1444889149305,102.52297303286468L544.6072163194444,111.37580901232636L545.0373621875,111.42543587597933L545.2046190451389,111.94043124805796L545.2466693576389,111.76249682686546L546.4263893836805,102.81649381637573L546.8024812152778,102.0523090986772L547.7781876388889,107.26154724121096L547.8200888368056,107.59793865550648L548.5163296788194,108.541680913405L549.8288362413194,92.20699671311814L550.2043067621528,95.99409855929287L550.9247290190973,103.4771641193737L551.1337876649307,102.97955640966245L551.5105505121528,100.56520746404476L551.8745640625,94.90411327882248L552.2097984982638,93.52166224219582L552.9328799652777,91.2731351921775L554.1958804861112,98.1743328770724L554.6146439409722,98.49556841763587L556.1860134201389,97.96795329527424L556.5707290451389,96.96042246038263L556.6125556857639,95.975838470459L556.8736056163194,93.79809969815341L557.5445218315972,94.77024653868244L557.8375071354167,92.40211590680207L559.0240367274305,91.1737597309459L559.0655154340277,93.35371000289916L559.4420297569444,100.64857491406525L559.6511132552084,99.95637552434744L560.3053286371528,98.82579197970307L560.6841790885417,95.24758554978803L561.2805628645833,96.67511871684678L562.9067568055556,102.91363748897209L563.0342000694445,99.88834654894742L563.4200092013889,97.14679710041395L564.6620839756945,99.24958835255018L564.8312793229167,99.82571444424713L565.2108753472222,99.66910374901511L565.8064141406251,99.96613452737978L566.0561313628473,103.3945676508817L566.1398592013888,102.948453391682L567.7661525520833,100.88867479324341L568.027972907986,102.3751271802729L568.2789576041666,103.82234066529708L568.3624369184029,101.82929254705255L568.8215607204861,99.52340852910822L569.0307187760417,101.2452537501942L569.6508614756945,92.9504257965088L570.0283947482638,97.70764558445325L570.7095998697916,95.97291685624555L571.7666980034722,99.81818722985008L572.5705250173611,99.56832834763958L572.9467162586806,98.38931498961017L573.7329974565972,100.3200759159435L574.8717855295139,101.15101140282371L575.8480387065973,92.67656504197555L575.9319405121528,91.30164121974599L575.9739659722222,91.85751890182496L578.1257888194444,90.35270498102358L578.4601534201389,89.83302285281093L578.5856084895834,90.55050232106993L579.1589540625,92.11762372277002L580.7626565538194,98.24773843418467L582.077151310764,95.4569881907376L582.9147776302084,97.3694281612743L583.7189028732639,94.61726757222954L585.0227856423611,93.63217635761606L585.3678864930555,90.91955900539051L585.4516391840278,90.37451564268633L586.8815237760417,90.50653608495537L587.7862765104167,86.77957079800694L588.3745832465278,90.08738589026711L588.6337443923611,84.99890780188821L589.8099105208333,90.4446546727961L589.9357135243055,89.51351187619298L589.9779129513889,89.36077637759121L590.2290964670138,86.69309913288464L590.3128243055556,86.41647907603868L591.0319293836806,87.97929921236909L591.3653495920139,87.87188931205054L591.9363838888889,87.33157328345561L592.5676853298611,83.51596540971235L593.2472750434029,86.25558740442449L594.8876597222222,91.30052532542834L595.3991724479167,86.1646521620317L595.4824529427084,85.56501113371417L595.899178498264,81.74347887559372L596.3702563194445,90.15480619603937L596.6645836545139,87.31735070315273L596.958090859375,87.73325465982612L597.0418684027778,86.5077795202082L597.7611474479166,89.15585760289974L598.5679816059028,87.67295578869908L600.0852721961805,90.14636597720056L601.4158961805555,88.76166286295114L601.6770952256944,88.41283429926091L602.0528391232639,82.26281609101727L603.3154420052083,79.30981481378728L604.2903780034721,81.8514365785772L604.3322294965278,80.4693913217024L605.0927635763888,79.64872206254438L606.278050546875,75.75317557768386L606.487407421875,75.24741169496014L607.8227782204862,81.84612086382776L608.1697927083334,82.76005859895184L608.3795223697917,84.68905438336458L608.4630762413194,86.44421412207862L608.5047537673611,87.55988526084207L609.3486428993056,83.06642231160947L609.5582234461805,87.41573200399222L610.1466047395833,92.28878162210634L610.5746132986112,93.8802092309432L610.7836719444444,96.19437115582554L611.0767566579862,100.16628538998691L611.8811552777778,92.37947339664805L612.3946561979167,88.00324021772906L613.8675603472221,83.19387773167006L614.2449942100695,77.8751196341081L616.2733501822917,84.6780171741139L616.482905876736,85.89941422722558L617.1225328819444,92.29608565763994L617.7809731770833,101.22058234128082L617.9498205902778,98.39430608055807L618.6243652604167,98.93768574627961L619.1775803645834,93.10174106597901L620.0231843142361,92.18812795465641L620.4000217187499,94.81814883839002L620.7347591059028,93.13349333156236L622.2617172916667,81.0855678749084L623.1084893055555,78.71159401460125L623.2339692274305,78.78865158948031L623.90182859375,78.24220828663215L624.5799768663194,77.47353970267557L627.7618086979166,88.14589208949695L628.1374531857639,93.82891867030747L628.1792798263889,93.93823573545973L629.4462567361111,85.80026194485754L630.2490150954861,93.33283263466575L630.3743707552084,91.16385870500045L631.3054173611112,83.17127579949118L634.238376953125,83.38128711006857L634.49224453125,78.7648120290583L634.5768919097222,76.86560047843238L635.4644219097222,84.33533617366442L636.3920140277778,82.14329366510566L637.6152258072916,73.50982221950187L639.5607734809028,60.22714955589987L640.7412390798611,71.04891004735771L643.2365473697917,85.63117352225561L643.9154660677083,89.74886413227426L645.2230767013889,83.75748551802201L645.5577395312499,84.26763182206588L646.4462387760417,89.21075960332695L647.5035108767361,79.11510139985518L647.7224607899306,78.2705520022999L648.2659834461806,80.27989217758181L648.8184778298612,77.8074964384599L649.0695122309028,76.30641569137572L650.839576892361,75.4969459533691L650.8915930295138,74.02410747701475L651.1013226909722,73.89851864381268L651.7293187586805,76.296676977331L654.2228873784723,84.20254474986683L654.9352823003472,77.21659996379509L656.0775497135417,78.04282840555362L656.1195503211806,79.15730249404908L656.4701932638889,77.15843143636528L656.9738277690972,74.5512762416493L657.4864837065973,70.49974802017209L658.1144797743056,71.04830137772996L658.2822585329861,73.41977969256317L659.0047435416667,72.102841796875L659.9562685503472,76.38294575257731L660.7231151475694,74.19534653230147L661.3489490538195,72.33502897089176L661.7783990538194,77.03951768008147L661.9050967447916,78.6565297022733L662.412359704861,83.59799378655174L662.4542111979167,83.86651853734799L662.6220893663194,81.47130210703074L663.8106817100694,76.9507533593611L664.9037910156251,74.32093536550349L666.29212234375,61.94244143399328L666.9366949826389,60.44724449331113L668.4610188107639,64.8219559981606L668.6700028993056,64.63002217552878L670.8760040451389,71.17360616510564L671.0427638541667,70.02664940747349L671.8843417100694,75.12088956832889L673.9473668229166,76.6922513684359L675.0424146180555,81.42920245777475L675.167646015625,81.7251782087846L676.9445450954861,78.17892693432896L677.6124293142361,76.24388503161344L679.0934105034722,71.07366261222148L679.7205864409723,68.64750547582452L680.0641712934029,73.007507464669L680.3146837934028,68.87823184273458L681.9126702256945,71.06806285164572L682.6323717621528,63.64675696979867L682.7569321440973,64.60510729876432L682.8814179687499,64.66047594590617L683.431924157986,63.980652838620244L684.5682766927084,57.23894688519567L685.3303516232639,62.149125350605345L685.6227901736111,65.45552021373402L685.9156512152778,65.17328010732479L686.8455049045139,69.5660082331571L687.735545,69.66382144234399L688.2820996527778,67.67483112161813L689.7692939496527,67.15058397119697L690.7422666059027,67.61081936576147L690.8683429861111,70.67360435485841L691.4137295746527,73.73012004678901L691.5814834809028,69.00797991839323L691.8426576736111,73.13258907318118L693.67850671875,76.20841988130047L693.7202836545139,76.35009788166394L694.5253532899305,70.9131767203591L694.651255703125,73.5421222877502L694.9978725520833,73.65212917848066L695.0398483072917,72.58115467938507L695.0818240625,71.42934885371812L695.3332063975695,72.78177218870684L696.1807985416666,72.64242742191658L696.2641287413195,76.01204277038573L697.026651015625,78.24407487349077L699.1404993489584,79.10822343306108L699.7261965798612,77.98528883673924L699.9776037673611,80.99629632949825L701.6041953472222,75.85139456662262L703.3308428125,75.68715521205553L704.5188386979166,78.37512144435539L705.67805546875,76.10027957742864L705.8868158854167,73.13800623286858L706.1371295659721,74.87167993372134L707.1119164496528,79.79019717303191L708.165336423611,84.62268910494714L708.6672064062501,80.40893013867469L708.7090827517361,80.28610060778533L708.969387109375,82.50182036486541L709.3461251041666,82.12854357112542L710.0676408680555,86.91944307847456L710.5686161631945,86.79720192822543L710.8200233506944,88.36586529298262L711.6676154947917,84.60181173671378L711.8349469097222,85.65217262441462L712.8480562413195,88.21235881285236L712.9318586371528,86.26396675630048L713.3185127517361,87.2463798245517L715.4580833506944,86.84764035138221L716.4722613368056,90.19195533232255L717.6426368489583,84.1073082421043L719.1328879947916,87.89994898189195L719.1747394878472,89.05372283935549L720.1872772135416,89.37132665113967L720.2708559375001,89.41046410820701L720.3128813975694,89.2283501555703L721.5783671614583,93.48887523824521L722.8190750520833,93.85488857442681L723.0359622135417,96.5976959401911L723.6885373350694,91.33203412316061L723.9408392100694,92.99136897347188L725.2121652951389,91.83205622239547L725.2540416406249,92.75248643354934L725.5892263715277,89.22626038984816L725.7567069010416,87.9007199634205L726.0075673350694,89.91097314314408L726.6851191493056,87.9066037698226L728.5037206076389,91.76285048571498L729.0069823263889,94.71532424926755L729.4783335243055,95.91572220022027L729.8977182899305,95.74959596980705L729.9396940451388,95.08407659877435L730.1076467708333,95.17706102891401L730.2756740538194,93.72140732505102L730.4536423090277,95.97750216744163L731.1660123784721,95.40082827307958L731.4271865711805,95.63995428085326L731.5948907725694,96.3853108180653L731.6788919878472,97.85549143704503L732.7552259027777,94.96268758600411L733.5621346180556,101.44104248046875L733.8543494965278,98.6694856192849L733.8961015798611,99.99640569686886L734.76255671875,105.45308833208952L734.8895029340277,106.43600862503052L736.2407792881945,111.20197296662766L736.2825810763889,111.95098152160645L736.3245568315972,110.80530297019263L737.3403999305556,116.68018221768466L737.9382748524305,115.45385494058783L740.0979759201389,118.02244076988913L740.6008897048611,115.00656392010777L743.4754460850695,121.98630027597599L745.2696921614584,124.40653302799575L745.4374460677083,121.58398994099011L746.285063064236,122.00192279642278L747.2990670833334,121.19780935114079L747.3829440364584,119.3940980651162L748.1034408506944,117.50350933421743L749.6884791666666,117.47222371534869L750.2017564149305,115.95069166877053L750.9643532465277,118.85915861823341L751.1730391059028,118.98081138784235L751.2572391406251,115.72463176900689L751.6769221354167,121.08321714921433L752.4416314236112,123.0702800161188L753.1205252690972,116.15461628306994L753.413485720486,116.01368897524748L754.13343578125,106.60442751104182L754.3841471006945,107.727443263314L754.8652404513889,110.07550808646462L756.8790328993056,105.98752055428241L757.0882158072916,105.85953762054442L757.7703653211806,108.23641280607745L758.0223938194445,109.63395884947346L758.4419525520833,112.84292599417947L758.7869539930556,116.05572775754064L759.2057174479168,113.19191686977038L759.4988021614583,116.60480862877583L759.9283764236111,122.85162559682672L759.9706504079861,124.27928049781107L760.0128001302083,123.33075003884056L760.5590565538195,124.8269411399148L761.3680777256944,115.40798153963956L762.2156201649306,111.59365187211469L762.6770303906251,113.8883566578952L764.6693503385417,103.69581853866578L765.1825530295139,113.15614738464356L765.643416501736,114.53894333405927L767.2208499739584,111.91801191676745L768.5705854774305,114.53188276637684L769.8798860763889,123.17915072354404L771.4502863107639,118.94449410005052L772.4657566232638,112.23314047206532L772.9324107118056,113.33830191525547L773.1841906857638,112.26300586180253L773.8280674565972,105.6603403403542L774.54125765625,105.71960447311403L775.1382875954861,106.00736318414863L775.2640905989583,108.42950310100207L776.072291640625,104.96254119006073L776.8795234375,113.56868336937643L777.2148324305555,116.09149724266743L780.3795160850694,124.84966480601918L781.7733895052083,113.71220766761084L782.1082511545138,113.06168185840951L782.3698478385417,117.00452197334985L783.4753088020833,109.987555325248L783.5369925347222,110.20308524045078L783.8328855729167,111.81843356565997L785.1400488628473,115.47327150171452L785.3921270659722,118.73127712943338L786.2832358159721,121.91283385190098L786.7972834895834,121.2187070083618L787.5105482465278,126.57201725179502L787.6881934201389,125.10189749977806L794.9232330034722,113.45267093831845L795.4705332291667,113.40955683968286L795.8993619184027,112.23788809516213L796.0667181857639,107.5122988388755L796.3170815711806,104.96584829503843L797.2235739756944,106.93103963331743L798.1826044184028,111.89167681087145L798.7277176302083,112.45159200148149L798.8212124739583,111.72220289750533" style="fill: none;" fill="none"></path></g></g></g></g></g></g><g transform="translate(68, 365)" clip-path="url(#clip_1)"><clipPath id="clip_1"><rect width="894" height="34"></rect></clipPath><g><g visibility="inherit"><g><g transform="translate(44.734375,0)" style="visibility: inherit;"><text transform="translate(0,14.171875)" style="text-anchor: middle; font-family: &quot;Helvetica Neue&quot;, sans-serif; font-size: 12px; font-weight: 200;" fill="rgb(50, 49, 63)" stroke="none" stroke-width="1px">12 PM</text></g><g transform="translate(134.203125,0)" style="visibility: inherit;"><text transform="translate(0,14.171875)" style="text-anchor: middle; font-family: &quot;Helvetica Neue&quot;, sans-serif; font-size: 12px; font-weight: 200;" fill="rgb(50, 49, 63)" stroke="none" stroke-width="1px">01 PM</text></g><g transform="translate(223.671875,0)" style="visibility: inherit;"><text transform="translate(0,14.171875)" style="text-anchor: middle; font-family: &quot;Helvetica Neue&quot;, sans-serif; font-size: 12px; font-weight: 200;" fill="rgb(50, 49, 63)" stroke="none" stroke-width="1px">02 PM</text></g><g transform="translate(313.140625,0)" style="visibility: inherit;"><text transform="translate(0,14.171875)" style="text-anchor: middle; font-family: &quot;Helvetica Neue&quot;, sans-serif; font-size: 12px; font-weight: 200;" fill="rgb(50, 49, 63)" stroke="none" stroke-width="1px">03 PM</text></g><g transform="translate(402.609375,0)" style="visibility: inherit;"><text transform="translate(0,14.171875)" style="text-anchor: middle; font-family: &quot;Helvetica Neue&quot;, sans-serif; font-size: 12px; font-weight: 200;" fill="rgb(50, 49, 63)" stroke="none" stroke-width="1px">04 PM</text></g><g transform="translate(492.07812500000006,0)" style="visibility: inherit;"><text transform="translate(0,14.171875)" style="text-anchor: middle; font-family: &quot;Helvetica Neue&quot;, sans-serif; font-size: 12px; font-weight: 200;" fill="rgb(50, 49, 63)" stroke="none" stroke-width="1px">05 PM</text></g><g transform="translate(581.546875,0)" style="visibility: inherit;"><text transform="translate(0,14.171875)" style="text-anchor: middle; font-family: &quot;Helvetica Neue&quot;, sans-serif; font-size: 12px; font-weight: 200;" fill="rgb(50, 49, 63)" stroke="none" stroke-width="1px">06 PM</text></g><g transform="translate(671.015625,0)" style="visibility: inherit;"><text transform="translate(0,14.171875)" style="text-anchor: middle; font-family: &quot;Helvetica Neue&quot;, sans-serif; font-size: 12px; font-weight: 200;" fill="rgb(50, 49, 63)" stroke="none" stroke-width="1px">07 PM</text></g><g transform="translate(760.484375,0)" style="visibility: inherit;"><text transform="translate(0,14.171875)" style="text-anchor: middle; font-family: &quot;Helvetica Neue&quot;, sans-serif; font-size: 12px; font-weight: 200;" fill="rgb(50, 49, 63)" stroke="none" stroke-width="1px">08 PM</text></g><g transform="translate(849.953125,0)" style="visibility: inherit;"><text transform="translate(0,14.171875)" style="text-anchor: middle; font-family: &quot;Helvetica Neue&quot;, sans-serif; font-size: 12px; font-weight: 200;" fill="rgb(50, 49, 63)" stroke="none" stroke-width="1px">09 PM</text></g></g><g><line x1="0" y1="0" x2="0" y2="17.171875" fill="rgb(0, 0, 0)" stroke="rgb(204, 204, 204)" stroke-width="1px"></line><line x1="89.46875" y1="0" x2="89.46875" y2="17.171875" fill="rgb(0, 0, 0)" stroke="rgb(204, 204, 204)" stroke-width="1px"></line><line x1="178.9375" y1="0" x2="178.9375" y2="17.171875" fill="rgb(0, 0, 0)" stroke="rgb(204, 204, 204)" stroke-width="1px"></line><line x1="268.40625" y1="0" x2="268.40625" y2="17.171875" fill="rgb(0, 0, 0)" stroke="rgb(204, 204, 204)" stroke-width="1px"></line><line x1="357.875" y1="0" x2="357.875" y2="17.171875" fill="rgb(0, 0, 0)" stroke="rgb(204, 204, 204)" stroke-width="1px"></line><line x1="447.34375" y1="0" x2="447.34375" y2="17.171875" fill="rgb(0, 0, 0)" stroke="rgb(204, 204, 204)" stroke-width="1px"></line><line x1="536.8125" y1="0" x2="536.8125" y2="17.171875" fill="rgb(0, 0, 0)" stroke="rgb(204, 204, 204)" stroke-width="1px"></line><line x1="626.28125" y1="0" x2="626.28125" y2="17.171875" fill="rgb(0, 0, 0)" stroke="rgb(204, 204, 204)" stroke-width="1px"></line><line x1="715.75" y1="0" x2="715.75" y2="17.171875" fill="rgb(0, 0, 0)" stroke="rgb(204, 204, 204)" stroke-width="1px"></line><line x1="805.21875" y1="0" x2="805.21875" y2="17.171875" fill="rgb(0, 0, 0)" stroke="rgb(204, 204, 204)" stroke-width="1px"></line><line x1="894.6875" y1="0" x2="894.6875" y2="17.171875" fill="rgb(0, 0, 0)" stroke="rgb(204, 204, 204)" stroke-width="1px"></line></g><line x1="0" y1="0" x2="894.6875" y2="0" style="visibility: inherit;" fill="rgb(0, 0, 0)" stroke="rgb(204, 204, 204)" stroke-width="1px"></line></g><g visibility="inherit"><g><g transform="translate(44.734375,0)" style="visibility: inherit;"><text transform="translate(0,31.34375)" style="text-anchor: middle; font-family: &quot;Helvetica Neue&quot;, sans-serif; font-size: 12px; font-weight: 200;" fill="rgb(50, 49, 63)" stroke="none" stroke-width="1px">April 30, 2020</text></g><g transform="translate(134.203125,0)" style="visibility: inherit;"><text transform="translate(0,31.34375)" style="text-anchor: middle; font-family: &quot;Helvetica Neue&quot;, sans-serif; font-size: 12px; font-weight: 200;" fill="rgb(50, 49, 63)" stroke="none" stroke-width="1px">April 30, 2020</text></g><g transform="translate(223.671875,0)" style="visibility: inherit;"><text transform="translate(0,31.34375)" style="text-anchor: middle; font-family: &quot;Helvetica Neue&quot;, sans-serif; font-size: 12px; font-weight: 200;" fill="rgb(50, 49, 63)" stroke="none" stroke-width="1px">April 30, 2020</text></g><g transform="translate(313.140625,0)" style="visibility: inherit;"><text transform="translate(0,31.34375)" style="text-anchor: middle; font-family: &quot;Helvetica Neue&quot;, sans-serif; font-size: 12px; font-weight: 200;" fill="rgb(50, 49, 63)" stroke="none" stroke-width="1px">April 30, 2020</text></g><g transform="translate(402.609375,0)" style="visibility: inherit;"><text transform="translate(0,31.34375)" style="text-anchor: middle; font-family: &quot;Helvetica Neue&quot;, sans-serif; font-size: 12px; font-weight: 200;" fill="rgb(50, 49, 63)" stroke="none" stroke-width="1px">April 30, 2020</text></g><g transform="translate(492.07812500000006,0)" style="visibility: inherit;"><text transform="translate(0,31.34375)" style="text-anchor: middle; font-family: &quot;Helvetica Neue&quot;, sans-serif; font-size: 12px; font-weight: 200;" fill="rgb(50, 49, 63)" stroke="none" stroke-width="1px">April 30, 2020</text></g><g transform="translate(581.546875,0)" style="visibility: inherit;"><text transform="translate(0,31.34375)" style="text-anchor: middle; font-family: &quot;Helvetica Neue&quot;, sans-serif; font-size: 12px; font-weight: 200;" fill="rgb(50, 49, 63)" stroke="none" stroke-width="1px">April 30, 2020</text></g><g transform="translate(671.015625,0)" style="visibility: inherit;"><text transform="translate(0,31.34375)" style="text-anchor: middle; font-family: &quot;Helvetica Neue&quot;, sans-serif; font-size: 12px; font-weight: 200;" fill="rgb(50, 49, 63)" stroke="none" stroke-width="1px">April 30, 2020</text></g><g transform="translate(760.484375,0)" style="visibility: inherit;"><text transform="translate(0,31.34375)" style="text-anchor: middle; font-family: &quot;Helvetica Neue&quot;, sans-serif; font-size: 12px; font-weight: 200;" fill="rgb(50, 49, 63)" stroke="none" stroke-width="1px">April 30, 2020</text></g><g transform="translate(849.953125,0)" style="visibility: inherit;"><text transform="translate(0,31.34375)" style="text-anchor: middle; font-family: &quot;Helvetica Neue&quot;, sans-serif; font-size: 12px; font-weight: 200;" fill="rgb(50, 49, 63)" stroke="none" stroke-width="1px">April 30, 2020</text></g></g><g><line x1="0" y1="17.171875" x2="0" y2="34.34375" fill="rgb(0, 0, 0)" stroke="rgb(204, 204, 204)" stroke-width="1px"></line><line x1="89.46875" y1="17.171875" x2="89.46875" y2="34.34375" fill="rgb(0, 0, 0)" stroke="rgb(204, 204, 204)" stroke-width="1px"></line><line x1="178.9375" y1="17.171875" x2="178.9375" y2="34.34375" fill="rgb(0, 0, 0)" stroke="rgb(204, 204, 204)" stroke-width="1px"></line><line x1="268.40625" y1="17.171875" x2="268.40625" y2="34.34375" fill="rgb(0, 0, 0)" stroke="rgb(204, 204, 204)" stroke-width="1px"></line><line x1="357.875" y1="17.171875" x2="357.875" y2="34.34375" fill="rgb(0, 0, 0)" stroke="rgb(204, 204, 204)" stroke-width="1px"></line><line x1="447.34375" y1="17.171875" x2="447.34375" y2="34.34375" fill="rgb(0, 0, 0)" stroke="rgb(204, 204, 204)" stroke-width="1px"></line><line x1="536.8125" y1="17.171875" x2="536.8125" y2="34.34375" fill="rgb(0, 0, 0)" stroke="rgb(204, 204, 204)" stroke-width="1px"></line><line x1="626.28125" y1="17.171875" x2="626.28125" y2="34.34375" fill="rgb(0, 0, 0)" stroke="rgb(204, 204, 204)" stroke-width="1px"></line><line x1="715.75" y1="17.171875" x2="715.75" y2="34.34375" fill="rgb(0, 0, 0)" stroke="rgb(204, 204, 204)" stroke-width="1px"></line><line x1="805.21875" y1="17.171875" x2="805.21875" y2="34.34375" fill="rgb(0, 0, 0)" stroke="rgb(204, 204, 204)" stroke-width="1px"></line><line x1="894.6875" y1="17.171875" x2="894.6875" y2="34.34375" fill="rgb(0, 0, 0)" stroke="rgb(204, 204, 204)" stroke-width="1px"></line></g><line x1="0" y1="17.171875" x2="894.6875" y2="17.171875" style="visibility: inherit;" fill="rgb(0, 0, 0)" stroke="rgb(204, 204, 204)" stroke-width="1px"></line></g></g></g></g></g></svg>