<svg viewBox="0 0 963 400" xmlns="http://www.w3.org/2000/svg"><g><g><g><g><g><line x1="68.3125" y1="341.081114497517" x2="63.3125" y2="341.081114497517" style="visibility: inherit;" fill="rgb(0, 0, 0)" stroke="rgb(204, 204, 204)" stroke-width="1px"></line><line x1="68.3125" y1="306.07872009173497" x2="63.3125" y2="306.07872009173497" style="visibility: inherit;" fill="rgb(0, 0, 0)" stroke="rgb(204, 204, 204)" stroke-width="1px"></line><line x1="68.3125" y1="271.0763256859529" x2="63.3125" y2="271.0763256859529" style="visibility: inherit;" fill="rgb(0, 0, 0)" stroke="rgb(204, 204, 204)" stroke-width="1px"></line><line x1="68.3125" y1="236.07393128017085" x2="63.3125" y2="236.07393128017085" style="visibility: inherit;" fill="rgb(0, 0, 0)" stroke="rgb(204, 204, 204)" stroke-width="1px"></line><line x1="68.3125" y1="201.0715368743888" x2="63.3125" y2="201.0715368743888" style="visibility: inherit;" fill="rgb(0, 0, 0)" stroke="rgb(204, 204, 204)" stroke-width="1px"></line><line x1="68.3125" y1="166.06914246860674" x2="63.3125" y2="166.06914246860674" style="visibility: inherit;" fill="rgb(0, 0, 0)" stroke="rgb(204, 204, 204)" stroke-width="1px"></line><line x1="68.3125" y1="131.0667480628247" x2="63.3125" y2="131.0667480628247" style="visibility: inherit;" fill="rgb(0, 0, 0)" stroke="rgb(204, 204, 204)" stroke-width="1px"></line><line x1="68.3125" y1="96.06435365704266" x2="63.3125" y2="96.06435365704266" style="visibility: inherit;" fill="rgb(0, 0, 0)" stroke="rgb(204, 204, 204)" stroke-width="1px"></line><line x1="68.3125" y1="61.06195925126059" x2="63.3125" y2="61.06195925126059" style="visibility: inherit;" fill="rgb(0, 0, 0)" stroke="rgb(204, 204, 204)" stroke-width="1px"></line><line x1="68.3125" y1="26.059564845478576" x2="63.3125" y2="26.059564845478576" style="visibility: inherit;" fill="rgb(0, 0, 0)" stroke="rgb(204, 204, 204)" stroke-width="1px"></line></g><g transform="translate(58.3125, 0)"><text x="0" y="341.081114497517" dx="0em" dy="0.3em" style="text-anchor: end; visibility: inherit; font-family: &quot;Helvetica Neue&quot;, sans-serif; font-size: 12px; font-weight: 200;" fill="rgb(50, 49, 63)" stroke="none" stroke-width="1px">400</text><text x="0" y="306.07872009173497" dx="0em" dy="0.3em" style="text-anchor: end; visibility: inherit; font-family: &quot;Helvetica Neue&quot;, sans-serif; font-size: 12px; font-weight: 200;" fill="rgb(50, 49, 63)" stroke="none" stroke-width="1px">600</text><text x="0" y="271.0763256859529" dx="0em" dy="0.3em" style="text-anchor: end; visibility: inherit; font-family: &quot;Helvetica Neue&quot;, sans-serif; font-size: 12px; font-weight: 200;" fill="rgb(50, 49, 63)" stroke="none" stroke-width="1px">800</text><text x="0" y="236.07393128017085" dx="0em" dy="0.3em" style="text-anchor: end; visibility: inherit; font-family: &quot;Helvetica Neue&quot;, sans-serif; font-size: 12px; font-weight: 200;" fill="rgb(50, 49, 63)" stroke="none" stroke-width="1px">1e+3</text><text x="0" y="201.0715368743888" dx="0em" dy="0.3em" style="text-anchor: end; visibility: inherit; font-family: &quot;Helvetica Neue&quot;, sans-serif; font-size: 12px; font-weight: 200;" fill="rgb(50, 49, 63)" stroke="none" stroke-width="1px">1.2e+3</text><text x="0" y="166.06914246860674" dx="0em" dy="0.3em" style="text-anchor: end; visibility: inherit; font-family: &quot;Helvetica Neue&quot;, sans-serif; font-size: 12px; font-weight: 200;" fill="rgb(50, 49, 63)" stroke="none" stroke-width="1px">1.4e+3</text><text x="0" y="131.0667480628247" dx="0em" dy="0.3em" style="text-anchor: end; visibility: inherit; font-family: &quot;Helvetica Neue&quot;, sans-serif; font-size: 12px; font-weight: 200;" fill="rgb(50, 49, 63)" stroke="none" stroke-width="1px">1.6e+3</text><text x="0" y="96.06435365704266" dx="0em" dy="0.3em" style="text-anchor: end; visibility: inherit; font-family: &quot;Helvetica Neue&quot;, sans-serif; font-size: 12px; font-weight: 200;" fill="rgb(50, 49, 63)" stroke="none" stroke-width="1px">1.8e+3</text><text x="0" y="61.06195925126059" dx="0em" dy="0.3em" style="text-anchor: end; visibility: inherit; font-family: &quot;Helvetica Neue&quot;, sans-serif; font-size: 12px; font-weight: 200;" fill="rgb(50, 49, 63)" stroke="none" stroke-width="1px">2e+3</text><text x="0" y="26.059564845478576" dx="0em" dy="0.3em" style="text-anchor: end; visibility: inherit; font-family: &quot;Helvetica Neue&quot;, sans-serif; font-size: 12px; font-weight: 200;" fill="rgb(50, 49, 63)" stroke="none" stroke-width="1px">2.2e+3</text></g><line x1="68.3125" y1="0" x2="68.3125" y2="365.65625" fill="rgb(0, 0, 0)" stroke="rgb(204, 204, 204)" stroke-width="1px"></line></g></g><g transform="translate(68, 0)" clip-path="url(#clip_0)"><clipPath id="clip_0"><rect width="894" height="365"></rect></clipPath><g><g><g><line x1="21.42626146225473" y1="0" x2="21.42626146225473" y2="365.65625" fill="rgb(0, 0, 0)" stroke="rgb(60, 60, 60)" stroke-width="1px" opacity="0.25"></line><line x1="124.1988683247064" y1="0" x2="124.1988683247064" y2="365.65625" fill="rgb(0, 0, 0)" stroke="rgb(60, 60, 60)" stroke-width="1px" opacity="0.25"></line><line x1="226.97147518715806" y1="0" x2="226.97147518715806" y2="365.65625" fill="rgb(0, 0, 0)" stroke="rgb(60, 60, 60)" stroke-width="1px" opacity="0.25"></line><line x1="329.7440820496097" y1="0" x2="329.7440820496097" y2="365.65625" fill="rgb(0, 0, 0)" stroke="rgb(60, 60, 60)" stroke-width="1px" opacity="0.25"></line><line x1="432.5166889120614" y1="0" x2="432.5166889120614" y2="365.65625" fill="rgb(0, 0, 0)" stroke="rgb(60, 60, 60)" stroke-width="1px" opacity="0.25"></line><line x1="535.289295774513" y1="0" x2="535.289295774513" y2="365.65625" fill="rgb(0, 0, 0)" stroke="rgb(60, 60, 60)" stroke-width="1px" opacity="0.25"></line><line x1="638.0619026369648" y1="0" x2="638.0619026369648" y2="365.65625" fill="rgb(0, 0, 0)" stroke="rgb(60, 60, 60)" stroke-width="1px" opacity="0.25"></line><line x1="740.8345094994164" y1="0" x2="740.8345094994164" y2="365.65625" fill="rgb(0, 0, 0)" stroke="rgb(60, 60, 60)" stroke-width="1px" opacity="0.25"></line><line x1="843.6071163618681" y1="0" x2="843.6071163618681" y2="365.65625" fill="rgb(0, 0, 0)" stroke="rgb(60, 60, 60)" stroke-width="1px" opacity="0.25"></line></g><g><line x1="0" y1="341.081114497517" x2="894.6875" y2="341.081114497517" fill="rgb(0, 0, 0)" stroke="rgb(60, 60, 60)" stroke-width="1px" opacity="0.25"></line><line x1="0" y1="306.07872009173497" x2="894.6875" y2="306.07872009173497" fill="rgb(0, 0, 0)" stroke="rgb(60, 60, 60)" stroke-width="1px" opacity="0.25"></line><line x1="0" y1="271.0763256859529" x2="894.6875" y2="271.0763256859529" fill="rgb(0, 0, 0)" stroke="rgb(60, 60, 60)" stroke-width="1px" opacity="0.25"></line><line x1="0" y1="236.07393128017085" x2="894.6875" y2="236.07393128017085" fill="rgb(0, 0, 0)" stroke="rgb(60, 60, 60)" stroke-width="1px" opacity="0.25"></line><line x1="0" y1="201.0715368743888" x2="894.6875" y2="201.0715368743888" fill="rgb(0, 0, 0)" stroke="rgb(60, 60, 60)" stroke-width="1px" opacity="0.25"></line><line x1="0" y1="166.06914246860674" x2="894.6875" y2="166.06914246860674" fill="rgb(0, 0, 0)" stroke="rgb(60, 60, 60)" stroke-width="1px" opacity="0.25"></line><line x1="0" y1="131.0667480628247" x2="894.6875" y2="131.0667480628247" fill="rgb(0, 0, 0)" stroke="rgb(60, 60, 60)" stroke-width="1px" opacity="0.25"></line><line x1="0" y1="96.06435365704266" x2="894.6875" y2="96.06435365704266" fill="rgb(0, 0, 0)" stroke="rgb(60, 60, 60)" stroke-width="1px" opacity="0.25"></line><line x1="0" y1="61.06195925126059" x2="894.6875" y2="61.06195925126059" fill="rgb(0, 0, 0)" stroke="rgb(60, 60, 60)" stroke-width="1px" opacity="0.25"></line><line x1="0" y1="26.059564845478576" x2="894.6875" y2="26.059564845478576" fill="rgb(0, 0, 0)" stroke="rgb(60, 60, 60)" stroke-width="1px" opacity="0.25"></line></g></g></g><g><g><line x1="0" y1="411.0859033090811" x2="894.6875" y2="411.0859033090811" fill="rgb(0, 0, 0)" stroke="rgb(153, 153, 153)" stroke-width="1.5px"></line></g></g><g><g><line x1="-45341916.677563" y1="0" x2="-45341916.677563" y2="365.65625" fill="rgb(0, 0, 0)" stroke="rgb(153, 153, 153)" stroke-width="1.5px"></line></g></g><g><g><g><g><g><path stroke="rgb(255, 112, 67)" stroke-width="2px" d="M-1.481352936136838,104.9635014799087L0.6061585448640101,110.13401382327626L1.5812422004178708,102.38070068791745L2.4535247011629293,90.26518415001937L2.549788376257426,100.01581736414147L2.6479076678647164,104.46588125692739L2.9476325566005164,120.38865391213847L4.852922496044968,198.87691124931294L4.9151570190894525,256.17333910545034L5.836484891664981,287.67982476572206L6.037747913437282,310.7404615732932L6.592948374065327,332.18968819714803L8.101507503074364,344.3410016733899L8.485591573276425,353.58530441341156L9.123952201624004,365.2173966998846L9.364297361950387,366.75637319063185L13.314533794386822,365.9439447795528L15.837886772323516,338.6716482996071L16.388462465642753,311.9472708541308L17.25357943185379,301.27921939969684L18.6940802567628,264.3981125135534L20.639194581366453,272.19210586032625L21.22768194743939,282.488019977628L21.38109861112795,293.56974561123553L24.314143167143268,295.2904733908231L24.555059286396666,279.09079799271103L25.084766430933556,275.9381950286652L28.632876491074295,257.7330884416791L29.199067911047354,276.18221966441814L29.247114104755546,262.66177408285114L29.577099816623072,276.74750719428926L29.815846291953815,268.5963306669846L29.86377829387661,277.2258291962302L31.084431383939027,283.4836098848997L31.32386300998219,282.6092954893707L31.467544823965167,294.09778169164804L31.862791141190346,271.05209110345993L32.8232297002663,277.1347731283491L32.97884455582387,275.8541702715356L33.026833653639365,281.35708127220926L33.74983894291671,283.60260809287104L34.820615314638054,271.84099149758003L35.45791966897065,277.03477095415246L35.55389786460165,265.14649185812925L37.986496921089525,261.69062914882505L39.15168135139257,238.89629052185182L39.48703407717402,261.9715798279791L39.77551107504765,249.15709388205445L40.94409271096644,256.5618482432182L41.089230470213295,251.88157734141004L43.9671203938791,238.34054479899225L44.78396278281113,251.06745390608216L45.80672150877063,232.33456862790828L45.951516692661286,234.44613361846976L48.36867131017345,249.98433883477776L48.51209619263927,241.01156889156294L49.290313210158835,245.24758261323825L50.79042214704807,249.17579684796937L52.14487946165613,274.2767644592848L52.54018287477401,280.96180267904504L52.73219636192869,246.81139987949615L53.116908486950464,240.13178826496295L53.64570209720413,246.4248402383854L54.905437325820635,255.44560927456462L55.18472188496935,246.03150508327184L55.95788591598484,259.67021232253353L56.73947159117378,268.3939362191167L57.1241551682492,246.7298686402974L57.56779025453879,253.93089886049376L58.00120517603484,219.213513017219L58.52962766298594,204.6438063830527L58.57770240464048,202.79640457620008L59.16561881178641,196.55575924075708L59.26162555536375,200.90402881047282L61.110219273355746,220.39572909846717L61.686088447141685,225.27596839966762L62.60967160747892,224.14898855745972L63.7280088578205,239.39537158890573L64.69915289677796,209.83153131848115L67.01353490742767,215.54596645399624L67.45557130872162,213.56666989118722L67.5994244103827,215.68387649840213L70.53032787042171,228.98512094727363L71.49998741616895,201.0673530762944L71.59568013233644,202.96502625683104L71.64338375068841,189.88975989304296L74.20461985343246,211.3357689238002L75.17570679649724,214.89456550302427L75.55859185295256,244.5267407851926L77.0692920779379,235.89665763340477L77.88547786410388,199.60722991836656L78.76124321430373,209.30824361905655L79.14547002423753,193.54506460794425L80.659110687697,216.2321987637294L83.08725626455417,232.3394961700085L84.49381358125223,205.68811519007255L85.02166510927631,216.97077421574008L85.79979648295682,216.61306343791188L86.47224335924712,210.29392827215403L87.71713365576126,193.9820409975822L89.65827981582217,208.7356931947023L90.72514511889348,218.74475462147313L90.96509060797094,201.89364755661597L92.74865210417609,196.46104550282982L93.28669524904738,182.79706802425474L94.25712558934607,183.82937392068771L94.35293249729897,150.46725396827085L95.89820428531497,130.65071068616052L97.06041972919755,163.11381676763156L97.63620325914444,179.76708886361047L97.73221000272177,197.69953440115742L98.0305931379791,150.99585990202448L99.81680959319485,124.76434360955759L101.17163803110547,121.44196822571902L101.26747348700471,133.39130746396046L101.4704208376117,156.21550991073823L102.19031440073682,159.31202751782106L104.18007771343295,87.58018187301167L104.32438758223564,97.08561507788232L106.88976313720053,152.63344855325866L107.03398736216417,137.5301341431231L107.5255829983229,143.9269791199434L108.39138511524635,144.60140707405665L108.4395169527936,153.3243215827673L109.4895960634107,176.89562326485287L109.63539042542364,177.48568091011518L111.2771828200513,178.55452044392445L111.38360956404664,186.5988791359041L111.71833423500837,136.01374835362842L113.45473452384218,86.51865049636262L114.47335379758083,53.59316937734275L115.63417039209223,93.33356936865425L115.87391604554526,95.8283241321954L116.161508057082,112.48844061597063L117.47791095920462,127.02114929836182L118.44006239506163,116.5094064555386L118.69194092571368,111.79245486008779L119.4134046258881,151.0803940292697L119.6528647998776,157.72110403378736L121.73749293829702,157.82656360762851L123.17556718776623,126.95483915632227L123.2727729450903,128.35258863469346L124.0565282642019,170.1412056083076L124.15256355572558,173.4165314990841L124.44009847136965,165.31361013715306L124.53561989985903,147.2915902661161L125.4079024006041,171.76348337386548L126.52526902076976,148.20554931963684L126.95759912030445,146.9867545829796L127.88052567787562,160.86763809835296L128.40694980858217,136.40119369220724L128.50292800421317,117.82607642641744L128.80136823536319,145.8188137744231L129.42565472615988,137.8937104902151L130.3027618298382,114.85606380140405L132.22774985226462,131.47875756346747L133.33435389665607,128.57242746319432L133.5858327560592,148.09706119977693L134.9829977984079,167.4567038883181L135.51653036775576,163.66348244219674L136.0470368547905,188.74105715436627L136.3939800467903,179.83218977322304L136.68174334600516,149.0525126203496L137.87107933892088,182.088496598791L140.72598816577442,198.01535633273164L142.47395037288024,185.21116887813972L142.52176818301763,179.6174330594154L142.71401005374312,158.71021698674193L143.70893453201072,158.9646371672689L143.7568665339335,163.712354315466L143.80476998790994,174.10102865236118L144.18996742801968,170.25344719911956L146.58082938694287,167.67410895422202L146.9166959757586,157.59352337859374L147.06100584456132,142.72000143140482L147.98333289525914,173.08277231978596L150.6218197408281,152.59990019003146L151.06554047095676,159.31855386902396L151.1614330227487,168.53713391470157L151.35367489347416,195.00034113473714L151.64260865848942,177.60373888369236L151.7868328834531,126.05611513675939L152.12278511610788,102.51700760860581L152.51831691279656,133.77273500522227L152.66268387749196,108.07396504084227L153.2384959553852,123.78010652994257L154.5447643365533,129.46007408310925L154.74853957760448,136.6895623040684L155.27727609196543,130.8082136363085L155.81611857933453,121.90567775145317L159.1038999167034,121.35829965642097L159.78690953314344,152.9269011177071L160.17076521977472,140.58390346576172L160.85431724719544,170.27078041284418L160.90227779706456,183.1686158522531L162.16289801201793,208.3667422613595L162.83503086089837,161.9450811908529L164.0445787998304,150.81686992654807L165.44850970546415,154.84092696892276L165.60335376647026,145.98753233820455L166.86191852928638,142.36995794847576L167.72680711192663,141.03725639799944L167.92995429815807,111.54182671121666L169.14058705905137,78.86860992601021L171.658316091557,69.71208634085048L172.3797797917314,109.67295384634991L172.7750832048493,97.58986370626815L172.822929562933,114.7039068824524L173.87771908469801,123.90712325080412L174.97964126588792,76.53119701635552L176.9208730697879,70.00014742965584L177.94049152164882,111.92158207109031L179.43885903381067,106.02089386938405L181.99949562968135,128.07654784009782L182.5259197603879,112.89411637692598L183.39746001452784,118.46129735774002L183.88717148622743,127.77018293746553L183.93513203609655,152.70887449007395L184.845868620576,138.18106341419596L185.9596096515551,170.98022606924062L186.88142283921863,129.36260428521734L188.33177270561862,129.9702452511494L188.77255299727312,144.31988071948751L188.91637755098785,138.5026880545165L189.2516731808766,177.1532615204546L189.73085046037278,180.56927479540622L189.8745037264094,192.23802287916604L190.1282093256279,202.18816304548838L190.61064107100808,147.91882180468127L191.7765962958626,122.27153760096115L192.20872655977286,159.68807239140125L193.13288067903707,187.859813183861L194.1818464197465,172.42230185055107L197.18386281414507,182.08616400199813L198.88711893726577,181.24461941053139L199.70376149057333,201.34937204415166L200.19501455137586,179.79315359552356L200.43476020482888,129.96215914722723L200.96395348633143,167.9906102958469L201.26407804631617,177.60560193021465L201.60091526530786,186.83345562551563L202.47802236898616,165.17446659546147L202.71802495395636,155.6808076132789L202.95842721017544,156.8110869900472L203.83570560153186,102.46328904158912L204.36404244464393,114.31051533082348L204.5085236011247,144.03846601213124L205.4810950373997,151.4444520405826L205.86512201170908,131.39395617867274L206.35748844241925,138.6674524860251L208.0521516336884,140.27412876394487L208.29252534196112,159.8875821777993L211.4967182924152,141.6054373280464L211.5450499655869,140.20994212819102L213.0907499727982,129.12998377969893L215.17829000174538,118.2445193107358L215.56191730480583,158.16074596547926L215.9569352384602,140.06146016735352L216.00469595270488,153.0414332831767L217.64760171724024,120.1493647110785L218.17582436856688,103.33951959105156L218.76202789893176,117.84907330214153L219.58863368551576,117.88337637996244L222.4910462950968,135.1758920237799L223.6543180129943,170.78968633228249L225.10412546841366,167.00865891594032L225.2957678322658,140.9148084980457L225.9772073116565,149.94822693084546L226.80444115306025,168.20544925751784L227.09146220566998,156.5884120396542L229.11748141023148,179.47958162929461L229.89698308533679,194.92749006558083L230.43742425770157,221.96972379054012L230.87152432991,202.95319877770692L231.2576067563566,189.0300658143558L232.230863343344,196.92986896121982L232.3268129910287,147.48666451197406L232.4707517365288,137.3451577341074L232.56675848010616,119.40332559850341L232.86648336884193,129.14357186788317L233.8288346403234,149.12377212322656L233.97323015296516,121.0267228352943L234.2247090123683,124.0039808877506L234.65632541324425,149.77379310651193L238.2846552026304,163.10345814756604L239.25465732373382,76.73774935291749L239.30256077771026,91.8674076170787L239.3986246171803,82.31026600187619L240.07192793186113,83.80811876137273L240.26408415874758,93.94920706325041L240.70643458745133,116.06260808569161L240.75445223321321,122.50941631159975L240.9943977222907,111.48090018346389L241.23414337574368,117.19477928275171L241.96471387080396,134.7876748698012L243.4654508625129,166.89884499092568L244.05345291349792,175.98454272534394L244.39026158454325,173.77744241547362L244.63080658049407,125.48275928810588L245.31501521068085,114.31383950667666L245.7477449814645,161.80474807456307L247.23492169865685,174.684909454947L247.57527031504966,137.67518352712528L247.62385891973852,130.29743146152583L248.0682077046869,148.39080114086417L249.90164246316667,135.45702153329515L250.2969173283382,101.4503207645069L250.3450206179391,109.01137689531538L250.53717684482555,78.52527105793553L252.08570309872553,37.35046640422803L254.36802576562343,49.50119169182091L254.56072440349052,44.57822063884623L255.67717748937292,78.30931977699174L256.5535423464462,123.2129910571887L256.6979949549806,131.59846959907006L257.71718518764624,151.80488542567008L258.47587540986194,129.92943392058223L259.6759168826592,125.14020839561726L260.0116978276359,119.68985957525999L260.8392171485031,159.94883186266597L260.93562356332933,140.3106715853853L261.0800190759711,158.53110925505405L262.10220684300356,145.69400589966838L262.1984990660444,155.98373184685187L262.43921534967336,137.062118496361L262.9788571795403,162.79014136354894L263.55606810680473,155.21894850563186L264.383187756423,182.08344271079483L265.2852457652118,200.36719910085623L265.5740082425489,153.8988871550327L266.0556406454313,90.18359103826486L266.93266210527054,105.10599726506058L266.98087958665684,138.89336611686096L268.28940325558665,117.07099557913921L268.6742295723938,141.60926895967646L269.1662819756942,122.68440298337873L269.6949899421088,173.35685963720127L270.73890269631414,164.7290370830391L271.6144682108895,174.2537760654982L273.1634226839848,178.92735735551912L273.49917508101515,188.91998415742015L276.0413982514896,162.63679622383475L276.1374335430133,143.05590370198436L276.6174101650073,161.4864057186766L276.95404754837455,194.0280795708075L278.2632563680168,166.87964246064593L279.50823230837,178.9102677555422L280.00282547889555,203.19237088150214L280.7700515370701,192.60565978796208L280.86545877377404,195.44127303158598L281.2100039382804,159.914252453342L282.7540481646034,101.16524926045514L283.5325792095328,132.7780720268531L283.77215357530775,140.4061982606069L285.84544817902594,163.70243929440596L286.00060626744187,184.19807708962279L286.9600171004492,175.40116410156892L287.25917103025796,135.3604674305144L287.30696029244905,157.32325080178754L288.56678116490457,127.2012859818328L288.9027333975594,94.80297367871373L292.16681993945724,116.14712933391357L292.610797601103,116.51628304412685L292.9494904366075,134.15662916843775L293.44245637419107,101.61623831137013L293.5861952840667,151.14186628546483L294.64869275134635,152.36060584210023L295.17662992320953,174.85490832310006L295.7055662731949,194.71054633870736L296.29328284471643,222.5444548542351L296.3413575863709,205.73006693957325L296.4856389072273,174.6500808646518L297.64836821414417,185.41145365126187L297.9361600613054,167.91938634843459L299.0533839417393,180.0419133704542L299.54535070120056,170.37766044874536L299.95629838891864,156.54165162166257L302.9106682608579,114.93142504267769L303.35675847053363,158.11920009571375L303.79014484408333,135.13619402112465L305.4869205833824,140.1825903623031L306.858106994552,152.48351232262442L307.0028165346036,158.11021318932907L308.93999453012174,159.67093325416576L310.1090900290749,116.64743515515548L313.3055750340142,135.84913953476533L315.5834442212814,120.83244491197226L317.32058675672033,126.85450125049721L317.56116030061753,136.93598186695425L317.6091779463794,158.47289757838993L317.70547016942027,161.6019172825663L318.3887081694311,175.26191937146146L318.9660903843736,161.77917058113343L320.08168703186556,175.0744661277605L320.36950742697314,168.70705713005725L321.10073452479946,202.04493880267646L321.3887833034778,183.4579662399972L321.88177778900774,198.28593771969338L323.04927460296517,191.93051613738044L323.86400444386726,181.0102777813254L325.1618226329156,191.74657303243472L326.66381573426395,194.0029553642191L327.0091887892145,197.57044037955174L327.53798239946815,186.904362056745L328.5129518632366,163.34923322211762L328.8488184520524,168.3607761233868L329.08844991372,127.74003952929354L331.1297422695791,124.61130290743279L332.8787607506999,140.64367481811578L334.2350451338744,162.96468425681948L334.33093768566636,172.74368754427257L334.3789838793746,185.15186253488488L334.47507626679095,202.621323849463L335.543140583609,199.76973213387686L335.8337015815662,184.1339430648374L336.07804345438166,198.02335485087872L337.4855428533093,211.89679311376113L338.166325729934,218.2798468280434L338.6978599430373,177.1204674501724L339.19196779847493,126.91525242366555L339.384095477415,172.47906729823976L339.4323986026404,181.14547156836682L340.7875410679608,198.84190676619326L341.21955714008567,197.81006524042456L342.3403780617598,184.89296097194338L342.388509899307,190.80529350745945L343.1882806163214,158.21007285020985L344.69592621104715,186.05527221638565L345.1272571324596,196.43366552388161L345.9547764533268,192.94270914436564L346.19492177802874,150.42640564160888L346.6277371926514,139.58346022836548L347.04585041490344,114.34433788321854L347.4309622111742,121.48166615815654L348.2615361623009,71.54031016197825L349.7123427958425,102.10382422699064L350.1934042397978,135.9864747637443L351.9985479834441,156.55271923151994L352.44032745322085,160.30527823216937L352.48837364692906,154.74557239354033L352.7882412753966,117.81037760927475L353.5589216350796,139.86725546062794L353.8954733746078,119.24213005497185L355.25846652517464,154.56365537280197L355.30611304763397,194.71790264204677L355.7386144348468,158.33695919190023L355.9787597595487,173.93081883836888L356.73025589928403,193.28554772766105L357.1654693414002,204.3112135712586L357.85053440997746,163.30611638511957L359.7185121835416,156.44391885086682L359.86490605242784,129.99330274550195L360.30808437157583,131.5006593531176L361.7348821822365,178.5118307848411L361.9292080530456,198.573065040363L362.36527793355225,222.28828993004717L363.04934382400734,210.41842111000514L363.3361935889389,219.1978630454963L363.4323716201944,185.36821040244251L365.30049213349025,212.8876569340307L365.60127329624106,211.26932819291096L365.8895504584902,213.28132535237503L365.9854430102821,183.16720980969848L366.51283777116464,158.66540969469318L366.7531258355983,164.5562392215999L367.4654541929405,132.54728671047528L367.89915459390005,161.59639081775754L368.68162525542584,188.15434604037603L369.89594070139844,184.79513723565034L370.8192669302185,195.08651516575134L371.25139719412874,182.28408621133897L372.1545971207716,198.0603164444148L373.4627211184525,168.55922639721953L374.58414154699994,156.25111826636558L374.68051941387984,184.78513610952083L374.7288225391052,197.6255359906201L377.2005893779862,211.67904468934273L377.58470199613464,220.45441972139957L377.72881202931285,211.29994597423504L378.3874131516231,199.36443998620388L380.2295550337398,189.76485339338998L381.7395415600664,136.18347059189307L382.7016929959234,161.01645915052296L383.62539034804604,172.79029618753506L385.12315835333453,169.1544201861892L385.5195751363601,174.15231833937378L385.61578171556187,173.56516505246307L387.2582878088483,152.08049239148568L388.2976043436912,122.48562850997106L388.9733627817581,137.40521360910924L389.27108931424937,137.92917921987237L390.62214942324175,136.68172023890597L390.7666305797225,168.84153716859652L390.81513354057233,193.7783093747922L391.10366763433865,185.94931654946745L391.1998456655941,145.50155504254604L392.02585194530474,160.3707218961422L392.40887974149183,134.4426215268804L393.0647973568451,147.62441803736033L393.79000083799144,111.41764870301961L394.5706444309508,122.78692231006957L396.45492308188113,108.70098842995759L397.04249691367085,148.0578206455222L397.13818962983834,152.91480937362724L397.61688159424654,147.33556507979134L398.1580079173237,169.95313288632255L398.49607269800845,154.57745651737372L398.83322394441,146.37436825798616L398.92945907155814,128.53370297464522L399.75572228278594,145.37851328822896L400.6825313610608,179.0649755758645L402.4254405816626,158.88297176784553L403.95389762927806,182.4904456145463L404.25393654542364,169.68941069177006L404.685581494246,124.87004080614395L406.1359028126996,127.59581096333565L407.25583874803687,157.49956463658108L407.303884941745,141.880581658997L408.1775091959686,157.95934555753496L409.53907494921793,160.92332769010858L409.7795343013297,184.16756283662946L411.31347255464453,186.6714248868278L411.7120875295391,202.84855171831143L411.9530036487925,201.07623875122692L412.04901039236984,182.24337939779235L412.0968567504536,191.6431424671069L413.0662593646837,203.2104154772167L413.30697564831263,199.95287203624068L413.9828768261113,180.60924748337783L414.4745010102164,185.36040353373818L414.7146463349183,196.8828797992206L415.0513122662319,201.6200140936284L415.97532364576443,189.05372153591196L416.56520986120853,179.08847292761655L418.2571039016816,179.8599848119409L418.69069011085577,198.11977784074236L421.02063075226664,222.60857292701957L421.2613755838419,221.94051271191933L421.99611407906934,215.60867332850688L422.75243482173795,201.20773406027396L422.94641811719083,188.18243620680101L423.7212379290947,188.80782594009057L424.35671521486086,200.22451467569968L425.3280590894428,185.19890740390994L425.7609601479045,163.31262930556008L426.1454438893555,190.52215896046482L427.89945826108766,178.52255284076256L428.87214388914805,191.64556313299073L429.01631101821897,161.28308925629554L429.78347998050083,158.34441154983494L430.5624392446255,155.7570256977977L434.21740426795685,125.45756257314468L434.64890647704743,167.02788158286162L434.6969812187019,148.47579715872916L436.1523555236597,172.30067154953355L437.07445419078664,177.9812125218535L437.2184500321795,188.87186624967202L438.2879417463151,169.19665129226533L441.6570276348907,175.63558981824366L441.9486449068629,182.11322562703438L442.04587921213334,170.91341308462484L443.06538347220885,190.12953698069936L444.13090702180165,177.2544709300276L445.53603694118215,151.61437563035142L447.7708558253525,113.48127083465775L449.1268547290635,177.0721425564031L451.99323983035003,196.6416031723001L452.77308408081154,165.41452104471398L454.27516282599896,181.98808280638508L454.65956092361097,183.47156226160246L455.68017855359415,171.46121529616954L456.89469383519116,206.20641060268457L457.14617269459427,182.7789978342445L457.77054482923006,195.87802018519704L458.40516567660563,211.68731707680163L458.6935284826939,184.52949746425247L460.72679886562844,189.86849855959116L460.7865782652868,114.80612942261499L461.0274943845402,160.2707140681141L461.7488724408755,161.82063479571207L464.61320209002474,122.34338037111107L465.4315289721671,105.28142390316447L466.74364968233704,96.17787576531856L466.7918957116697,120.66321353524145L467.1947072346778,143.8824725109086L467.77320281952797,133.30631233675993L468.36211840479615,124.58409339444597L469.0834964611316,164.76480018294907L469.276223646945,165.9635218734253L470.10611244735935,190.30185191424872L471.19915621723413,177.7744723075865L472.0800031018845,197.48432953371636L472.79889748688726,216.02112781221277L473.2922059998271,242.75009965836756L473.4377719782692,169.22371464412979L474.0204355632866,169.24894523754543L474.0685103049411,158.0831487250499L474.26135168254,158.1453716497141L475.6266857647077,103.89574010920518L476.88233863699605,99.50625219979014L478.47714111193045,66.51400627669364L479.2175606484817,138.33361773382606L480.9685203899544,190.74575280720993L481.2085800708172,138.13926693901544L483.7426099806891,157.3165225773132L483.9341667007022,135.06522583319762L484.90088580797527,152.61326830223166L487.2706793824917,185.5470299148185L488.5285589945954,140.88721450304084L488.67241209625644,171.83303966595707L490.7135331644374,158.9311086508753L491.4807306746656,140.91042455017825L493.18193134564905,151.21421317096323L493.90239586770116,147.7905105139325L494.29707122599933,173.2657701077969L494.58480597726793,156.1500726350481L496.42041037967033,133.25036747896863L497.24713035803967,106.92804806657188L497.3902412130957,123.57675276608495L497.5332378763663,139.28884707321447L498.1656034359802,138.39899076885612L499.4709297349187,163.89737157909565L500.3463239618159,183.0735301473186L500.68224764652444,201.3849351187641L501.0186280983745,153.2657109538339L502.0867780590316,134.22147533347393L503.1091371137422,142.2297088954465L503.73696354988635,124.44475393627752L505.4453297554038,67.41041270148332L506.562981855033,76.8805220427447L506.70777703892367,85.91639989501493L507.3342617215893,87.13412075185818L507.52696035945644,50.28813797099457L507.8269992756021,48.965136668498985L509.93583607252685,102.64445865336882L509.9838251703424,124.8786616845278L510.90857879648,125.92275708683252L511.05320269269254,162.51939402614713L511.45138944839186,174.76150231447122L511.4995783818318,174.04878751338154L511.5477958632181,157.38768519523725L511.8365868885016,147.85009216422392L512.8101860508452,181.23917274311427L512.9059073149591,194.9495192610234L513.7818154048906,194.11902746980422L516.2100180776405,179.91397227425435L516.8827789813406,186.6800449149231L517.1715985545704,155.87810848168533L519.0400330952763,162.76863128245782L521.0234302159362,187.97921758909294L522.3880791473914,173.63239468194365L523.719698104919,137.89941942577823L523.9594723063183,106.80010579833703L524.2470072219623,147.32954984506387L525.3667433216751,171.35864682123415L526.5768336715877,174.26569361691895L527.153302352247,197.99421392034773L527.2014056418479,185.52445405903495L527.500416831925,196.75571085570655L527.9332036986013,161.2295122299675L528.7620076770544,136.89513295835005L529.3374771795912,99.45303540723677L529.6262682048748,125.01641014208465L530.5998959151648,158.35512355361286L530.7920806899976,168.75315664981602L531.9558377229831,133.978146533872L532.0521013980776,114.45835997175473L532.4962788953478,144.95282969337418L534.9539715966779,145.23096242708704L536.1189561913566,158.7328540025942L537.4633646288491,135.95743999026098L539.1752422317677,134.29733786628515L539.2233169734224,161.14619147260788L540.3863888556954,151.82120907410973L540.4823955992728,181.39782745340517L540.5306987244982,190.58825493517807L541.9843316047284,229.8788178064403L543.4095592783398,199.95022436350584L543.6586686581959,207.5412014883994L544.408280633472,174.1937063198937L544.6980993848242,175.43366861131005L546.1584695803932,148.18716256801227L546.2065728699941,159.72425247902902L546.5915990224258,147.8614417998546L546.7840121808293,113.18861055472112L547.0721466033467,119.54246815925862L547.8504492647054,125.05581693873259L549.9394737868629,97.38307937804007L550.5175697004642,114.7159179853355L551.0590100509511,125.4415212627554L551.5407566456189,108.34676394442346L551.5890026749515,118.41432214451683L551.781901148443,109.15115202528585L551.9749423616663,135.6221116253051L552.1793456575373,131.54193177523513L552.9976439917332,122.5018640380276L553.2976543599325,132.5309417186396L553.490295901907,154.49173551640305L553.5868165085186,165.51773327941393L554.8231709690739,178.84161905637333L555.7500942391341,197.80831222167188L556.085732444379,168.71277898725126L556.1337215421946,169.45598525353054L557.1289885958184,182.98571221488888L557.2748115057776,177.14647346839917L558.8270204447568,195.50938002510526L558.8750380905187,184.53231163391297L558.9232555719051,155.63276533696768L560.0901528789891,188.41209851377235L560.7769308243473,176.97394862814568L563.2577759101679,191.74221827899365L563.8355007004667,177.08427858947982L567.1374989151182,209.63637697160476L569.1985179019056,204.44623942711132L569.3912450877191,218.29329770175445L570.3648727980091,188.2384878720008L571.5296575570632,154.77064340452873L571.6260354239431,154.0402066149472L572.4536689365957,141.80750963794955L574.274371311003,142.12207358185992L574.8639720469837,162.93281835154193L575.7399657807543,180.80500243068164L575.9797114342073,149.55206826304467L576.0764033284971,129.08800352875596L576.5584924985211,117.810358117698L577.4369413556778,115.68535914909435L578.216757058193,127.59165399571316L578.5532802497748,158.72189831296492L579.380314255554,133.11562699379084L579.6683059383398,145.50781380188124L580.2209370837963,162.43734179162925L582.5341771765919,192.85439315498084L582.7744366930792,179.38259535407406L583.5580207245127,159.00076194948247L583.847525448455,150.81778122183056L584.3294718787472,175.49503009209937L584.7257744699873,199.70432227176804L585.2068359139428,199.8989989593672L585.5435018452563,192.27545488555748L586.0369530979278,203.84948003877378L586.085484606724,225.07418427565014L586.1339019237347,192.15904103193262L586.761414332469,201.6530709882061L587.6907070820764,189.27632587438143L588.6642776964737,200.1688645262038L589.1943274163667,230.79789407177526L591.4829020835155,233.11476726497511L592.0723886277107,212.3304065487125L592.6017817448377,203.75306970490266L594.4137769956081,182.07237415083276L595.9642159619136,130.47123928465965L597.4682074195066,160.4169526994418L599.2721236014597,161.09414123129218L600.4385926893485,176.47138817834195L600.9746374779753,175.80364975294526L601.2638567224541,161.41378288403126L602.0035054644538,170.65210203322067L602.8227173329329,189.02741607117332L603.5085246481154,162.95528893801875L603.6530343525426,201.51395523079208L604.5814135678667,206.15752081646858L605.5086794132832,216.47456854628987L605.8938483054466,221.3497841382269L609.5291152457959,202.59133650507508L611.1302553648203,190.6806717074197L611.5149389418956,174.61105965036708L611.8154060772366,155.888644885137L613.0852758268076,121.04878258318763L613.1561032817036,138.11559914940923L613.4959951309548,143.3596799560024L614.997560013108,165.97663131781474L615.2870932849966,169.36385678555573L616.3107084493465,176.909874217308L616.9011941716641,178.88115410401576L617.7205487798749,177.44432277742388L617.9245809524433,194.6883925502119L626.2354590940535,206.83483343785625L626.8641705165345,180.99633856796572L627.3567653308156,176.70186320328995L627.549007201541,148.81382796710423L627.8365992130779,156.121470378568L628.8778570082725,150.157127732938L629.979493709999,145.05639847981095L630.6056643652548,182.69984093164535L630.713061739426,203.69779710897657" style="fill: none;" fill="none"></path></g></g></g></g><g opacity="0.20000000298023224"><g><g><g><path stroke="rgb(255, 112, 67)" stroke-width="2px" d="M-1.481352936136838,213.82299204782774L0.6061585448640101,124.1135471960848L1.5812422004178708,81.4180392478732L2.4535247011629293,57.50841721422097L2.549788376257426,126.3786404986196L2.6479076678647164,116.49753548557084L2.9476325566005164,163.43911331326458L4.852922496044968,411.0859033090811L12.73723722328335,380.04791087888486L13.314533794386822,321.12396010560354L15.837886772323516,264.93543929827246L16.388462465642753,239.6924725756209L17.25357943185379,272.43596917104196L18.6940802567628,164.6825272287952L20.639194581366453,293.2647545386382L21.22768194743939,310.3251211095919L21.38109861112795,323.53144825024845L24.314143167143268,299.9428114615597L24.555059286396666,235.29167562003772L25.084766430933556,267.41449071846716L28.632876491074295,208.5118743361242L29.199067911047354,326.0632040814533L29.247114104755546,226.10649528824405L29.577099816623072,314.8311559770665L29.815846291953815,246.55796450056823L29.86377829387661,300.5574363308573L31.084431383939027,300.4027947098208L31.32386300998219,280.24540841997754L31.467544823965167,325.15924438669424L31.862791141190346,208.74337210576599L32.8232297002663,293.58054304749385L32.97884455582387,272.3917995845955L33.026833653639365,296.23532212588236L33.74983894291671,289.67384727466026L34.820615314638054,240.0410651473489L35.45791966897065,291.07721170710744L35.55389786460165,233.00410763554802L37.986496921089525,252.34700034218787L39.15168135139257,177.26715275262794L39.48703407717402,324.36032498899L39.77551107504765,214.51052076899893L40.94409271096644,276.58211003451277L41.089230470213295,239.22751156985464L43.9671203938791,201.7296049620849L44.78396278281113,285.47724519562155L45.80672150877063,181.68639732025298L45.951516692661286,240.15517970406182L48.36867131017345,291.9950418270178L48.51209619263927,216.75185756361185L49.290313210158835,256.7005086014715L50.79042214704807,259.79652422335346L52.14487946165613,342.142343556545L52.54018287477401,299.0361652732115L52.73219636192869,154.4788293473826L53.116908486950464,222.07209760344725L53.64570209720413,263.4393881665275L54.905437325820635,279.8350959279381L55.18472188496935,220.578556714221L55.95788591598484,296.54523559905584L56.73947159117378,291.9803008283972L57.1241551682492,188.15664889015628L57.56779025453879,273.4003509373209L58.00120517603484,125.34798832984634L58.52962766298594,165.25163659438087L58.57770240464048,197.8015774687837L59.16561881178641,179.68290333381847L59.26162555536375,212.66046135081538L61.110219273355746,273.09551135860016L61.686088447141685,238.47068947328358L62.60967160747892,221.10196898408287L63.7280088578205,280.6170738591117L64.69915289677796,129.89966688362946L67.01353490742767,230.99610589446291L67.45557130872162,208.2152384435923L67.5994244103827,221.40817584383512L70.53032787042171,264.94774482755577L71.49998741616895,125.58598068438758L71.59568013233644,208.0957722634671L71.64338375068841,154.53811379835673L74.20461985343246,269.3194229699217L75.17570679649724,224.51649699500044L75.55859185295256,324.64336284438855L77.0692920779379,212.56346985264506L77.88547786410388,101.49136979992988L78.76124321430373,235.53691029129257L79.14547002423753,150.92609913345538L80.659110687697,277.5714874071484L83.08725626455417,275.8888558240223L84.49381358125223,133.63067772580143L85.02166510927631,247.47574121106334L85.79979648295682,215.64591948304292L86.47224335924712,193.20885912029016L87.71713365576126,149.87953095892507L89.65827981582217,248.62519728321223L90.72514511889348,245.80629107163134L90.96509060797094,156.33324697385393L92.74865210417609,181.77289920925995L93.28669524904738,145.85372150810718L94.25712558934607,186.62042319622867L94.35293249729897,60.26596668951436L95.89820428531497,77.07264921971404L97.06041972919755,250.884436913831L97.63620325914444,224.7926023082941L97.73221000272177,246.18355381748808L98.0305931379791,24.722962182146432L99.81680959319485,53.84209585585069L101.17163803110547,112.45924959534076L101.26747348700471,165.69878021920573L101.4704208376117,217.92539060017435L102.19031440073682,167.6840936406748L104.18007771343295,-106.36147487036192L104.32438758223564,122.78549003919937L106.88976313720053,302.8183316533502L107.03398736216417,96.69524703423821L107.5255829983229,161.22215257579094L108.39138511524635,146.424860431474L108.4395169527936,176.90849784705895L109.4895960634107,240.62543892382507L109.63539042542364,179.0810219510096L111.2771828200513,181.44434585014952L111.38360956404664,208.3484415253306L111.71833423500837,-0.7534570947466364L114.47335379758083,-35.42757587037778L115.63417039209223,200.77983601182987L115.87391604554526,102.57340182621408L116.161508057082,157.53245925728885L117.47791095920462,166.31328758778966L118.44006239506163,88.08876839901671L118.69194092571368,99.03921536127626L119.4134046258881,257.30334067187255L119.6528647998776,175.67561626822393L121.73749293829702,158.11169504801396L123.17556718776623,43.48684341760543L123.2727729450903,132.13168907621548L124.0565282642019,283.1252440925236L124.15256355572558,182.27204224081308L124.44009847136965,143.40571164008028L124.53561989985903,98.56538839257155L125.4079024006041,237.92823140592856L126.52526902076976,84.51187576561136L126.95759912030445,143.69149473942485L127.88052567787562,198.39743426954766L128.40694980858217,70.25117733485035L128.50292800421317,67.60446307817097L128.80136823536319,221.50288141903096L129.42565472615988,116.46657938846758L130.3027618298382,52.5690931242483L132.22774985226462,176.42159625349072L133.33435389665607,120.71457200690028L133.5858327560592,200.8858857468337L134.9829977984079,219.79944152770707L135.51653036775576,153.40773556935017L136.0470368547905,256.5433887835654L136.3939800467903,155.745252039021L136.68174334600516,65.83338550332127L137.87107933892088,271.40800883679947L140.72598816577442,241.0768659837563L142.47395037288024,150.592439834243L142.52176818301763,164.49362880879033L142.71401005374312,102.18329945692113L143.70893453201072,159.65251395165666L143.7568665339335,176.54877475318406L143.80476998790994,202.18892593359632L144.18996742801968,159.8507269736884L146.58082938694287,160.70034258838785L146.9166959757586,130.33860682226546L147.06100584456132,102.50640505567179L147.98333289525914,255.17470842540888L150.6218197408281,97.22028295032493L151.06554047095676,177.48380270481852L151.1614330227487,193.4614429270892L151.35367489347416,266.54901250742597L151.64260865848942,130.56848094568235L151.7868328834531,-13.313386104948336L152.12278511610788,38.87423540285715L152.51831691279656,218.27896092940756L152.66268387749196,38.59210550751857L153.2384959553852,166.24485944491755L154.5447643365533,144.81702339352287L154.74853957760448,156.23595638295797L155.27727609196543,114.90678946051312L155.81611857933453,97.83585850721471L159.1038999167034,119.87835147355608L159.78690953314344,238.27904580933273L160.17076521977472,107.21209499939101L160.85431724719544,250.53529956606704L160.90227779706456,218.04054129954395L162.16289801201793,276.4950099600545L162.83503086089837,36.434664222446315L164.0445787998304,120.72948391564981L165.44850970546415,165.72078489830605L165.60335376647026,122.05057648478112L166.86191852928638,132.5891086725425L167.72680711192663,137.43402628004498L167.92995429815807,31.794924224729698L169.14058705905137,-9.470087308066354L171.658316091557,44.95555961060387L172.3797797917314,217.71529932418164L172.7750832048493,64.92076814234332L172.822929562933,160.97520880324674L173.87771908469801,148.78989343190327L174.97964126588792,-51.55927021011672L176.9208730697879,52.34212447302332L177.94049152164882,225.2647201757095L179.43885903381067,90.06718132403L181.99949562968135,187.70850116832392L182.5259197603879,71.84532019872063L183.39746001452784,133.5133051947557L183.88717148622743,152.93865135672337L183.93513203609655,220.13570720638566L184.845868620576,98.9021668016369L185.9596096515551,259.659443618065L186.88142283921863,16.84088612841373L188.33177270561862,131.61312638126213L188.77255299727312,183.1170432820313L188.91637755098785,122.77472270107654L189.2516731808766,281.65296015058357L189.73085046037278,189.80516253879384L189.8745037264094,223.78686029081302L190.1282093256279,229.09039386554508L190.61064107100808,1.1906028943509455L191.7765962958626,52.928880309421515L192.20872655977286,260.85129608407266L193.13288067903707,264.02785310421507L194.1818464197465,130.6838452827131L197.18386281414507,208.21438389294764L198.88711893726577,178.9693321817509L199.70376149057333,255.70666620171744L200.19501455137586,121.51152593812176L200.43476020482888,-4.766085101870374L200.96395348633143,270.80827451248524L201.26407804631617,203.6016904231349L201.60091526530786,211.7828378387368L202.47802236898616,106.61497773642611L202.71802495395636,130.01276666145188L202.95842721017544,159.86702752723554L203.83570560153186,-44.47705355979747L204.36404244464393,146.34190492764242L204.5085236011247,224.41403637270423L205.4810950373997,171.46804389528424L205.86512201170908,77.18335625573133L206.35748844241925,158.33283139108903L208.0521516336884,144.61810536720927L208.29252534196112,212.91654881525758L211.4967182924152,92.17593458612203L211.5450499655869,136.4369365878412L213.0907499727982,99.17305935599808L215.17829000174538,88.81344870946504L215.56191730480583,266.0823958097857L215.9569352384602,91.12635412056926L216.00469595270488,188.13543467040228L217.64760171724024,31.2189570902205L218.17582436856688,57.89067908134905L218.76202789893176,157.07860740990336L219.58863368551576,117.97612173851527L222.4910462950968,181.92973061632344L223.6543180129943,267.0788339071229L225.10412546841366,156.7858810865708L225.2957678322658,70.36476847929345L225.9772073116565,174.37191380471168L226.80444115306025,217.5675688814839L227.09146220566998,125.17938548765247L229.11748141023148,241.37052163091494L229.89698308533679,236.6940573192435L230.43742425770157,295.0839112691338L230.87152432991,151.5381496689359L231.2576067563566,151.38603965418417L232.230863343344,218.28859598792624L232.3268129910287,13.806889519568813L232.4707517365288,109.92552829765316L232.56675848010616,70.8939276022407L232.86648336884193,155.47831178139143L233.8288346403234,203.1443135543401L233.97323015296516,45.06062661236638L234.2247090123683,132.05360451105852L234.65632541324425,219.44772984612604L238.2846552026304,199.14292288819374L239.25465732373382,-156.76953738816928L239.30256077771026,132.7735207016628L239.3986246171803,56.47058682003245L240.07192793186113,87.85786881482619L240.26408415874758,121.36770506462341L240.70643458745133,175.85069233155116L240.75445223321321,139.93967558905507L240.9943977222907,81.66306028146693L241.23414337574368,132.64341536601145L241.96471387080396,182.3536518273793L243.4654508625129,253.7179345776697L244.05345291349792,200.5495773406229L244.39026158454325,167.81009713323172L244.63080658049407,-5.091754352555029L245.31501521068085,84.116389727257L245.7477449814645,290.2060934618114L247.23492169865685,209.50904948339246L247.57527031504966,37.61185046301483L247.62385891973852,110.35017587675702L248.0682077046869,197.30991175537142L249.90164246316667,100.4879137054233L250.2969173283382,9.50627794519039L250.3450206179391,129.45423236009398L250.53717684482555,-3.9001262060916133L252.08570309872553,-73.97400543727741L254.36802576562343,82.35315265457211L254.56072440349052,31.26796556969248L255.67717748937292,169.50821744679251L256.5535423464462,244.61921340735074L256.6979949549806,154.27031899008253L257.71718518764624,206.4370467346257L258.47587540986194,70.78469466608544L259.6759168826592,112.19156160589714L260.0116978276359,104.953731283183L260.8392171485031,268.79716434343015L260.93562356332933,87.21490490977465L261.0800190759711,207.79377406563987L262.10220684300356,110.98628201288506L262.1984990660444,183.8041020003479L262.43921534967336,85.90368240058933L262.9788571795403,232.35109207853853L263.55606810680473,134.7486863342264L264.383187756423,254.7170751914207L265.2852457652118,249.80105897028145L265.5740082425489,28.262340042250628L266.0556406454313,-82.08369105521865L266.93266210527054,145.45176224861945L266.98087958665684,230.2444004198768L268.28940325558665,58.06977153270623L268.6742295723938,207.95348958112916L269.1662819756942,71.51717275116641L269.6949899421088,310.36016836790657L270.73890269631414,141.4019612884524L271.6144682108895,200.00584812918396L273.1634226839848,191.56333639890897L273.49917508101515,215.93708625144893L276.0413982514896,91.57484366265942L276.1374335430133,90.11497206883331L276.6174101650073,211.31702228232587L276.95404754837455,282.0111236895319L278.2632563680168,93.478312496135L279.50823230837,211.43751392322469L280.00282547889555,268.84398303687516L280.7700515370701,163.9823297943167L280.86545877377404,203.10793106064315L281.2100039382804,63.85971533438584L282.7540481646034,-57.674648261053676L283.5325792095328,218.249778024892L283.77215357530775,161.03039141112643L285.84544817902594,226.68857245986266L286.00060626744187,239.61220890632003L286.9600171004492,151.61691787460853L287.25917103025796,27.102287542107888L287.30696029244905,216.70410954634076L288.56678116490457,45.7604181352886L288.9027333975594,7.207536711021646L292.16681993945724,173.85540203130554L292.610797601103,117.51436529766659L292.9494904366075,181.85089831935244L293.44245637419107,13.636663031150022L293.5861952840667,285.0444900672764L294.64869275134635,155.65571649522542L295.17662992320953,235.6728372532108L295.7055662731949,248.3943083809048L296.29328284471643,297.7990963962176L296.3413575863709,160.2689440591911L296.4856389072273,90.61900740282721L297.64836821414417,214.50701711135576L297.9361600613054,120.6260191963461L299.0533839417393,212.81763457813676L299.54535070120056,144.24838403079173L299.95629838891864,119.13318331140172L302.9106682608579,2.429701329125919L303.35675847053363,274.8861474613298L303.79014484408333,72.99695537501339L305.4869205833824,153.82655084030412L306.858106994552,185.74156058571532L307.0028165346036,173.32314516227135L308.93999453012174,163.8906578739095L310.1090900290749,0.3246439985721281L313.3055750340142,187.7648587833401L315.5834442212814,80.23175204293898L317.32058675672033,143.13635727687952L317.56116030061753,164.19331834848634L317.6091779463794,216.70233635375308L317.70547016942027,170.06185944570964L318.3887081694311,212.19451761180775L318.9660903843736,125.32581274061707L320.08168703186556,211.02100593901136L320.36950742697314,151.49146983997062L321.10073452479946,292.1806929545729L321.3887833034778,133.20429968164217L321.88177778900774,238.3763791277609L323.04927460296517,174.74733926668242L323.86400444386726,151.4851888927323L325.1618226329156,220.77433426691547L326.66381573426395,200.1035446316361L327.0091887892145,207.21586282841403L327.53798239946815,158.0664465913785L328.5129518632366,99.6631441507177L328.8488184520524,181.91050322681832L329.08844991372,17.91360355267102L331.1297422695791,116.15212611499427L332.8787607506999,183.99045813218484L334.2350451338744,223.31408014664802L334.33093768566636,199.18321495109006L334.3789838793746,218.69989121320708L334.47507626679095,249.85357110739656L335.543140583609,192.0598730509959L335.8337015815662,141.85940224854554L336.07804345438166,235.57620893906446L337.4855428533093,249.40645952822092L338.166325729934,235.53773279628808L338.6978599430373,65.83770098407683L339.19196779847493,-8.82477338874196L339.384095477415,295.670122329496L339.4323986026404,204.5768608913028L340.7875410679608,246.6878241529093L341.21955714008567,195.02027148556837L342.3403780617598,149.96893832012393L342.388509899307,206.7904888812622L343.1882806163214,70.08225403616473L344.69592621104715,261.34044087308314L345.1272571324596,224.49376594785215L345.9547764533268,183.50419745160013L346.19492177802874,35.47491839341478L346.6277371926514,110.26734855552215L347.04585041490344,46.10522932041391L347.4309622111742,140.77888704965562L348.2615361623009,-63.48631901287405L349.7123427958425,184.73851040276497L350.1934042397978,227.5951225112634L351.9985479834441,212.15775057032073L352.44032745322085,170.4510859005918L352.48837364692906,139.71377512613594L352.7882412753966,17.94855467403812L353.5589216350796,199.5025177994719L353.8954733746078,63.47790210634622L355.25846652517464,250.06259419508342L355.30611304763397,303.2830897033383L355.7386144348468,59.973667641504164L355.9787597595487,216.09199491956193L356.73025589928403,245.6149999098214L357.1654693414002,234.12134714839274L357.85053440997746,52.44048325222508L359.7185121835416,137.8905699619612L359.86490605242784,58.478674016182026L360.30808437157583,135.57610499593048L361.7348821822365,305.61610910024154L361.9292080530456,252.81269839788513L362.36527793355225,286.4072312984524L363.04934382400734,178.32581281878038L363.3361935889389,242.93487272293532L363.4323716201944,93.90285325640826L365.30049213349025,287.2920864453616L365.60127329624106,206.89384678173536L365.8895504584902,218.7211695242594L365.9854430102821,101.74756408320263L366.51283777116464,92.41980197634541L366.7531258355983,180.48329683138482L367.4654541929405,46.00456325447152L367.89915459390005,240.13656118189104L368.68162525542584,259.95918793856686L369.89594070139844,175.7128319487994L370.8192669302185,222.91135179158002L371.25139719412874,147.67011163089066L372.1545971207716,240.7145685560644L373.4627211184525,88.7970199733212L374.58414154699994,122.97364072739015L374.68051941387984,261.93266583360725L374.7288225391052,232.34217270618478L377.2005893779862,249.67556820811132L377.58470199613464,244.18043369696065L377.72881202931285,186.54896139856794L378.3874131516231,167.09436824078637L380.2295550337398,163.81041556837476L381.7395415600664,-8.684712538080134L382.7016929959234,228.15750229052233L383.62539034804604,204.6232629913085L385.12315835333453,159.3240887751429L385.5195751363601,187.66515408687292L385.61578171556187,171.97767653600073L387.2582878088483,93.9923033451393L388.2976043436912,42.46988542291302L388.9733627817581,177.74335109937167L389.27108931424937,139.3458269823061L390.62214942324175,133.3089607718484L390.7666305797225,255.79215331183386L390.81513354057233,261.199952747099L391.10366763433865,164.78203965136728L391.1998456655941,36.142792449758474L392.02585194530474,200.57254338919847L392.40887974149183,64.34072052850581L393.0647973568451,183.2640900842133L393.79000083799144,13.525272354617016L394.5706444309508,153.5260694698712L396.45492308188113,70.61679682817345L397.04249691367085,254.4670336727895L397.13818962983834,166.04666778665188L397.61688159424654,132.2509416186795L398.1580079173237,231.10433473361067L398.49607269800845,113.00618337169726L398.83322394441,124.1956481492717L398.92945907155814,80.2978301715383L399.75572228278594,190.92188932125174L400.6825313610608,270.1431884276198L402.4254405816626,104.31681332394254L403.95389762927806,246.3180600889595L404.25393654542364,135.07920515981957L404.685581494246,3.6917444487103808L406.1359028126996,134.96548583277976L407.25583874803687,238.35045419757816L407.303884941745,99.65147953441794L408.1775091959686,201.4315590609893L409.53907494921793,168.9370571596596L409.7795343013297,247.0130874920377L411.31347255464453,193.44112598551212L411.7120875295391,246.5867094478784L411.9530036487925,196.28442961799843L412.04901039236984,131.32490781258025L412.0968567504536,217.05731669155L413.0662593646837,234.4848943564025L413.30697564831263,191.14543976989802L413.9828768261113,128.30981813674867L414.4745010102164,198.20612174397164L414.7146463349183,228.0362415540433L415.0513122662319,214.42782163036074L415.97532364576443,155.0781898057897L416.56520986120853,152.1453933570401L418.2571039016816,181.94592435104L418.69069011085577,247.48884788157602L421.02063075226664,288.81901890102836L421.2613755838419,220.13427583405584L421.99611407906934,198.4892557363177L422.75243482173795,162.27186122394042L422.94641811719083,152.9658901585223L423.7212379290947,190.49869447824383L424.35671521486086,231.09185829419846L425.3280590894428,144.57411737277474L425.7609601479045,104.13861815076217L426.1454438893555,264.08866506446657L427.89945826108766,146.0791733319379L428.87214388914805,227.12629466382998L429.01631101821897,79.19195618226769L429.78347998050083,150.3990977508859L430.5624392446255,148.76150098673403L434.21740426795685,43.53679190278655L434.64890647704743,279.4217070535778L434.6969812187019,98.31645778977844L436.1523555236597,236.7160726802269L437.07445419078664,193.33971218775562L437.2184500321795,218.31696706932937L438.2879417463151,116.00069974075831L441.6570276348907,193.0445717588519L441.9486449068629,199.62683355450562L442.04587921213334,140.63243843292489L443.06538347220885,242.08424232934533L444.13090702180165,142.44410716339652L445.53603694118215,82.29115500530116L447.7708558253525,10.380654164819248L449.1268547290635,349.00301795223294L451.99323983035003,249.55162631898463L452.77308408081154,80.98574344049956L454.27516282599896,226.79808312497744L454.65956092361097,187.48245115904197L455.68017855359415,138.98879572296195L456.89469383519116,300.14712383881783L457.14617269459427,119.43821516401755L457.77054482923006,231.29389543036513L458.40516567660563,254.43097163558434L458.6935284826939,111.10279999328614L460.72679886562844,204.30357559513658L460.7865782652868,-88.1402760218021L461.0274943845402,283.19347996150066L461.7488724408755,166.01116120736572L464.61320209002474,15.608581371263881L465.4315289721671,59.15094900834583L466.74364968233704,71.56457894817959L466.7918957116697,186.86431195021817L467.1947072346778,206.66046900067533L467.77320281952797,104.71150890295058L468.36211840479615,101.00179773559705L469.0834964611316,273.4015259444574L469.276223646945,169.20451014767593L470.10611244735935,256.10548498758607L471.19915621723413,143.9041496673516L472.0800031018845,250.77394351547488L472.79889748688726,266.1391379725919L473.2922059998271,315.0173198350084L473.4377719782692,-29.5698448388095L474.0204355632866,169.3171612864099L474.0685103049411,127.89414333941389L474.26135168254,158.3136040015839L475.6266857647077,-42.77918961143001L476.88233863699605,87.63837748174211L478.47714111193045,-22.687251219085624L479.2175606484817,332.5125672290359L480.9685203899544,332.4526365241367L481.2085800708172,-4.093083741658575L483.7426099806891,209.16613967345154L483.9341667007022,74.90431241392224L484.90088580797527,200.05797571850897L487.2706793824917,274.59016316366444L488.5285589945954,20.140306167493918L488.67241209625644,255.501381773101L490.7135331644374,124.04810998046901L491.4807306746656,92.18783420384904L493.18193134564905,179.0726046271596L493.90239586770116,138.5338329597384L494.29707122599933,242.14332382454137L494.58480597726793,109.8742979865051L496.42041037967033,71.33634983475372L497.24713035803967,35.76029558120308L497.3902412130957,168.58991732402754L497.5332378763663,181.76969464434242L498.1656034359802,135.99308298299835L499.4709297349187,232.83743821418773L500.3463239618159,234.9201810910325L500.68224764652444,250.89354856007986L501.0186280983745,23.16558635976321L502.0867780590316,82.73150495250081L503.1091371137422,163.88159963707596L503.73696354988635,76.35950534296876L505.4453297554038,-86.79354693333062L506.562981855033,102.48489174319212L506.70777703892367,110.34673631041224L507.3342617215893,90.42647714258254L507.52696035945644,-49.33248214022933L507.8269992756021,45.38813314693709L509.93583607252685,247.77744031616493L509.9838251703424,184.9933587687724L510.90857879648,128.74568169306386L511.05320269269254,261.46585686207186L511.45138944839186,207.8605358347549L511.4995783818318,172.12181786599086L511.5477958632181,112.34100114988422L511.8365868885016,122.06326656185453L512.8101860508452,271.51335356752145L512.9059073149591,232.01823392055556L513.7818154048906,191.8736237379895L516.2100180776405,141.50771193073058L516.8827789813406,204.9735005730275L517.1715985545704,72.59879886589442L519.0400330952763,181.3985632993612L521.0234302159362,256.1411731588842L522.3880791473914,134.84283645150316L523.719698104919,41.28804188133108L523.9594723063183,22.716776361181246L524.2470072219623,256.9091578232513L525.3667433216751,236.3262053123612L526.5768336715877,182.1254868052518L527.153302352247,262.14910214813665L527.2014056418479,151.80991813770783L527.500416831925,227.12170145411488L527.9332036986013,65.17719742704344L528.7620076770544,71.10218159434737L529.3374771795912,-1.7793024161435937L529.6262682048748,194.1322010918587L530.5998959151648,248.4931264810781L530.7920806899976,196.8663572432542L531.9558377229831,39.95682288706041L532.0521013980776,61.68264074825231L532.4962788953478,227.40084042219712L534.9539715966779,145.9829509293478L536.1189561913566,195.2379682622987L537.4633646288491,74.37946877173056L539.1752422317677,129.8089136051653L539.2233169734224,233.73753640822116L540.3863888556954,126.60921962631832L540.4823955992728,261.3642401085373L540.5306987244982,215.4364477562676L541.9843316047284,336.10885816207525L543.4095592783398,119.03217542520144L543.6586686581959,228.06495445570428L544.408280633472,84.03196012356335L544.6980993848242,178.78615925106538L546.1584695803932,74.52068326576267L546.2065728699941,190.91712520140769L546.5915990224258,115.78791663023489L546.7840121808293,19.44354829936026L547.0721466033467,136.72141649745265L547.8504492647054,139.96227845360667L549.9394737868629,22.564196343574963L550.5175697004642,161.57877792357885L551.0590100509511,154.44037456837233L551.5407566456189,62.12760526893322L551.5890026749515,145.63401653736193L551.781901148443,84.10628466588372L551.9749423616663,207.19174313646815L552.1793456575373,120.51033440282356L552.9976439917332,98.06019941520731L553.2976543599325,159.6465961884423L553.490295901907,213.86721504368953L553.5868165085186,195.32876426829515L554.8231709690739,214.8654583792636L555.7500942391341,249.08863077970113L556.085732444379,90.0470780201141L556.1337215421946,171.46539478828575L557.1289885958184,219.56608511041316L557.2748115057776,161.35890204270464L558.8270204447568,245.1572384932365L558.8750380905187,154.85357116883756L558.9232555719051,77.49695497855998L560.0901528789891,277.03770302883686L560.7769308243473,146.04858041885865L563.2577759101679,231.67124363128633L563.8355007004667,137.45355276227576L567.1374989151182,297.64760593068326L569.1985179019056,190.41364532533282L569.3912450877191,255.731640444308L570.3648727980091,106.9791872211855L571.5296575570632,64.28350836284505L571.6260354239431,152.06532196163428L572.4536689365957,108.73392151495585L574.274371311003,142.97256128206192L574.8639720469837,219.19890606216353L575.7399657807543,229.12609271872626L575.9797114342073,65.05339440239652L576.0764033284971,73.7592359138273L576.5584924985211,87.31894645076352L577.4369413556778,109.93999156731428L578.216757058193,159.78274746990473L578.5532802497748,242.8888551707197L579.380314255554,63.88385639009789L579.6683059383398,179.01261517190358L580.2209370837963,208.2097693194664L582.5341771765919,275.09308758182027L582.7744366930792,142.95884574421495L583.5580207245127,103.89432348521643L583.847525448455,128.6934259211421L584.3294718787472,242.21499925986328L584.7257744699873,265.1590752019832L585.2068359139428,200.42534704065363L585.5435018452563,171.66365053784975L586.0369530979278,235.14221471228453L586.085484606724,282.4594957309085L586.1339019237347,103.16624633595558L586.761414332469,227.32211494405666L587.6907070820764,155.8132742703369L588.6642776964737,229.61906162187165L589.1943274163667,313.609714694987L591.4829020835155,239.37890589844142L592.0723886277107,156.1356535010396L592.6017817448377,180.56249231237982L594.4137769956081,123.45419728242169L595.9642159619136,-9.042940168326822L597.4682074195066,241.38128896903783L599.2721236014597,162.9250583729619L600.4385926893485,218.04690770184678L600.9746374779753,173.9982828990948L601.2638567224541,122.50784653474534L602.0035054644538,195.629779732881L602.8227173329329,238.70882069230458L603.5085246481154,92.46398224467498L603.6530343525426,305.7651640964385L604.5814135678667,218.71234628885318L605.5086794132832,244.36880870469562L605.8938483054466,234.53092259050115L609.5291152457959,151.87405216359048L611.1302553648203,158.47776318042548L611.5149389418956,131.16359001463223L611.8154060772366,105.26878274210759L613.0852758268076,26.85211784088L613.1561032817036,184.25921430993432L613.4959951309548,157.5381206553098L614.997560013108,227.1261664812333L615.2870932849966,178.52191082796656L616.3107084493465,197.31206949574923L616.9011941716641,184.21091083474423L617.7205487798749,173.55955659811997L617.9245809524433,241.31124786182386L626.2354590940535,239.67521065259854L626.8641705165345,111.1367042901135L627.3567653308156,165.0908742543519L627.549007201541,73.41284381000935L627.8365992130779,175.8791702317849L628.8778570082725,134.03131243179L629.979493709999,131.26553790654162L630.6056643652548,284.4765557088271L630.713061739426,260.4700489958351" style="fill: none;" fill="none"></path></g></g></g></g></g></g><g transform="translate(68, 365)" clip-path="url(#clip_1)"><clipPath id="clip_1"><rect width="894" height="34"></rect></clipPath><g><g visibility="inherit"><g><g transform="translate(10.713130731127364,0)" style="visibility: hidden;"><text transform="translate(0,14.171875)" style="text-anchor: middle; font-family: &quot;Helvetica Neue&quot;, sans-serif; font-size: 12px; font-weight: 200;" fill="rgb(50, 49, 63)" stroke="none" stroke-width="1px">02 PM</text></g><g transform="translate(72.81256489348056,0)" style="visibility: inherit;"><text transform="translate(0,14.171875)" style="text-anchor: middle; font-family: &quot;Helvetica Neue&quot;, sans-serif; font-size: 12px; font-weight: 200;" fill="rgb(50, 49, 63)" stroke="none" stroke-width="1px">03 PM</text></g><g transform="translate(175.58517175593224,0)" style="visibility: inherit;"><text transform="translate(0,14.171875)" style="text-anchor: middle; font-family: &quot;Helvetica Neue&quot;, sans-serif; font-size: 12px; font-weight: 200;" fill="rgb(50, 49, 63)" stroke="none" stroke-width="1px">04 PM</text></g><g transform="translate(278.35777861838386,0)" style="visibility: inherit;"><text transform="translate(0,14.171875)" style="text-anchor: middle; font-family: &quot;Helvetica Neue&quot;, sans-serif; font-size: 12px; font-weight: 200;" fill="rgb(50, 49, 63)" stroke="none" stroke-width="1px">05 PM</text></g><g transform="translate(381.13038548083557,0)" style="visibility: inherit;"><text transform="translate(0,14.171875)" style="text-anchor: middle; font-family: &quot;Helvetica Neue&quot;, sans-serif; font-size: 12px; font-weight: 200;" fill="rgb(50, 49, 63)" stroke="none" stroke-width="1px">06 PM</text></g><g transform="translate(483.9029923432872,0)" style="visibility: inherit;"><text transform="translate(0,14.171875)" style="text-anchor: middle; font-family: &quot;Helvetica Neue&quot;, sans-serif; font-size: 12px; font-weight: 200;" fill="rgb(50, 49, 63)" stroke="none" stroke-width="1px">07 PM</text></g><g transform="translate(586.6755992057389,0)" style="visibility: inherit;"><text transform="translate(0,14.171875)" style="text-anchor: middle; font-family: &quot;Helvetica Neue&quot;, sans-serif; font-size: 12px; font-weight: 200;" fill="rgb(50, 49, 63)" stroke="none" stroke-width="1px">08 PM</text></g><g transform="translate(689.4482060681906,0)" style="visibility: inherit;"><text transform="translate(0,14.171875)" style="text-anchor: middle; font-family: &quot;Helvetica Neue&quot;, sans-serif; font-size: 12px; font-weight: 200;" fill="rgb(50, 49, 63)" stroke="none" stroke-width="1px">09 PM</text></g><g transform="translate(792.2208129306423,0)" style="visibility: inherit;"><text transform="translate(0,14.171875)" style="text-anchor: middle; font-family: &quot;Helvetica Neue&quot;, sans-serif; font-size: 12px; font-weight: 200;" fill="rgb(50, 49, 63)" stroke="none" stroke-width="1px">10 PM</text></g><g transform="translate(869.147308180934,0)" style="visibility: inherit;"><text transform="translate(0,14.171875)" style="text-anchor: middle; font-family: &quot;Helvetica Neue&quot;, sans-serif; font-size: 12px; font-weight: 200;" fill="rgb(50, 49, 63)" stroke="none" stroke-width="1px">11 PM</text></g></g><g><line x1="0" y1="0" x2="0" y2="17.171875" fill="rgb(0, 0, 0)" stroke="rgb(204, 204, 204)" stroke-width="1px"></line><line x1="21.42626146225473" y1="0" x2="21.42626146225473" y2="17.171875" fill="rgb(0, 0, 0)" stroke="rgb(204, 204, 204)" stroke-width="1px"></line><line x1="124.1988683247064" y1="0" x2="124.1988683247064" y2="17.171875" fill="rgb(0, 0, 0)" stroke="rgb(204, 204, 204)" stroke-width="1px"></line><line x1="226.97147518715806" y1="0" x2="226.97147518715806" y2="17.171875" fill="rgb(0, 0, 0)" stroke="rgb(204, 204, 204)" stroke-width="1px"></line><line x1="329.7440820496097" y1="0" x2="329.7440820496097" y2="17.171875" fill="rgb(0, 0, 0)" stroke="rgb(204, 204, 204)" stroke-width="1px"></line><line x1="432.5166889120614" y1="0" x2="432.5166889120614" y2="17.171875" fill="rgb(0, 0, 0)" stroke="rgb(204, 204, 204)" stroke-width="1px"></line><line x1="535.289295774513" y1="0" x2="535.289295774513" y2="17.171875" fill="rgb(0, 0, 0)" stroke="rgb(204, 204, 204)" stroke-width="1px"></line><line x1="638.0619026369648" y1="0" x2="638.0619026369648" y2="17.171875" fill="rgb(0, 0, 0)" stroke="rgb(204, 204, 204)" stroke-width="1px"></line><line x1="740.8345094994164" y1="0" x2="740.8345094994164" y2="17.171875" fill="rgb(0, 0, 0)" stroke="rgb(204, 204, 204)" stroke-width="1px"></line><line x1="843.6071163618681" y1="0" x2="843.6071163618681" y2="17.171875" fill="rgb(0, 0, 0)" stroke="rgb(204, 204, 204)" stroke-width="1px"></line><line x1="894.6875" y1="0" x2="894.6875" y2="17.171875" fill="rgb(0, 0, 0)" stroke="rgb(204, 204, 204)" stroke-width="1px"></line></g><line x1="0" y1="0" x2="894.6875" y2="0" style="visibility: inherit;" fill="rgb(0, 0, 0)" stroke="rgb(204, 204, 204)" stroke-width="1px"></line></g><g visibility="inherit"><g><g transform="translate(10.713130731127364,0)" style="visibility: hidden;"><text transform="translate(0,31.34375)" style="text-anchor: middle; font-family: &quot;Helvetica Neue&quot;, sans-serif; font-size: 12px; font-weight: 200;" fill="rgb(50, 49, 63)" stroke="none" stroke-width="1px">April 30, 2020</text></g><g transform="translate(72.81256489348056,0)" style="visibility: inherit;"><text transform="translate(0,31.34375)" style="text-anchor: middle; font-family: &quot;Helvetica Neue&quot;, sans-serif; font-size: 12px; font-weight: 200;" fill="rgb(50, 49, 63)" stroke="none" stroke-width="1px">April 30, 2020</text></g><g transform="translate(175.58517175593224,0)" style="visibility: inherit;"><text transform="translate(0,31.34375)" style="text-anchor: middle; font-family: &quot;Helvetica Neue&quot;, sans-serif; font-size: 12px; font-weight: 200;" fill="rgb(50, 49, 63)" stroke="none" stroke-width="1px">April 30, 2020</text></g><g transform="translate(278.35777861838386,0)" style="visibility: inherit;"><text transform="translate(0,31.34375)" style="text-anchor: middle; font-family: &quot;Helvetica Neue&quot;, sans-serif; font-size: 12px; font-weight: 200;" fill="rgb(50, 49, 63)" stroke="none" stroke-width="1px">April 30, 2020</text></g><g transform="translate(381.13038548083557,0)" style="visibility: inherit;"><text transform="translate(0,31.34375)" style="text-anchor: middle; font-family: &quot;Helvetica Neue&quot;, sans-serif; font-size: 12px; font-weight: 200;" fill="rgb(50, 49, 63)" stroke="none" stroke-width="1px">April 30, 2020</text></g><g transform="translate(483.9029923432872,0)" style="visibility: inherit;"><text transform="translate(0,31.34375)" style="text-anchor: middle; font-family: &quot;Helvetica Neue&quot;, sans-serif; font-size: 12px; font-weight: 200;" fill="rgb(50, 49, 63)" stroke="none" stroke-width="1px">April 30, 2020</text></g><g transform="translate(586.6755992057389,0)" style="visibility: inherit;"><text transform="translate(0,31.34375)" style="text-anchor: middle; font-family: &quot;Helvetica Neue&quot;, sans-serif; font-size: 12px; font-weight: 200;" fill="rgb(50, 49, 63)" stroke="none" stroke-width="1px">April 30, 2020</text></g><g transform="translate(689.4482060681906,0)" style="visibility: inherit;"><text transform="translate(0,31.34375)" style="text-anchor: middle; font-family: &quot;Helvetica Neue&quot;, sans-serif; font-size: 12px; font-weight: 200;" fill="rgb(50, 49, 63)" stroke="none" stroke-width="1px">April 30, 2020</text></g><g transform="translate(792.2208129306423,0)" style="visibility: inherit;"><text transform="translate(0,31.34375)" style="text-anchor: middle; font-family: &quot;Helvetica Neue&quot;, sans-serif; font-size: 12px; font-weight: 200;" fill="rgb(50, 49, 63)" stroke="none" stroke-width="1px">April 30, 2020</text></g><g transform="translate(869.147308180934,0)" style="visibility: hidden;"><text transform="translate(0,31.34375)" style="text-anchor: middle; font-family: &quot;Helvetica Neue&quot;, sans-serif; font-size: 12px; font-weight: 200;" fill="rgb(50, 49, 63)" stroke="none" stroke-width="1px">April 30, 2020</text></g></g><g><line x1="0" y1="17.171875" x2="0" y2="34.34375" fill="rgb(0, 0, 0)" stroke="rgb(204, 204, 204)" stroke-width="1px"></line><line x1="21.42626146225473" y1="17.171875" x2="21.42626146225473" y2="34.34375" fill="rgb(0, 0, 0)" stroke="rgb(204, 204, 204)" stroke-width="1px"></line><line x1="124.1988683247064" y1="17.171875" x2="124.1988683247064" y2="34.34375" fill="rgb(0, 0, 0)" stroke="rgb(204, 204, 204)" stroke-width="1px"></line><line x1="226.97147518715806" y1="17.171875" x2="226.97147518715806" y2="34.34375" fill="rgb(0, 0, 0)" stroke="rgb(204, 204, 204)" stroke-width="1px"></line><line x1="329.7440820496097" y1="17.171875" x2="329.7440820496097" y2="34.34375" fill="rgb(0, 0, 0)" stroke="rgb(204, 204, 204)" stroke-width="1px"></line><line x1="432.5166889120614" y1="17.171875" x2="432.5166889120614" y2="34.34375" fill="rgb(0, 0, 0)" stroke="rgb(204, 204, 204)" stroke-width="1px"></line><line x1="535.289295774513" y1="17.171875" x2="535.289295774513" y2="34.34375" fill="rgb(0, 0, 0)" stroke="rgb(204, 204, 204)" stroke-width="1px"></line><line x1="638.0619026369648" y1="17.171875" x2="638.0619026369648" y2="34.34375" fill="rgb(0, 0, 0)" stroke="rgb(204, 204, 204)" stroke-width="1px"></line><line x1="740.8345094994164" y1="17.171875" x2="740.8345094994164" y2="34.34375" fill="rgb(0, 0, 0)" stroke="rgb(204, 204, 204)" stroke-width="1px"></line><line x1="843.6071163618681" y1="17.171875" x2="843.6071163618681" y2="34.34375" fill="rgb(0, 0, 0)" stroke="rgb(204, 204, 204)" stroke-width="1px"></line><line x1="894.6875" y1="17.171875" x2="894.6875" y2="34.34375" fill="rgb(0, 0, 0)" stroke="rgb(204, 204, 204)" stroke-width="1px"></line></g><line x1="0" y1="17.171875" x2="894.6875" y2="17.171875" style="visibility: inherit;" fill="rgb(0, 0, 0)" stroke="rgb(204, 204, 204)" stroke-width="1px"></line></g></g></g></g></g></svg>