<svg viewBox="0 0 963 400" xmlns="http://www.w3.org/2000/svg"><g><g><g><g><g><line x1="58.59375" y1="365.65625" x2="53.59375" y2="365.65625" style="visibility: inherit;" fill="rgb(0, 0, 0)" stroke="rgb(204, 204, 204)" stroke-width="1px"></line><line x1="58.59375" y1="319.94921875" x2="53.59375" y2="319.94921875" style="visibility: inherit;" fill="rgb(0, 0, 0)" stroke="rgb(204, 204, 204)" stroke-width="1px"></line><line x1="58.59375" y1="274.2421875" x2="53.59375" y2="274.2421875" style="visibility: inherit;" fill="rgb(0, 0, 0)" stroke="rgb(204, 204, 204)" stroke-width="1px"></line><line x1="58.59375" y1="228.53515625" x2="53.59375" y2="228.53515625" style="visibility: inherit;" fill="rgb(0, 0, 0)" stroke="rgb(204, 204, 204)" stroke-width="1px"></line><line x1="58.59375" y1="182.828125" x2="53.59375" y2="182.828125" style="visibility: inherit;" fill="rgb(0, 0, 0)" stroke="rgb(204, 204, 204)" stroke-width="1px"></line><line x1="58.59375" y1="137.12109375" x2="53.59375" y2="137.12109375" style="visibility: inherit;" fill="rgb(0, 0, 0)" stroke="rgb(204, 204, 204)" stroke-width="1px"></line><line x1="58.59375" y1="91.4140625" x2="53.59375" y2="91.4140625" style="visibility: inherit;" fill="rgb(0, 0, 0)" stroke="rgb(204, 204, 204)" stroke-width="1px"></line><line x1="58.59375" y1="45.70703125" x2="53.59375" y2="45.70703125" style="visibility: inherit;" fill="rgb(0, 0, 0)" stroke="rgb(204, 204, 204)" stroke-width="1px"></line><line x1="58.59375" y1="0" x2="53.59375" y2="0" style="visibility: inherit;" fill="rgb(0, 0, 0)" stroke="rgb(204, 204, 204)" stroke-width="1px"></line></g><g transform="translate(48.59375, 0)"><text x="0" y="365.65625" dx="0em" dy="0.3em" style="text-anchor: end; visibility: hidden; font-family: &quot;Helvetica Neue&quot;, sans-serif; font-size: 12px; font-weight: 200;" fill="rgb(50, 49, 63)" stroke="none" stroke-width="1px">-1e+3</text><text x="0" y="319.94921875" dx="0em" dy="0.3em" style="text-anchor: end; visibility: inherit; font-family: &quot;Helvetica Neue&quot;, sans-serif; font-size: 12px; font-weight: 200;" fill="rgb(50, 49, 63)" stroke="none" stroke-width="1px">0</text><text x="0" y="274.2421875" dx="0em" dy="0.3em" style="text-anchor: end; visibility: inherit; font-family: &quot;Helvetica Neue&quot;, sans-serif; font-size: 12px; font-weight: 200;" fill="rgb(50, 49, 63)" stroke="none" stroke-width="1px">1e+3</text><text x="0" y="228.53515625" dx="0em" dy="0.3em" style="text-anchor: end; visibility: inherit; font-family: &quot;Helvetica Neue&quot;, sans-serif; font-size: 12px; font-weight: 200;" fill="rgb(50, 49, 63)" stroke="none" stroke-width="1px">2e+3</text><text x="0" y="182.828125" dx="0em" dy="0.3em" style="text-anchor: end; visibility: inherit; font-family: &quot;Helvetica Neue&quot;, sans-serif; font-size: 12px; font-weight: 200;" fill="rgb(50, 49, 63)" stroke="none" stroke-width="1px">3e+3</text><text x="0" y="137.12109375" dx="0em" dy="0.3em" style="text-anchor: end; visibility: inherit; font-family: &quot;Helvetica Neue&quot;, sans-serif; font-size: 12px; font-weight: 200;" fill="rgb(50, 49, 63)" stroke="none" stroke-width="1px">4e+3</text><text x="0" y="91.4140625" dx="0em" dy="0.3em" style="text-anchor: end; visibility: inherit; font-family: &quot;Helvetica Neue&quot;, sans-serif; font-size: 12px; font-weight: 200;" fill="rgb(50, 49, 63)" stroke="none" stroke-width="1px">5e+3</text><text x="0" y="45.70703125" dx="0em" dy="0.3em" style="text-anchor: end; visibility: inherit; font-family: &quot;Helvetica Neue&quot;, sans-serif; font-size: 12px; font-weight: 200;" fill="rgb(50, 49, 63)" stroke="none" stroke-width="1px">6e+3</text><text x="0" y="0" dx="0em" dy="0.3em" style="text-anchor: end; visibility: hidden; font-family: &quot;Helvetica Neue&quot;, sans-serif; font-size: 12px; font-weight: 200;" fill="rgb(50, 49, 63)" stroke="none" stroke-width="1px">7e+3</text></g><line x1="58.59375" y1="0" x2="58.59375" y2="365.65625" fill="rgb(0, 0, 0)" stroke="rgb(204, 204, 204)" stroke-width="1px"></line></g></g><g transform="translate(58, 0)" clip-path="url(#clip_0)"><clipPath id="clip_0"><rect width="904" height="365"></rect></clipPath><g><g><g><line x1="0" y1="0" x2="0" y2="365.65625" fill="rgb(0, 0, 0)" stroke="rgb(60, 60, 60)" stroke-width="1px" opacity="0.25"></line><line x1="90.44062500000001" y1="0" x2="90.44062500000001" y2="365.65625" fill="rgb(0, 0, 0)" stroke="rgb(60, 60, 60)" stroke-width="1px" opacity="0.25"></line><line x1="180.88125000000002" y1="0" x2="180.88125000000002" y2="365.65625" fill="rgb(0, 0, 0)" stroke="rgb(60, 60, 60)" stroke-width="1px" opacity="0.25"></line><line x1="271.321875" y1="0" x2="271.321875" y2="365.65625" fill="rgb(0, 0, 0)" stroke="rgb(60, 60, 60)" stroke-width="1px" opacity="0.25"></line><line x1="361.76250000000005" y1="0" x2="361.76250000000005" y2="365.65625" fill="rgb(0, 0, 0)" stroke="rgb(60, 60, 60)" stroke-width="1px" opacity="0.25"></line><line x1="452.203125" y1="0" x2="452.203125" y2="365.65625" fill="rgb(0, 0, 0)" stroke="rgb(60, 60, 60)" stroke-width="1px" opacity="0.25"></line><line x1="542.64375" y1="0" x2="542.64375" y2="365.65625" fill="rgb(0, 0, 0)" stroke="rgb(60, 60, 60)" stroke-width="1px" opacity="0.25"></line><line x1="633.0843749999999" y1="0" x2="633.0843749999999" y2="365.65625" fill="rgb(0, 0, 0)" stroke="rgb(60, 60, 60)" stroke-width="1px" opacity="0.25"></line><line x1="723.5250000000001" y1="0" x2="723.5250000000001" y2="365.65625" fill="rgb(0, 0, 0)" stroke="rgb(60, 60, 60)" stroke-width="1px" opacity="0.25"></line><line x1="813.965625" y1="0" x2="813.965625" y2="365.65625" fill="rgb(0, 0, 0)" stroke="rgb(60, 60, 60)" stroke-width="1px" opacity="0.25"></line><line x1="904.40625" y1="0" x2="904.40625" y2="365.65625" fill="rgb(0, 0, 0)" stroke="rgb(60, 60, 60)" stroke-width="1px" opacity="0.25"></line></g><g><line x1="0" y1="365.65625" x2="904.40625" y2="365.65625" fill="rgb(0, 0, 0)" stroke="rgb(60, 60, 60)" stroke-width="1px" opacity="0.25"></line><line x1="0" y1="319.94921875" x2="904.40625" y2="319.94921875" fill="rgb(0, 0, 0)" stroke="rgb(60, 60, 60)" stroke-width="1px" opacity="0.25"></line><line x1="0" y1="274.2421875" x2="904.40625" y2="274.2421875" fill="rgb(0, 0, 0)" stroke="rgb(60, 60, 60)" stroke-width="1px" opacity="0.25"></line><line x1="0" y1="228.53515625" x2="904.40625" y2="228.53515625" fill="rgb(0, 0, 0)" stroke="rgb(60, 60, 60)" stroke-width="1px" opacity="0.25"></line><line x1="0" y1="182.828125" x2="904.40625" y2="182.828125" fill="rgb(0, 0, 0)" stroke="rgb(60, 60, 60)" stroke-width="1px" opacity="0.25"></line><line x1="0" y1="137.12109375" x2="904.40625" y2="137.12109375" fill="rgb(0, 0, 0)" stroke="rgb(60, 60, 60)" stroke-width="1px" opacity="0.25"></line><line x1="0" y1="91.4140625" x2="904.40625" y2="91.4140625" fill="rgb(0, 0, 0)" stroke="rgb(60, 60, 60)" stroke-width="1px" opacity="0.25"></line><line x1="0" y1="45.70703125" x2="904.40625" y2="45.70703125" fill="rgb(0, 0, 0)" stroke="rgb(60, 60, 60)" stroke-width="1px" opacity="0.25"></line><line x1="0" y1="0" x2="904.40625" y2="0" fill="rgb(0, 0, 0)" stroke="rgb(60, 60, 60)" stroke-width="1px" opacity="0.25"></line></g></g></g><g><g><line x1="0" y1="319.94921875" x2="904.40625" y2="319.94921875" fill="rgb(0, 0, 0)" stroke="rgb(153, 153, 153)" stroke-width="1.5px"></line></g></g><g><g><line x1="-39900956.7" y1="0" x2="-39900956.7" y2="365.65625" fill="rgb(0, 0, 0)" stroke="rgb(153, 153, 153)" stroke-width="1.5px"></line></g></g><g><g><g><g><g><path stroke="rgb(255, 112, 67)" stroke-width="2px" d="M122.68212999739583,-42.46062976727876L122.97922745052082,53.863794958767016L123.02160893229167,124.17392255852329L124.4242174140625,175.49674441591088L125.02778297395832,212.96050140433826L125.36623189062502,240.3080299819011L125.57761172916666,260.2711854963455L125.67476003385416,274.84400108107394L126.18049898437499,285.48200301823067L126.60448965885416,293.2476626658842L128.44571004947917,298.91655063591907L128.78448555729167,303.05481563435836L129.13418930729168,306.07573670953906L130.24605630208333,308.2810025005222L130.62615815104166,309.89084301406507L130.7951565078125,311.06602471641276L130.8800199609375,311.9239063612529L131.48308307291668,312.55015943022L131.5678209140625,313.0073238871882L131.86476763281252,313.341053789763L132.21399405729167,313.5846765381685L132.4678558671875,313.76252110161977L133.663857765625,313.89234761008595L138.58990738541667,313.98712094908774L139.317904171875,314.05630548006917L139.69973946614584,314.10681018422713L139.74214607031251,314.14367861641944L140.00620757291668,314.17059257093763L140.25989352604165,314.19023975721257L141.0304727734375,314.20458220291437L141.15749160677083,314.215052188128L141.53766882291666,314.2226952772548L143.63302736979168,314.2282747322751L143.7600210807292,314.23234773441743L144.01453607291666,314.23532102596937L144.27801976041667,314.2374915287959L144.91328978385417,314.23907599585584L145.177250796875,314.24023265680785L145.3897108984375,314.24107701930177L147.61942401822915,314.24169340392183L147.84356603385416,314.24214336469424L147.88838438802082,314.2424718360579L148.70094315885416,314.24271162015333L149.30385553645831,314.24288666254296L151.48488145312498,314.24301444348737L152.21441070572916,314.24310772357677L153.07148636197917,314.243175818042L154.564987671875,314.24322552700164L154.69220748437502,314.24326181454217L155.2956725546875,314.24328830444676L155.46492213541669,314.24330764207707L157.72809828645833,314.24332175854727L158.02723065364583,314.24333206357045L158.9683156015625,314.2433395862374L159.48453059114584,314.2433450777843L159.9104054453125,314.2433490866135L161.1923259375,314.2433520130588L161.6688726640625,314.2433541493639L162.0081757421875,314.2433557088666L162.26259024479165,314.2433568473036L163.6284195390625,314.2433576783626L164.87712822395832,314.24335828503564L165.55485509635417,314.243358727907L166.24423876041666,314.2433590512031L166.4138400546875,314.2433592872092L167.14362053125,314.2433594594937L168.63830259374998,314.2433595852614L170.43854835677084,314.2433596770718L170.81990632552083,314.24335974409337L171.07404448177084,314.2433597930191L171.2962771953125,314.2433598287349L171.59272146614583,314.24335985480747L171.973903578125,314.2433598738404L172.78229203125,314.24335988773447L172.8673815859375,314.24335989787716L172.9952043359375,314.2433599052813L173.37952674739583,314.2433599106863L174.8765954375,314.243359914632L175.90191577864584,314.2433599175123L176.80074485677085,314.24335991961493L177.56094855468749,314.2433599211499L177.95170229947917,314.2433599222704L178.50180740104167,314.24335992308835L178.62895184635417,314.2433599236855L178.97802753645834,314.24335992412136L180.681828421875,314.2433599244396L181.41193548958333,314.24335992467184L181.85697873177085,314.2433599248414L181.98542954166666,314.2433599249652L182.84270617708333,314.2433599250556L183.53050713020832,314.2433599251215L184.3039000859375,314.24335992516967L184.81172419531248,314.24335992520486L185.54060026562502,314.2433599252305L185.79456256510417,314.24335992524925L187.39935608854165,314.2433599252629L187.53705194010416,314.2433599252729L187.57948366666665,314.2433599252802L187.9177567265625,314.2433599252855L188.087106796875,314.2433599252894L188.38282251822918,314.2433599252922L190.65918792708334,314.24335992529427L190.95563219791669,314.2433599252958L191.35929885416667,314.2433599252969L192.50533230729167,314.2433599252977L192.67646606770833,314.2433599252983L193.02642104166668,314.2433599252987L193.36411628645834,314.24335992529905L193.532536828125,314.2433599252993L194.38855734375,314.24335992529944L194.60076622135415,314.24335992529956L194.64334868229164,314.2433599252996L194.85477876562499,314.2433599252997L195.37250109895834,314.2433599252998L195.49997213541667,314.2433599252998L195.72434025260418,314.24335992529984L196.539536875,314.24335992529984L197.21583177083335,314.24335992529984L197.64730891927084,314.24335992529984L198.15360056249997,314.24335992529984L199.26350801041667,314.24335992529984L199.65375930729166,314.24335992529984L201.1603242630208,314.24335992529984L201.20268062239583,314.2433599252999L201.28716723958334,314.2433599252999L203.16561902083333,314.2433599252999L203.5032388984375,314.2433599252999L204.09637866406248,314.2433599252999L204.18016185416667,314.2433599252999L204.39126534635417,314.2433599252999L205.47200569270834,314.2433599252999L205.51423644010418,314.2433599252999L205.93639317968749,314.2433599252999L206.02042759375,314.2433599252999L206.24062539322918,314.2433599252999L206.831830734375,314.2433599252999L207.08611962499998,314.2433599252999L207.47707434895835,314.2433599252999L208.11284682031248,314.2433599252999L208.37625514062498,314.2433599252999L210.63847664062502,314.2433599252999L211.380089765625,314.2433599252999L214.03208523697916,314.2433599252999L214.24351532031253,314.2433599252999L215.00922082291666,314.2433599252999L216.58718362760416,314.2433599252999L217.18786011197918,314.2433599252999L218.703067171875,314.2433599252999L222.24188321614582,314.2433599252999L223.03861487760418,314.2433599252999L223.5011684296875,314.2433599252999L224.53161373958332,314.2433599252999L226.5359287239583,314.2433599252999L226.88430098697916,314.2433599252999L228.42947906510418,314.2433599252999L229.11690318229165,314.2433599252999L229.24427372916668,314.2433599252999L229.58267240104166,314.2433599252999L229.709691234375,314.2433599252999L230.90428627864583,314.2433599252999L232.20725933854166,314.2433599252999L234.59825823958332,314.2433599252999L234.85217029427085,314.2433599252999L235.54037320572917,314.2433599252999L236.30226010416666,314.2433599252999L236.34466670833334,314.2433599252999L237.815884453125,314.2433599252999L238.23952341406252,314.2433599252999L238.36684371614584,314.2433599252999L238.4090995859375,314.2433599252999L238.49363644791669,314.2433599252999L238.5358671953125,314.2433599252999L239.60497587239584,314.2433599252999L241.02617492708333,314.2433599252999L242.73052850520833,314.2433599252999L244.06284452343752,314.2433599252999L245.21561077864584,314.2433599252999L245.42726696354165,314.2433599252999L246.37500934635418,314.2433599252999L247.18950254166666,314.2433599252999L247.82572721614582,314.2433599252999L248.51234741666667,314.2433599252999L249.95570442447914,314.2433599252999L250.08664235156252,314.2433599252999L251.16301140104167,314.2433599252999L253.0000363515625,314.2433599252999L253.85811690364585,314.2433599252999L254.62573170833335,314.2433599252999L254.71044442708333,314.2433599252999L254.79679010156252,314.2433599252999L255.06057525781247,314.2433599252999L256.7372188333333,-123093.20043319203L271.28213136979167,-76.77326339581708L273.8632314401042,29.695989421157606L274.0752393385417,107.41854397754906L274.5413853932292,164.15600880371488L277.6637726041667,205.5743581268159L278.16199995833335,235.80975313267962L278.20430607291667,257.88159148696013L278.49467072395834,273.99403348558496L278.70479444270836,285.75611614458103L278.7469749453125,294.3424364856482L279.8211332239584,300.6104503346272L280.0318347578125,305.18610044438185L280.1582757760417,308.5263250245028L280.5060953463542,310.9646889679911L281.351288109375,312.7446946467375L281.48823028906247,314.0440987922224L281.53048615885416,314.99266381842637L282.16671083333335,315.6851162875553L283.1090267786458,316.1906065900194L283.6698340208333,316.55961451081816L283.75429551562496,316.8289902930013L285.895025109375,317.02563461399495L286.9203705729167,317.16918496832034L287.2154833567708,317.2739767269779L287.4693702890625,317.35047471079787L288.4977053177084,317.4063182389865L288.62545270052084,317.44708401456415L291.1579911796875,317.4768430307359L291.87684341406253,317.4985671125412L292.77685324479165,317.5144256922591L292.9042991588542,317.5260024554532L295.0314124140625,317.5344534925848L295.15760220833334,317.54062274969095L295.84246384114584,317.54512630737844L297.16254525260416,317.5484139044903L298.35447732291664,317.5508138503819L298.70237226041667,317.55256581088287L298.8713454947916,317.5538447420485L299.20986977864584,317.55477836179944L299.6752370390625,317.5554599042176L300.7837878776042,317.5559574301829L301.02956027604165,317.5563206241375L301.7099501223958,317.5565857557244L302.39777619791664,317.55677930178285L302.736275359375,317.5569205904055L303.126677390625,317.55702373110006L303.5080856041667,317.5570990238071L303.97310115104165,317.55715398748316L304.015407265625,317.55719411096675L304.5327778854167,317.55722340110975L304.6172645026042,317.55724478291415L306.24404012239586,317.55726039163136L306.7508342135416,317.5572717859949L307.5635688411458,317.5572801038803L308.54771357552085,317.55728617593667L309.40232723697915,317.55729060853776L311.43902498958334,317.55729384433664L311.82799504427084,317.55729620646974L311.954586796875,317.55729793082696L314.53382780989585,317.5572991896077L315.3871351067708,317.55730010851767L315.47132025520835,317.5573007793219L315.51329977864583,317.55730126900903L317.767205765625,317.55730162648064L318.62179430468746,317.5573018874349L318.95873587760417,317.55730207793147L320.2881628203125,317.557302216994L321.0063869947917,317.55730231850964L321.77706673177084,317.55730239261607L322.1151890572917,317.5573024467138L323.4472036067708,317.55730248620506L325.583988984375,317.5573025150337L326.8217945494792,317.5573025360786L327.28628252604165,317.55730255144147L327.97104366927084,317.5573025626563L328.56282682552086,317.55730257084315L329.65831401822913,317.5573025768195L331.36656156770835,317.5573025811823L332.3053855,317.5573025843671L332.51656435937497,317.557302586692L334.0860860390625,317.5573025883892L334.55956783333335,317.55730258962814L335.41355343489585,317.5573025905326L335.4978641953125,317.5573025911928L336.857714359375,317.5573025916748L337.88049733854166,317.5573025920266L338.3871909401042,317.55730259228346L338.4716524348958,317.55730259247093L338.73423171614587,317.5573025926078L340.30614002343754,317.55730259270774L341.49839868489585,317.5573025927807L341.5827094453125,317.55730259283393L341.7613045572917,317.5573025928728L342.39481601302083,317.5573025929012L344.14582188020836,317.55730259292187L344.2728155911458,317.557302592937L346.53036432552085,317.557302592948L346.65730779166665,317.5573025929561L347.0898903255208,317.557302592962L347.85182746875,317.55730259296627L347.8941587057292,317.5573025929694L348.81823579166667,317.5573025929717L348.9465358671875,317.5573025929734L350.3913248515625,317.55730259297457L350.48498114322916,317.5573025929755L350.779541234375,317.55730259297616L352.3075858385417,317.5573025929766L353.20400316666667,317.55730259297695L354.22550490364586,317.5573025929772L354.43648278385416,317.5573025929774L354.68956579947917,317.5573025929775L355.84800971614584,317.55730259297763L356.69470982291665,317.5573025929777L356.91638984375,317.55730259297775L357.55125790885415,317.5573025929778L357.76198456510417,317.5573025929778L359.59647215364583,317.55730259297786L360.86201284375,317.55730259297786L360.9475294791667,317.55730259297786L361.637239734375,317.55730259297786L361.72175147395836,317.55730259297786L361.97480936718745,317.55730259297786L362.05884378125,317.55730259297786L362.8264585859375,317.55730259297786L363.8097491588542,317.55730259297786L364.19022784375,317.55730259297786L365.00238465625,317.55730259297786L365.46564163541666,317.55730259297786L365.55010313020836,317.55730259297786L365.81273265625,317.55730259297786L366.3621092083333,317.55730259297786L367.13396969791665,317.55730259297786L368.82799797135414,317.55730259297786L369.80179227864585,317.55730259297786L370.02312058593753,317.55730259297786L371.2526106380208,317.55730259297786L371.72212309375,317.55730259297786L372.18899769791665,317.55730259297786L372.49431017447915,317.55730259297786L372.7475439244792,317.55730259297786L373.7941680572917,317.55730259297786L376.3064830078125,317.55730259297786L377.84470218229166,317.55730259297786L377.8867821953125,317.55730259297786L378.05598153125,317.55730259297786L378.93152214843747,317.55730259297786L378.97367752864585,317.55730259297786L379.0158329088542,317.55730259297786L379.35480939583334,317.55730259297786L381.4587849244792,317.55730259297786L381.75434991145835,317.55730259297786L381.88134362239583,317.55730259297786L382.69299798697915,317.55730259297786L385.01491029947914,317.55730259297786L385.4053625755208,317.55730259297786L385.489748703125,317.55730259297786L385.65892291666665,317.55730259297786L385.91318668489583,317.55730259297786L386.0401050286458,317.55730259297786L386.3357453828125,317.55730259297786L386.6838161770833,317.55730259297786L386.81086013281254,317.55730259297786L387.31757885677087,317.55730259297786L388.46710432291667,317.55730259297786L388.646427984375,317.55730259297786L389.1117198776042,317.55730259297786L389.58593022135415,317.55730259297786L392.47917605989585,317.55730259297786L393.0802293802084,317.55730259297786L393.4180502369792,317.55730259297786L394.01955576041667,317.55730259297786L394.0617613854166,317.55730259297786L395.17111614062503,317.55730259297786L395.76262295052084,317.55730259297786L396.8270086171875,317.55730259297786L398.06247779947915,317.55730259297786L398.19874167447915,317.55730259297786L399.30631273958335,317.55730259297786L400.06739572135416,317.55730259297786L400.2461666901042,317.55730259297786L401.3115572526042,317.55730259297786L403.52717670833334,317.55730259297786L404.1620698958333,317.55730259297786L404.5099397109375,317.55730259297786L404.5520197239583,317.55730259297786L405.48024200520837,317.55730259297786L406.4499413619792,317.55730259297786L408.15826427864585,317.55730259297786L409.05553576822916,317.55730259297786L410.37408471354166,317.55730259297786L412.62746313020835,317.55730259297786L413.0907452317708,317.55730259297786L413.85768173177087,317.55730259297786L414.28863130989583,317.55730259297786L414.33086205729165,317.55730259297786L415.1322916067708,317.55730259297786L416.11239163541666,317.55730259297786L416.923593796875,317.55730259297786L418.19991199479165,317.55730259297786L418.58780178645833,317.55730259297786L418.7143684166667,317.55730259297786L419.009456078125,317.55730259297786L419.43111036979167,317.55730259297786L419.55752626562503,317.55730259297786L419.78078899739586,317.55730259297786L420.20533236458334,317.55730259297786L421.2314063776042,317.55730259297786L421.6116589609375,317.55730259297786L422.4249211588542,317.55730259297786L423.34804359375,317.55730259297786L425.98981425,317.55730259297786L427.48869175260415,317.55730259297786L428.20736813020835,317.55730259297786L428.63967431770834,317.55730259297786L428.85065219791665,317.55730259297786L429.3163209270833,317.55730259297786L429.580457796875,317.55730259297786L429.87685182291665,317.55730259297786L430.6487123125,317.55730259297786L430.8599162942709,317.55730259297786L431.07149711197917,317.55730259297786L431.8434832135417,317.55730259297786L432.308448515625,317.55730259297786L432.43556783854166,317.55730259297786L433.2914376197917,317.55730259297786L433.62938408854166,317.55730259297786L434.062695171875,317.55730259297786L435.5539857109375,317.55730259297786L435.76551628385414,317.55730259297786L438.58525399218746,317.55730259297786L438.6277610859375,317.55730259297786L439.9879880859375,317.55730259297786L441.82506328125,317.55730259297786L442.1626329140625,317.55730259297786L442.5102515052083,317.55730259297786L442.55230639583334,317.55730259297786L443.99805003125,317.55730259297786L444.46288972135414,317.55730259297786L444.9787529973959,317.55730259297786L445.70619709114584,317.55730259297786L448.26031570833334,317.55730259297786L449.28400309374996,317.55730259297786L450.5598439661458,317.55730259297786L450.728490609375,317.55730259297786L451.32816219791664,317.55730259297786L452.05613386197916,317.55730259297786L452.3087144296875,317.55730259297786L454.0916257395833,317.55730259297786L454.7776178802083,317.55730259297786L455.2532099557292,317.55730259297786L455.63519598437495,317.55730259297786L455.97495126562495,317.55730259297786L456.831423984375,317.55730259297786L456.91586035677085,317.55730259297786L457.0425525989583,317.55730259297786L457.12701409375006,317.55730259297786L457.39079925,317.55730259297786L458.23765009114584,317.55730259297786L458.36471916927087,317.55730259297786L458.58602235416663,317.55730259297786L458.96584785677084,317.55730259297786L462.158829,317.55730259297786L463.01243776562507,317.55730259297786L463.0545680234375,317.55730259297786L463.13910488541666,317.55730259297786L463.73161659114584,317.55730259297786L463.9007154375,317.55730259297786L464.2900120833333,317.55730259297786L464.332267953125,317.55730259297786L464.5433965677084,317.55730259297786L464.75437444791663,317.55730259297786L465.39730680208334,317.55730259297786L466.7179660286458,317.55730259297786L467.2353868932292,317.55730259297786L467.5317809192709,317.55730259297786L467.74346222656254,317.55730259297786L468.34557068749996,317.55730259297786L468.72637596354167,317.55730259297786L470.03510205208335,317.55730259297786L470.33461125520836,317.55730259297786L470.3773695729167,317.55730259297786L470.76839966406254,317.55730259297786L472.3818352916666,317.55730259297786L472.72967998437497,317.55730259297786L472.77203634374996,317.55730259297786L472.9411351901042,317.55730259297786L474.3038241848958,317.55730259297786L476.3122843645833,317.55730259297786L476.4818605364583,317.55730259297786L477.4643471927084,317.55730259297786L478.23557962239585,317.55730259297786L478.3626989453125,317.55730259297786L479.2595684765625,317.55730259297786L479.92724639062504,317.55730259297786L480.9832662994791,317.55730259297786L481.27875591927085,317.55730259297786L482.00697880729166,317.55730259297786L482.0918171380209,317.55730259297786L482.21888621614585,317.55730259297786L483.11841872135415,317.55730259297786L483.20315656249994,317.55730259297786L483.41498860416664,317.55730259297786L483.88987725260415,317.55730259297786L484.3978520963542,317.55730259297786L485.1256981484375,317.55730259297786L485.9195156119792,317.55730259297786L486.1736286458334,317.55730259297786L486.5974937083334,317.55730259297786L487.3692537083333,317.55730259297786L487.41168543489584,317.55730259297786L488.56322069270834,317.55730259297786L488.90184546614586,317.55730259297786L489.33488020312507,317.55730259297786L489.8001469739583,317.55730259297786L490.7187725,317.55730259297786L491.48927638020837,317.55730259297786L492.8523673333333,317.55730259297786L493.14783183072916,317.55730259297786L495.38500630208335,317.55730259297786L495.46954316406254,317.55730259297786L495.89192600520835,317.55730259297786L496.1881441744792,317.55730259297786L497.34025724739587,317.55730259297786L498.43584492968745,317.55730259297786L498.87109043749996,317.55730259297786L499.54625482552086,317.55730259297786L499.6302138723958,317.55730259297786L499.9334160677083,317.55730259297786L501.29218596875,317.55730259297786L501.97729882552085,317.55730259297786L502.18815109375004,317.55730259297786L504.01263996875,317.55730259297786L504.1491801901041,317.55730259297786L504.99346854687496,317.55730259297786L505.2567261328125,317.55730259297786L505.29878102343747,317.55730259297786L506.4074323515625,317.55730259297786L506.70309782812507,317.55730259297786L509.575492078125,317.55730259297786L509.966195578125,317.55730259297786L510.2642476822917,317.55730259297786L510.6980863359375,317.55730259297786L510.8245524765625,317.55730259297786L511.7595578046876,317.55730259297786L512.2241462708333,317.55730259297786L512.6896140208333,317.55730259297786L513.2068087838542,317.55730259297786L513.2491148984375,317.55730259297786L513.3760834869792,317.55730259297786L514.399293546875,317.55730259297786L514.6525524192708,317.55730259297786L515.6357425026041,317.55730259297786L516.0686516276043,317.55730259297786L516.430288515625,317.55730259297786L519.0301550156249,317.55730259297786L519.4227175729167,317.55730259297786L519.8041257864584,317.55730259297786L521.2972753828125,317.55730259297786L522.5039542994791,317.55730259297786L522.6312997239584,317.55730259297786L524.336005015625,317.55730259297786L525.3648173697917,317.55730259297786L528.1777469088541,317.55730259297786L530.1823131171875,317.55730259297786L531.7110109036458,317.55730259297786L531.9226922109375,317.55730259297786L531.964973203125,317.55730259297786L532.049685921875,317.55730259297786L532.6509402213542,317.55730259297786L533.1590406770833,317.55730259297786L534.1407987838542,317.55730259297786L534.3940827786458,317.55730259297786L535.037542703125,317.55730259297786L535.2910276770833,317.55730259297786L535.7248663307292,317.55730259297786L536.7522969531251,317.55730259297786L537.4692650078125,317.55730259297786L538.6113291223959,317.55730259297786L539.9331188567709,317.55730259297786L540.2370244791666,317.55730259297786L540.7023666171875,317.55730259297786L541.5603466796874,317.55730259297786L541.8559116666667,317.55730259297786L542.0667890572917,317.55730259297786L543.8631408489583,317.55730259297786L545.4022895520833,317.55730259297786L546.5958294557291,317.55730259297786L546.6802155833333,317.55730259297786L546.7225216979167,317.55730259297786L546.8070585598958,317.55730259297786L547.7469627552083,317.55730259297786L548.0026836223958,317.55730259297786L548.2176810859376,317.55730259297786L549.4562905677084,317.55730259297786L550.0553843411459,317.55730259297786L550.5231382291666,317.55730259297786L550.9579817786458,317.55730259297786L551.1270303802083,317.55730259297786L551.1695374739584,317.55730259297786L552.3620724817708,317.55730259297786L552.7422496979167,317.55730259297786L553.7285800807292,317.55730259297786L553.7709364401042,317.55730259297786L554.474740359375,317.55730259297786L555.8014792057292,317.55730259297786L556.181053484375,317.55730259297786L556.9092763723959,317.55730259297786L557.1206310885417,317.55730259297786L557.501486609375,317.55730259297786L557.86942921875,317.55730259297786L558.2083303385417,317.55730259297786L558.9392413229167,317.55730259297786L560.2159866015625,317.55730259297786L560.6392989713543,317.55730259297786L562.2278383046876,317.55730259297786L562.6166325026041,317.55730259297786L562.6589134947917,317.55730259297786L562.922799140625,317.55730259297786L563.6010033385417,317.55730259297786L563.8971461406251,317.55730259297786L565.0965898072917,317.55730259297786L565.1385190859376,317.55730259297786L565.5191233828125,317.55730259297786L565.7304529765626,317.55730259297786L566.3917749244793,317.55730259297786L566.7747658489583,317.55730259297786L567.3776279817708,317.55730259297786L569.0214617083334,317.55730259297786L569.1503144765625,317.55730259297786L569.5402894270833,317.55730259297786L570.7958816484374,317.55730259297786L570.966889796875,317.55730259297786L571.3506343932293,317.55730259297786L571.9526172421876,317.55730259297786L572.2050721979167,317.55730259297786L572.2896844270833,317.55730259297786L573.933643765625,317.55730259297786L574.198333328125,317.55730259297786L574.4520192812499,317.55730259297786L574.5364054088542,317.55730259297786L575.000541671875,317.55730259297786L575.2119717552083,317.55730259297786L575.8388257760417,317.55730259297786L576.2204852135417,317.55730259297786L576.9090900833334,317.55730259297786L577.9776711901042,317.55730259297786L578.7902299609375,317.55730259297786L579.1704825442708,317.55730259297786L579.9653300260417,317.55730259297786L581.1164884479167,317.55730259297786L582.1033464010417,317.55730259297786L582.1881344869792,317.55730259297786L582.2306415807292,317.55730259297786L584.4058139791667,317.55730259297786L584.7438358151041,317.55730259297786L584.8706536692708,317.55730259297786L585.4502273411458,317.55730259297786L587.0713252994792,317.55730259297786L588.4001241822916,317.55730259297786L589.2468242890625,317.55730259297786L590.0597096510417,317.55730259297786L591.3777310260416,317.55730259297786L591.7265806145833,317.55730259297786L591.8112430885417,317.55730259297786L593.2566852552084,317.55730259297786L594.1712660755209,317.55730259297786L594.7659383072917,317.55730259297786L595.0279397734375,317.55730259297786L596.2168822786458,317.55730259297786L596.3440267239583,317.55730259297786L596.3867096744791,317.55730259297786L596.6406217291667,317.55730259297786L596.7252590807292,317.55730259297786L597.4521756041667,317.55730259297786L597.7892176666667,317.55730259297786L598.3664298333333,317.55730259297786L599.0046140546875,317.55730259297786L599.69158596875,317.55730259297786L601.3497645833334,317.55730259297786L601.8668337343751,317.55730259297786L601.9510440052084,317.55730259297786L602.3722963385417,317.55730259297786L602.8484913515625,317.55730259297786L603.1460158854167,317.55730259297786L603.4427113802083,317.55730259297786L603.5273738541666,317.55730259297786L604.2544913567708,317.55730259297786L605.0700899375,317.55730259297786L606.6038624479166,317.55730259297786L607.9489155208333,317.55730259297786L608.2129770234375,317.55730259297786L608.5928025260416,317.55730259297786L609.8691207239583,317.55730259297786L610.8546471901042,317.55730259297786L610.8969533046875,317.55730259297786L611.6657237395833,317.55730259297786L612.8639112864583,317.55730259297786L613.0755423489584,317.55730259297786L614.425418921875,317.55730259297786L614.7761778125,317.55730259297786L614.9882108333334,317.55730259297786L615.072672328125,317.55730259297786L615.1148025859376,317.55730259297786L615.9678586588542,317.55730259297786L616.1796907005208,317.55730259297786L616.7744885442708,317.55730259297786L617.2071213229167,317.55730259297786L617.4184760390625,317.55730259297786L617.714744453125,317.55730259297786L618.5278810390624,317.55730259297786L619.0469599817708,317.55730259297786L620.5358638932292,317.55730259297786L620.9173977187501,317.55730259297786L622.9677620546876,317.55730259297786L623.1796192187501,317.55730259297786L623.8261943203125,317.55730259297786L624.4917870755208,317.55730259297786L624.6624686328124,317.55730259297786L625.3443407005208,317.55730259297786L625.9035401093751,317.55730259297786L626.7583547500001,317.55730259297786L627.1392856380209,317.55730259297786L627.4776340651042,317.55730259297786L629.0212043098958,317.55730259297786L629.8771494583333,317.55730259297786L630.0040175572916,317.55730259297786L630.6791317005209,317.55730259297786L631.3646465156249,317.55730259297786L634.581016609375,317.55730259297786L634.9607416223959,317.55730259297786L635.0030477369792,317.55730259297786L636.2837874765626,317.55730259297786L637.0952408619792,317.55730259297786L637.2219833489584,317.55730259297786L638.1631436640624,317.55730259297786L641.1279380859374,317.55730259297786L641.3845884817708,317.55730259297786L641.4701553619791,317.55730259297786L642.3673263619792,317.55730259297786L643.3049695416667,317.55730259297786L644.5414938645832,317.55730259297786L646.5081755,317.55730259297786L647.7014641796875,317.55730259297786L650.2238783333333,317.55730259297786L650.9101468203124,317.55730259297786L652.2319867994792,317.55730259297786L652.5702598593749,317.55730259297786L653.4684106328125,317.55730259297786L654.53719271875,317.55730259297786L654.7584959036459,317.55730259297786L655.3079478229166,317.55730259297786L655.8664186822917,317.55730259297786L656.1201800026041,317.55730259297786L657.9094975234375,317.55730259297786L657.9620786979167,317.55730259297786L658.1740865963542,317.55730259297786L658.8089044166667,317.55730259297786L661.3295600026041,317.55730259297786L662.0496683567709,317.55730259297786L663.2043690364583,317.55730259297786L663.2468258854166,317.55730259297786L663.6012777682291,317.55730259297786L664.1103579973958,317.55730259297786L664.6286079010417,317.55730259297786L665.2634257213541,317.55730259297786L665.4330270156249,317.55730259297786L666.1633601848959,317.55730259297786L667.1252213541666,317.55730259297786L667.9003728776041,317.55730259297786L668.5330050494792,317.55730259297786L668.9671200494791,317.55730259297786L669.0952191458333,317.55730259297786L669.6079923671875,317.55730259297786L669.6502984817708,317.55730259297786L669.8200002656249,317.55730259297786L671.0214788463542,317.55730259297786L672.1264623046875,317.55730259297786L673.5298998255208,317.55730259297786L674.1814742838542,317.55730259297786L675.7223313098958,317.55730259297786L675.9336106588541,317.55730259297786L678.1635498802084,317.55730259297786L678.33212115625,317.55730259297786L679.1828408463541,317.55730259297786L681.2682760468749,317.55730259297786L682.3752190520834,317.55730259297786L682.5018108046875,317.55730259297786L684.298036984375,317.55730259297786L684.97317625,317.55730259297786L686.4702198177083,317.55730259297786L687.1042337213541,317.55730259297786L687.45155084375,317.55730259297786L687.70478459375,317.55730259297786L689.3201295234376,317.55730259297786L690.047648984375,317.55730259297786L690.1735624322916,317.55730259297786L690.2994005130208,317.55730259297786L690.8558867031251,317.55730259297786L692.0045831302083,317.55730259297786L692.7749362760417,317.55730259297786L693.0705515078125,317.55730259297786L693.3665686979166,317.55730259297786L694.3065482604167,317.55730259297786L695.2062315000001,317.55730259297786L695.7587483515625,317.55730259297786L697.2621227630208,317.55730259297786L698.2456394375,317.55730259297786L698.3730853515625,317.55730259297786L698.9243712057291,317.55730259297786L699.0939725000001,317.55730259297786L699.3579837578125,317.55730259297786L701.2137751380209,317.55730259297786L701.2560058854167,317.55730259297786L702.0697956536458,317.55730259297786L702.1970908333333,317.55730259297786L702.5474728880208,317.55730259297786L702.5899046145832,317.55730259297786L702.63231121875,317.55730259297786L702.886449375,317.55730259297786L703.7432486848959,317.55730259297786L703.8274589557292,317.55730259297786L704.5982643046875,317.55730259297786L706.7350999270833,317.55730259297786L707.3271343072917,317.55730259297786L707.5812975859376,317.55730259297786L709.2255583932291,317.55730259297786L710.9709619661459,317.55730259297786L712.1718627317708,317.55730259297786L713.3436717630208,317.55730259297786L713.5546998880208,317.55730259297786L713.8077075364583,317.55730259297786L714.7930832682292,317.55730259297786L715.8579713828125,317.55730259297786L716.3652930442709,317.55730259297786L716.40762428125,317.55730259297786L716.6707311328124,317.55730259297786L717.0515866536458,317.55730259297786L717.7809400494791,317.55730259297786L718.2873573046875,317.55730259297786L718.5414954609375,317.55730259297786L719.3982947708333,317.55730259297786L719.5674187395833,317.55730259297786L720.5915332057292,317.55730259297786L720.6762459244792,317.55730259297786L721.06712528125,317.55730259297786L723.2299123385417,317.55730259297786L724.2551321901042,317.55730259297786L725.4381960546875,317.55730259297786L726.9446605208333,317.55730259297786L726.9869666354167,317.55730259297786L728.0104781640624,317.55730259297786L728.09496478125,317.55730259297786L728.1374718750001,317.55730259297786L729.4167042708333,317.55730259297786L730.6708896380208,317.55730259297786L730.8901076640625,317.55730259297786L731.5497715338541,317.55730259297786L731.8048140963541,317.55730259297786L733.0899502552084,317.55730259297786L733.1322814921874,317.55730259297786L733.4711323671876,317.55730259297786L733.6404321927083,317.55730259297786L733.8939925338542,317.55730259297786L734.5789295338542,317.55730259297786L736.4172859713542,317.55730259297786L736.9260144869792,317.55730259297786L737.4024858463542,317.55730259297786L737.8264262760417,317.55730259297786L737.8688580026042,317.55730259297786L738.0386351536458,317.55730259297786L738.208487671875,317.55730259297786L738.3883891484376,317.55730259297786L739.1084723802082,317.55730259297786L739.3724836380209,317.55730259297786L739.5420346875001,317.55730259297786L739.6269483854167,317.55730259297786L740.7149491041666,317.55730259297786L741.5306481744792,317.55730259297786L741.8260121822917,317.55730259297786L741.8682429296874,317.55730259297786L742.744085015625,317.55730259297786L742.8724102135417,317.55730259297786L744.2383651197918,317.55730259297786L744.2806209895833,317.55730259297786L744.3230778385417,317.55730259297786L745.3499557682292,317.55730259297786L745.9543001223958,317.55730259297786L748.1374865651042,317.55730259297786L748.6458633671874,317.55730259297786L751.55164528125,317.55730259297786L753.3653817708333,317.55730259297786L753.5349579427084,317.55730259297786L754.3917823749999,317.55730259297786L755.4167761250001,317.55730259297786L755.5015893333333,317.55730259297786L756.2299127109376,317.55730259297786L757.8321688723959,317.55730259297786L758.3509965911458,317.55730259297786L759.1219024296876,317.55730259297786L759.3328551875,317.55730259297786L759.4179447421875,317.55730259297786L759.842186640625,317.55730259297786L760.6152278828125,317.55730259297786L761.3014712473959,317.55730259297786L761.5976140494791,317.55730259297786L762.3254098567709,317.55730259297786L762.5788445859374,317.55730259297786L763.0651639244792,317.55730259297786L765.1008316588542,317.55730259297786L765.3122617421875,317.55730259297786L766.0018463854167,317.55730259297786L766.2565874791667,317.55730259297786L766.6807288880209,317.55730259297786L767.0294779869791,317.55730259297786L767.4527903567708,317.55730259297786L767.7490587708332,317.55730259297786L768.1832993828125,317.55730259297786L768.226032578125,317.55730259297786L768.2686150390625,317.55730259297786L768.820830421875,317.55730259297786L769.6386146510416,317.55730259297786L770.4953888385417,317.55730259297786L770.9618112395833,317.55730259297786L772.9757732239583,317.55730259297786L773.4945506979167,317.55730259297786L773.9604204062499,317.55730259297786L775.5549891145833,317.55730259297786L776.9193613098959,317.55730259297786L778.2429096119791,317.55730259297786L779.8303435598958,317.55730259297786L780.8568697760417,317.55730259297786L781.3285930026042,317.55730259297786L781.5830828723958,317.55730259297786L782.2339790260418,317.55730259297786L782.9549164192708,317.55730259297786L783.5584066119792,317.55730259297786L783.6855761796875,317.55730259297786L784.5025816145833,317.55730259297786L785.3185570312501,317.55730259297786L785.6575083958332,317.55730259297786L788.8565691588541,317.55730259297786L790.2656089739584,317.55730259297786L790.6041081354167,317.55730259297786L790.8685464739583,317.55730259297786L791.9860157630209,317.55730259297786L792.0483695494792,317.55730259297786L792.3474767942708,317.55730259297786L793.6688394479166,317.55730259297786L793.9236307864583,317.55730259297786L794.8244194114583,317.55730259297786L795.3440761692708,317.55730259297786L796.0650889296875,317.55730259297786L796.2446386927083,317.55730259297786L803.5582705677083,317.55730259297786L804.1115410911458,317.55730259297786L804.54502803125,317.55730259297786L804.7142022447916,317.55730259297786L804.9672852604167,317.55730259297786L805.8836246484375,317.55730259297786L806.85307278125,317.55730259297786L807.4040822890624,317.55730259297786L807.4985927421875,317.55730259297786" style="fill: none;" fill="none"></path></g></g></g></g><g opacity="0.20000000298023224"><g><g><g><path stroke="rgb(255, 112, 67)" stroke-width="2px" d="M99.90774864583334,-456750.36328125L100.9274415703125,253.82272193479537L103.56202722135416,311.48750372886656L103.6888953203125,311.48750372886656L104.06851984375,311.48750372886656L106.86707937239582,314.2433599252999L107.09084455208333,314.2433599252999L108.03823522135416,314.2433599252999L108.60100201041666,314.2433599252999L108.87021360416666,314.2433599252999L110.45608996354167,314.2433599252999L110.54537495833334,314.2433599252999L110.90341934374999,314.2433599252999L112.212848859375,314.2433599252999L113.11773243489584,314.2433599252999L115.55985541145833,314.2433599252999L115.60474913281251,314.2433599252999L116.51053711458333,314.2433599252999L117.32807011979166,314.2433599252999L117.9563561171875,314.2433599252999L120.63191639583333,314.2433599252999L121.98973164583333,314.2433599252999L122.68212999739583,314.2433599252999L122.97922745052082,314.2433599252999L123.02160893229167,314.2433599252999L124.4242174140625,314.2433599252999L125.02778297395832,314.2433599252999L125.36623189062502,314.2433599252999L125.57761172916666,314.2433599252999L125.67476003385416,314.2433599252999L126.18049898437499,314.2433599252999L126.60448965885416,314.2433599252999L128.44571004947917,314.2433599252999L128.78448555729167,314.2433599252999L129.13418930729168,314.2433599252999L130.24605630208333,314.2433599252999L130.62615815104166,314.2433599252999L130.7951565078125,314.2433599252999L130.8800199609375,314.2433599252999L131.48308307291668,314.2433599252999L131.5678209140625,314.2433599252999L131.86476763281252,314.2433599252999L132.21399405729167,314.2433599252999L132.4678558671875,314.2433599252999L133.663857765625,314.2433599252999L138.58990738541667,314.2433599252999L139.317904171875,314.2433599252999L139.69973946614584,314.2433599252999L139.74214607031251,314.2433599252999L140.00620757291668,314.2433599252999L140.25989352604165,314.2433599252999L141.0304727734375,314.2433599252999L141.15749160677083,314.2433599252999L141.53766882291666,314.2433599252999L143.63302736979168,314.2433599252999L143.7600210807292,314.2433599252999L144.01453607291666,314.2433599252999L144.27801976041667,314.2433599252999L144.91328978385417,314.2433599252999L145.177250796875,314.2433599252999L145.3897108984375,314.2433599252999L147.61942401822915,314.2433599252999L147.84356603385416,314.2433599252999L147.88838438802082,314.2433599252999L148.70094315885416,314.2433599252999L149.30385553645831,314.2433599252999L151.48488145312498,314.2433599252999L152.21441070572916,314.2433599252999L153.07148636197917,314.2433599252999L154.564987671875,314.2433599252999L154.69220748437502,314.2433599252999L155.2956725546875,314.2433599252999L155.46492213541669,314.2433599252999L157.72809828645833,314.2433599252999L158.02723065364583,314.2433599252999L158.9683156015625,314.2433599252999L159.48453059114584,314.2433599252999L159.9104054453125,314.2433599252999L161.1923259375,314.2433599252999L161.6688726640625,314.2433599252999L162.0081757421875,314.2433599252999L162.26259024479165,314.2433599252999L163.6284195390625,314.2433599252999L164.87712822395832,314.2433599252999L165.55485509635417,314.2433599252999L166.24423876041666,314.2433599252999L166.4138400546875,314.2433599252999L167.14362053125,314.2433599252999L168.63830259374998,314.2433599252999L170.43854835677084,314.2433599252999L170.81990632552083,314.2433599252999L171.07404448177084,314.2433599252999L171.2962771953125,314.2433599252999L171.59272146614583,314.2433599252999L171.973903578125,314.2433599252999L172.78229203125,314.2433599252999L172.8673815859375,314.2433599252999L172.9952043359375,314.2433599252999L173.37952674739583,314.2433599252999L174.8765954375,314.2433599252999L175.90191577864584,314.2433599252999L176.80074485677085,314.2433599252999L177.56094855468749,314.2433599252999L177.95170229947917,314.2433599252999L178.50180740104167,314.2433599252999L178.62895184635417,314.2433599252999L178.97802753645834,314.2433599252999L180.681828421875,314.2433599252999L181.41193548958333,314.2433599252999L181.85697873177085,314.2433599252999L181.98542954166666,314.2433599252999L182.84270617708333,314.2433599252999L183.53050713020832,314.2433599252999L184.3039000859375,314.2433599252999L184.81172419531248,314.2433599252999L185.54060026562502,314.2433599252999L185.79456256510417,314.2433599252999L187.39935608854165,314.2433599252999L187.53705194010416,314.2433599252999L187.57948366666665,314.2433599252999L187.9177567265625,314.2433599252999L188.087106796875,314.2433599252999L188.38282251822918,314.2433599252999L190.65918792708334,314.2433599252999L190.95563219791669,314.2433599252999L191.35929885416667,314.2433599252999L192.50533230729167,314.2433599252999L192.67646606770833,314.2433599252999L193.02642104166668,314.2433599252999L193.36411628645834,314.2433599252999L193.532536828125,314.2433599252999L194.38855734375,314.2433599252999L194.60076622135415,314.2433599252999L194.64334868229164,314.2433599252999L194.85477876562499,314.2433599252999L195.37250109895834,314.2433599252999L195.49997213541667,314.2433599252999L195.72434025260418,314.2433599252999L196.539536875,314.2433599252999L197.21583177083335,314.2433599252999L197.64730891927084,314.2433599252999L198.15360056249997,314.2433599252999L199.26350801041667,314.2433599252999L199.65375930729166,314.2433599252999L201.1603242630208,314.2433599252999L201.20268062239583,314.2433599252999L201.28716723958334,314.2433599252999L203.16561902083333,314.2433599252999L203.5032388984375,314.2433599252999L204.09637866406248,314.2433599252999L204.18016185416667,314.2433599252999L204.39126534635417,314.2433599252999L205.47200569270834,314.2433599252999L205.51423644010418,314.2433599252999L205.93639317968749,314.2433599252999L206.02042759375,314.2433599252999L206.24062539322918,314.2433599252999L206.831830734375,314.2433599252999L207.08611962499998,314.2433599252999L207.47707434895835,314.2433599252999L208.11284682031248,314.2433599252999L208.37625514062498,314.2433599252999L210.63847664062502,314.2433599252999L211.380089765625,314.2433599252999L214.03208523697916,314.2433599252999L214.24351532031253,314.2433599252999L215.00922082291666,314.2433599252999L216.58718362760416,314.2433599252999L217.18786011197918,314.2433599252999L218.703067171875,314.2433599252999L222.24188321614582,314.2433599252999L223.03861487760418,314.2433599252999L223.5011684296875,314.2433599252999L224.53161373958332,314.2433599252999L226.5359287239583,314.2433599252999L226.88430098697916,314.2433599252999L228.42947906510418,314.2433599252999L229.11690318229165,314.2433599252999L229.24427372916668,314.2433599252999L229.58267240104166,314.2433599252999L229.709691234375,314.2433599252999L230.90428627864583,314.2433599252999L232.20725933854166,314.2433599252999L234.59825823958332,314.2433599252999L234.85217029427085,314.2433599252999L235.54037320572917,314.2433599252999L236.30226010416666,314.2433599252999L236.34466670833334,314.2433599252999L237.815884453125,314.2433599252999L238.23952341406252,314.2433599252999L238.36684371614584,314.2433599252999L238.4090995859375,314.2433599252999L238.49363644791669,314.2433599252999L238.5358671953125,314.2433599252999L239.60497587239584,314.2433599252999L241.02617492708333,314.2433599252999L242.73052850520833,314.2433599252999L244.06284452343752,314.2433599252999L245.21561077864584,314.2433599252999L245.42726696354165,314.2433599252999L246.37500934635418,314.2433599252999L247.18950254166666,314.2433599252999L247.82572721614582,314.2433599252999L248.51234741666667,314.2433599252999L249.95570442447914,314.2433599252999L250.08664235156252,314.2433599252999L251.16301140104167,314.2433599252999L253.0000363515625,314.2433599252999L253.85811690364585,314.2433599252999L254.62573170833335,314.2433599252999L254.71044442708333,314.2433599252999L254.79679010156252,314.2433599252999L255.06057525781247,314.2433599252999L256.7372188333333,-456750.36328125L256.79198565625,-456750.36328125L257.602785859375,313.8640670980215L257.77987362760416,314.0675023038983L258.26847910416666,315.6708182133138L259.5960218671875,317.55730259297786L259.93399345833336,317.55730259297786L260.4957553515625,317.55730259297786L260.70726080208334,317.55730259297786L261.40558803906254,317.55730259297786L261.62970493229165,317.55730259297786L261.719492375,317.55730259297786L262.1685803229167,317.55730259297786L263.6754969921875,317.55730259297786L264.1834969583333,317.55730259297786L266.4040655260417,317.55730259297786L266.88857605208335,317.55730259297786L267.6499102578125,317.55730259297786L268.91756122916667,317.55730259297786L270.62927566927084,317.55730259297786L271.14714873697915,317.55730259297786L271.28213136979167,317.55730259297786L273.8632314401042,317.55730259297786L274.0752393385417,317.55730259297786L274.5413853932292,317.55730259297786L277.6637726041667,317.55730259297786L278.16199995833335,317.55730259297786L278.20430607291667,317.55730259297786L278.49467072395834,317.55730259297786L278.70479444270836,317.55730259297786L278.7469749453125,317.55730259297786L279.8211332239584,317.55730259297786L280.0318347578125,317.55730259297786L280.1582757760417,317.55730259297786L280.5060953463542,317.55730259297786L281.351288109375,317.55730259297786L281.48823028906247,317.55730259297786L281.53048615885416,317.55730259297786L282.16671083333335,317.55730259297786L283.1090267786458,317.55730259297786L283.6698340208333,317.55730259297786L283.75429551562496,317.55730259297786L285.895025109375,317.55730259297786L286.9203705729167,317.55730259297786L287.2154833567708,317.55730259297786L287.4693702890625,317.55730259297786L288.4977053177084,317.55730259297786L288.62545270052084,317.55730259297786L291.1579911796875,317.55730259297786L291.87684341406253,317.55730259297786L292.77685324479165,317.55730259297786L292.9042991588542,317.55730259297786L295.0314124140625,317.55730259297786L295.15760220833334,317.55730259297786L295.84246384114584,317.55730259297786L297.16254525260416,317.55730259297786L298.35447732291664,317.55730259297786L298.70237226041667,317.55730259297786L298.8713454947916,317.55730259297786L299.20986977864584,317.55730259297786L299.6752370390625,317.55730259297786L300.7837878776042,317.55730259297786L301.02956027604165,317.55730259297786L301.7099501223958,317.55730259297786L302.39777619791664,317.55730259297786L302.736275359375,317.55730259297786L303.126677390625,317.55730259297786L303.5080856041667,317.55730259297786L303.97310115104165,317.55730259297786L304.015407265625,317.55730259297786L304.5327778854167,317.55730259297786L304.6172645026042,317.55730259297786L306.24404012239586,317.55730259297786L306.7508342135416,317.55730259297786L307.5635688411458,317.55730259297786L308.54771357552085,317.55730259297786L309.40232723697915,317.55730259297786L311.43902498958334,317.55730259297786L311.82799504427084,317.55730259297786L311.954586796875,317.55730259297786L314.53382780989585,317.55730259297786L315.3871351067708,317.55730259297786L315.47132025520835,317.55730259297786L315.51329977864583,317.55730259297786L317.767205765625,317.55730259297786L318.62179430468746,317.55730259297786L318.95873587760417,317.55730259297786L320.2881628203125,317.55730259297786L321.0063869947917,317.55730259297786L321.77706673177084,317.55730259297786L322.1151890572917,317.55730259297786L323.4472036067708,317.55730259297786L325.583988984375,317.55730259297786L326.8217945494792,317.55730259297786L327.28628252604165,317.55730259297786L327.97104366927084,317.55730259297786L328.56282682552086,317.55730259297786L329.65831401822913,317.55730259297786L331.36656156770835,317.55730259297786L332.3053855,317.55730259297786L332.51656435937497,317.55730259297786L334.0860860390625,317.55730259297786L334.55956783333335,317.55730259297786L335.41355343489585,317.55730259297786L335.4978641953125,317.55730259297786L336.857714359375,317.55730259297786L337.88049733854166,317.55730259297786L338.3871909401042,317.55730259297786L338.4716524348958,317.55730259297786L338.73423171614587,317.55730259297786L340.30614002343754,317.55730259297786L341.49839868489585,317.55730259297786L341.5827094453125,317.55730259297786L341.7613045572917,317.55730259297786L342.39481601302083,317.55730259297786L344.14582188020836,317.55730259297786L344.2728155911458,317.55730259297786L346.53036432552085,317.55730259297786L346.65730779166665,317.55730259297786L347.0898903255208,317.55730259297786L347.85182746875,317.55730259297786L347.8941587057292,317.55730259297786L348.81823579166667,317.55730259297786L348.9465358671875,317.55730259297786L350.3913248515625,317.55730259297786L350.48498114322916,317.55730259297786L350.779541234375,317.55730259297786L352.3075858385417,317.55730259297786L353.20400316666667,317.55730259297786L354.22550490364586,317.55730259297786L354.43648278385416,317.55730259297786L354.68956579947917,317.55730259297786L355.84800971614584,317.55730259297786L356.69470982291665,317.55730259297786L356.91638984375,317.55730259297786L357.55125790885415,317.55730259297786L357.76198456510417,317.55730259297786L359.59647215364583,317.55730259297786L360.86201284375,317.55730259297786L360.9475294791667,317.55730259297786L361.637239734375,317.55730259297786L361.72175147395836,317.55730259297786L361.97480936718745,317.55730259297786L362.05884378125,317.55730259297786L362.8264585859375,317.55730259297786L363.8097491588542,317.55730259297786L364.19022784375,317.55730259297786L365.00238465625,317.55730259297786L365.46564163541666,317.55730259297786L365.55010313020836,317.55730259297786L365.81273265625,317.55730259297786L366.3621092083333,317.55730259297786L367.13396969791665,317.55730259297786L368.82799797135414,317.55730259297786L369.80179227864585,317.55730259297786L370.02312058593753,317.55730259297786L371.2526106380208,317.55730259297786L371.72212309375,317.55730259297786L372.18899769791665,317.55730259297786L372.49431017447915,317.55730259297786L372.7475439244792,317.55730259297786L373.7941680572917,317.55730259297786L376.3064830078125,317.55730259297786L377.84470218229166,317.55730259297786L377.8867821953125,317.55730259297786L378.05598153125,317.55730259297786L378.93152214843747,317.55730259297786L378.97367752864585,317.55730259297786L379.0158329088542,317.55730259297786L379.35480939583334,317.55730259297786L381.4587849244792,317.55730259297786L381.75434991145835,317.55730259297786L381.88134362239583,317.55730259297786L382.69299798697915,317.55730259297786L385.01491029947914,317.55730259297786L385.4053625755208,317.55730259297786L385.489748703125,317.55730259297786L385.65892291666665,317.55730259297786L385.91318668489583,317.55730259297786L386.0401050286458,317.55730259297786L386.3357453828125,317.55730259297786L386.6838161770833,317.55730259297786L386.81086013281254,317.55730259297786L387.31757885677087,317.55730259297786L388.46710432291667,317.55730259297786L388.646427984375,317.55730259297786L389.1117198776042,317.55730259297786L389.58593022135415,317.55730259297786L392.47917605989585,317.55730259297786L393.0802293802084,317.55730259297786L393.4180502369792,317.55730259297786L394.01955576041667,317.55730259297786L394.0617613854166,317.55730259297786L395.17111614062503,317.55730259297786L395.76262295052084,317.55730259297786L396.8270086171875,317.55730259297786L398.06247779947915,317.55730259297786L398.19874167447915,317.55730259297786L399.30631273958335,317.55730259297786L400.06739572135416,317.55730259297786L400.2461666901042,317.55730259297786L401.3115572526042,317.55730259297786L403.52717670833334,317.55730259297786L404.1620698958333,317.55730259297786L404.5099397109375,317.55730259297786L404.5520197239583,317.55730259297786L405.48024200520837,317.55730259297786L406.4499413619792,317.55730259297786L408.15826427864585,317.55730259297786L409.05553576822916,317.55730259297786L410.37408471354166,317.55730259297786L412.62746313020835,317.55730259297786L413.0907452317708,317.55730259297786L413.85768173177087,317.55730259297786L414.28863130989583,317.55730259297786L414.33086205729165,317.55730259297786L415.1322916067708,317.55730259297786L416.11239163541666,317.55730259297786L416.923593796875,317.55730259297786L418.19991199479165,317.55730259297786L418.58780178645833,317.55730259297786L418.7143684166667,317.55730259297786L419.009456078125,317.55730259297786L419.43111036979167,317.55730259297786L419.55752626562503,317.55730259297786L419.78078899739586,317.55730259297786L420.20533236458334,317.55730259297786L421.2314063776042,317.55730259297786L421.6116589609375,317.55730259297786L422.4249211588542,317.55730259297786L423.34804359375,317.55730259297786L425.98981425,317.55730259297786L427.48869175260415,317.55730259297786L428.20736813020835,317.55730259297786L428.63967431770834,317.55730259297786L428.85065219791665,317.55730259297786L429.3163209270833,317.55730259297786L429.580457796875,317.55730259297786L429.87685182291665,317.55730259297786L430.6487123125,317.55730259297786L430.8599162942709,317.55730259297786L431.07149711197917,317.55730259297786L431.8434832135417,317.55730259297786L432.308448515625,317.55730259297786L432.43556783854166,317.55730259297786L433.2914376197917,317.55730259297786L433.62938408854166,317.55730259297786L434.062695171875,317.55730259297786L435.5539857109375,317.55730259297786L435.76551628385414,317.55730259297786L438.58525399218746,317.55730259297786L438.6277610859375,317.55730259297786L439.9879880859375,317.55730259297786L441.82506328125,317.55730259297786L442.1626329140625,317.55730259297786L442.5102515052083,317.55730259297786L442.55230639583334,317.55730259297786L443.99805003125,317.55730259297786L444.46288972135414,317.55730259297786L444.9787529973959,317.55730259297786L445.70619709114584,317.55730259297786L448.26031570833334,317.55730259297786L449.28400309374996,317.55730259297786L450.5598439661458,317.55730259297786L450.728490609375,317.55730259297786L451.32816219791664,317.55730259297786L452.05613386197916,317.55730259297786L452.3087144296875,317.55730259297786L454.0916257395833,317.55730259297786L454.7776178802083,317.55730259297786L455.2532099557292,317.55730259297786L455.63519598437495,317.55730259297786L455.97495126562495,317.55730259297786L456.831423984375,317.55730259297786L456.91586035677085,317.55730259297786L457.0425525989583,317.55730259297786L457.12701409375006,317.55730259297786L457.39079925,317.55730259297786L458.23765009114584,317.55730259297786L458.36471916927087,317.55730259297786L458.58602235416663,317.55730259297786L458.96584785677084,317.55730259297786L462.158829,317.55730259297786L463.01243776562507,317.55730259297786L463.0545680234375,317.55730259297786L463.13910488541666,317.55730259297786L463.73161659114584,317.55730259297786L463.9007154375,317.55730259297786L464.2900120833333,317.55730259297786L464.332267953125,317.55730259297786L464.5433965677084,317.55730259297786L464.75437444791663,317.55730259297786L465.39730680208334,317.55730259297786L466.7179660286458,317.55730259297786L467.2353868932292,317.55730259297786L467.5317809192709,317.55730259297786L467.74346222656254,317.55730259297786L468.34557068749996,317.55730259297786L468.72637596354167,317.55730259297786L470.03510205208335,317.55730259297786L470.33461125520836,317.55730259297786L470.3773695729167,317.55730259297786L470.76839966406254,317.55730259297786L472.3818352916666,317.55730259297786L472.72967998437497,317.55730259297786L472.77203634374996,317.55730259297786L472.9411351901042,317.55730259297786L474.3038241848958,317.55730259297786L476.3122843645833,317.55730259297786L476.4818605364583,317.55730259297786L477.4643471927084,317.55730259297786L478.23557962239585,317.55730259297786L478.3626989453125,317.55730259297786L479.2595684765625,317.55730259297786L479.92724639062504,317.55730259297786L480.9832662994791,317.55730259297786L481.27875591927085,317.55730259297786L482.00697880729166,317.55730259297786L482.0918171380209,317.55730259297786L482.21888621614585,317.55730259297786L483.11841872135415,317.55730259297786L483.20315656249994,317.55730259297786L483.41498860416664,317.55730259297786L483.88987725260415,317.55730259297786L484.3978520963542,317.55730259297786L485.1256981484375,317.55730259297786L485.9195156119792,317.55730259297786L486.1736286458334,317.55730259297786L486.5974937083334,317.55730259297786L487.3692537083333,317.55730259297786L487.41168543489584,317.55730259297786L488.56322069270834,317.55730259297786L488.90184546614586,317.55730259297786L489.33488020312507,317.55730259297786L489.8001469739583,317.55730259297786L490.7187725,317.55730259297786L491.48927638020837,317.55730259297786L492.8523673333333,317.55730259297786L493.14783183072916,317.55730259297786L495.38500630208335,317.55730259297786L495.46954316406254,317.55730259297786L495.89192600520835,317.55730259297786L496.1881441744792,317.55730259297786L497.34025724739587,317.55730259297786L498.43584492968745,317.55730259297786L498.87109043749996,317.55730259297786L499.54625482552086,317.55730259297786L499.6302138723958,317.55730259297786L499.9334160677083,317.55730259297786L501.29218596875,317.55730259297786L501.97729882552085,317.55730259297786L502.18815109375004,317.55730259297786L504.01263996875,317.55730259297786L504.1491801901041,317.55730259297786L504.99346854687496,317.55730259297786L505.2567261328125,317.55730259297786L505.29878102343747,317.55730259297786L506.4074323515625,317.55730259297786L506.70309782812507,317.55730259297786L509.575492078125,317.55730259297786L509.966195578125,317.55730259297786L510.2642476822917,317.55730259297786L510.6980863359375,317.55730259297786L510.8245524765625,317.55730259297786L511.7595578046876,317.55730259297786L512.2241462708333,317.55730259297786L512.6896140208333,317.55730259297786L513.2068087838542,317.55730259297786L513.2491148984375,317.55730259297786L513.3760834869792,317.55730259297786L514.399293546875,317.55730259297786L514.6525524192708,317.55730259297786L515.6357425026041,317.55730259297786L516.0686516276043,317.55730259297786L516.430288515625,317.55730259297786L519.0301550156249,317.55730259297786L519.4227175729167,317.55730259297786L519.8041257864584,317.55730259297786L521.2972753828125,317.55730259297786L522.5039542994791,317.55730259297786L522.6312997239584,317.55730259297786L524.336005015625,317.55730259297786L525.3648173697917,317.55730259297786L528.1777469088541,317.55730259297786L530.1823131171875,317.55730259297786L531.7110109036458,317.55730259297786L531.9226922109375,317.55730259297786L531.964973203125,317.55730259297786L532.049685921875,317.55730259297786L532.6509402213542,317.55730259297786L533.1590406770833,317.55730259297786L534.1407987838542,317.55730259297786L534.3940827786458,317.55730259297786L535.037542703125,317.55730259297786L535.2910276770833,317.55730259297786L535.7248663307292,317.55730259297786L536.7522969531251,317.55730259297786L537.4692650078125,317.55730259297786L538.6113291223959,317.55730259297786L539.9331188567709,317.55730259297786L540.2370244791666,317.55730259297786L540.7023666171875,317.55730259297786L541.5603466796874,317.55730259297786L541.8559116666667,317.55730259297786L542.0667890572917,317.55730259297786L543.8631408489583,317.55730259297786L545.4022895520833,317.55730259297786L546.5958294557291,317.55730259297786L546.6802155833333,317.55730259297786L546.7225216979167,317.55730259297786L546.8070585598958,317.55730259297786L547.7469627552083,317.55730259297786L548.0026836223958,317.55730259297786L548.2176810859376,317.55730259297786L549.4562905677084,317.55730259297786L550.0553843411459,317.55730259297786L550.5231382291666,317.55730259297786L550.9579817786458,317.55730259297786L551.1270303802083,317.55730259297786L551.1695374739584,317.55730259297786L552.3620724817708,317.55730259297786L552.7422496979167,317.55730259297786L553.7285800807292,317.55730259297786L553.7709364401042,317.55730259297786L554.474740359375,317.55730259297786L555.8014792057292,317.55730259297786L556.181053484375,317.55730259297786L556.9092763723959,317.55730259297786L557.1206310885417,317.55730259297786L557.501486609375,317.55730259297786L557.86942921875,317.55730259297786L558.2083303385417,317.55730259297786L558.9392413229167,317.55730259297786L560.2159866015625,317.55730259297786L560.6392989713543,317.55730259297786L562.2278383046876,317.55730259297786L562.6166325026041,317.55730259297786L562.6589134947917,317.55730259297786L562.922799140625,317.55730259297786L563.6010033385417,317.55730259297786L563.8971461406251,317.55730259297786L565.0965898072917,317.55730259297786L565.1385190859376,317.55730259297786L565.5191233828125,317.55730259297786L565.7304529765626,317.55730259297786L566.3917749244793,317.55730259297786L566.7747658489583,317.55730259297786L567.3776279817708,317.55730259297786L569.0214617083334,317.55730259297786L569.1503144765625,317.55730259297786L569.5402894270833,317.55730259297786L570.7958816484374,317.55730259297786L570.966889796875,317.55730259297786L571.3506343932293,317.55730259297786L571.9526172421876,317.55730259297786L572.2050721979167,317.55730259297786L572.2896844270833,317.55730259297786L573.933643765625,317.55730259297786L574.198333328125,317.55730259297786L574.4520192812499,317.55730259297786L574.5364054088542,317.55730259297786L575.000541671875,317.55730259297786L575.2119717552083,317.55730259297786L575.8388257760417,317.55730259297786L576.2204852135417,317.55730259297786L576.9090900833334,317.55730259297786L577.9776711901042,317.55730259297786L578.7902299609375,317.55730259297786L579.1704825442708,317.55730259297786L579.9653300260417,317.55730259297786L581.1164884479167,317.55730259297786L582.1033464010417,317.55730259297786L582.1881344869792,317.55730259297786L582.2306415807292,317.55730259297786L584.4058139791667,317.55730259297786L584.7438358151041,317.55730259297786L584.8706536692708,317.55730259297786L585.4502273411458,317.55730259297786L587.0713252994792,317.55730259297786L588.4001241822916,317.55730259297786L589.2468242890625,317.55730259297786L590.0597096510417,317.55730259297786L591.3777310260416,317.55730259297786L591.7265806145833,317.55730259297786L591.8112430885417,317.55730259297786L593.2566852552084,317.55730259297786L594.1712660755209,317.55730259297786L594.7659383072917,317.55730259297786L595.0279397734375,317.55730259297786L596.2168822786458,317.55730259297786L596.3440267239583,317.55730259297786L596.3867096744791,317.55730259297786L596.6406217291667,317.55730259297786L596.7252590807292,317.55730259297786L597.4521756041667,317.55730259297786L597.7892176666667,317.55730259297786L598.3664298333333,317.55730259297786L599.0046140546875,317.55730259297786L599.69158596875,317.55730259297786L601.3497645833334,317.55730259297786L601.8668337343751,317.55730259297786L601.9510440052084,317.55730259297786L602.3722963385417,317.55730259297786L602.8484913515625,317.55730259297786L603.1460158854167,317.55730259297786L603.4427113802083,317.55730259297786L603.5273738541666,317.55730259297786L604.2544913567708,317.55730259297786L605.0700899375,317.55730259297786L606.6038624479166,317.55730259297786L607.9489155208333,317.55730259297786L608.2129770234375,317.55730259297786L608.5928025260416,317.55730259297786L609.8691207239583,317.55730259297786L610.8546471901042,317.55730259297786L610.8969533046875,317.55730259297786L611.6657237395833,317.55730259297786L612.8639112864583,317.55730259297786L613.0755423489584,317.55730259297786L614.425418921875,317.55730259297786L614.7761778125,317.55730259297786L614.9882108333334,317.55730259297786L615.072672328125,317.55730259297786L615.1148025859376,317.55730259297786L615.9678586588542,317.55730259297786L616.1796907005208,317.55730259297786L616.7744885442708,317.55730259297786L617.2071213229167,317.55730259297786L617.4184760390625,317.55730259297786L617.714744453125,317.55730259297786L618.5278810390624,317.55730259297786L619.0469599817708,317.55730259297786L620.5358638932292,317.55730259297786L620.9173977187501,317.55730259297786L622.9677620546876,317.55730259297786L623.1796192187501,317.55730259297786L623.8261943203125,317.55730259297786L624.4917870755208,317.55730259297786L624.6624686328124,317.55730259297786L625.3443407005208,317.55730259297786L625.9035401093751,317.55730259297786L626.7583547500001,317.55730259297786L627.1392856380209,317.55730259297786L627.4776340651042,317.55730259297786L629.0212043098958,317.55730259297786L629.8771494583333,317.55730259297786L630.0040175572916,317.55730259297786L630.6791317005209,317.55730259297786L631.3646465156249,317.55730259297786L634.581016609375,317.55730259297786L634.9607416223959,317.55730259297786L635.0030477369792,317.55730259297786L636.2837874765626,317.55730259297786L637.0952408619792,317.55730259297786L637.2219833489584,317.55730259297786L638.1631436640624,317.55730259297786L641.1279380859374,317.55730259297786L641.3845884817708,317.55730259297786L641.4701553619791,317.55730259297786L642.3673263619792,317.55730259297786L643.3049695416667,317.55730259297786L644.5414938645832,317.55730259297786L646.5081755,317.55730259297786L647.7014641796875,317.55730259297786L650.2238783333333,317.55730259297786L650.9101468203124,317.55730259297786L652.2319867994792,317.55730259297786L652.5702598593749,317.55730259297786L653.4684106328125,317.55730259297786L654.53719271875,317.55730259297786L654.7584959036459,317.55730259297786L655.3079478229166,317.55730259297786L655.8664186822917,317.55730259297786L656.1201800026041,317.55730259297786L657.9094975234375,317.55730259297786L657.9620786979167,317.55730259297786L658.1740865963542,317.55730259297786L658.8089044166667,317.55730259297786L661.3295600026041,317.55730259297786L662.0496683567709,317.55730259297786L663.2043690364583,317.55730259297786L663.2468258854166,317.55730259297786L663.6012777682291,317.55730259297786L664.1103579973958,317.55730259297786L664.6286079010417,317.55730259297786L665.2634257213541,317.55730259297786L665.4330270156249,317.55730259297786L666.1633601848959,317.55730259297786L667.1252213541666,317.55730259297786L667.9003728776041,317.55730259297786L668.5330050494792,317.55730259297786L668.9671200494791,317.55730259297786L669.0952191458333,317.55730259297786L669.6079923671875,317.55730259297786L669.6502984817708,317.55730259297786L669.8200002656249,317.55730259297786L671.0214788463542,317.55730259297786L672.1264623046875,317.55730259297786L673.5298998255208,317.55730259297786L674.1814742838542,317.55730259297786L675.7223313098958,317.55730259297786L675.9336106588541,317.55730259297786L678.1635498802084,317.55730259297786L678.33212115625,317.55730259297786L679.1828408463541,317.55730259297786L681.2682760468749,317.55730259297786L682.3752190520834,317.55730259297786L682.5018108046875,317.55730259297786L684.298036984375,317.55730259297786L684.97317625,317.55730259297786L686.4702198177083,317.55730259297786L687.1042337213541,317.55730259297786L687.45155084375,317.55730259297786L687.70478459375,317.55730259297786L689.3201295234376,317.55730259297786L690.047648984375,317.55730259297786L690.1735624322916,317.55730259297786L690.2994005130208,317.55730259297786L690.8558867031251,317.55730259297786L692.0045831302083,317.55730259297786L692.7749362760417,317.55730259297786L693.0705515078125,317.55730259297786L693.3665686979166,317.55730259297786L694.3065482604167,317.55730259297786L695.2062315000001,317.55730259297786L695.7587483515625,317.55730259297786L697.2621227630208,317.55730259297786L698.2456394375,317.55730259297786L698.3730853515625,317.55730259297786L698.9243712057291,317.55730259297786L699.0939725000001,317.55730259297786L699.3579837578125,317.55730259297786L701.2137751380209,317.55730259297786L701.2560058854167,317.55730259297786L702.0697956536458,317.55730259297786L702.1970908333333,317.55730259297786L702.5474728880208,317.55730259297786L702.5899046145832,317.55730259297786L702.63231121875,317.55730259297786L702.886449375,317.55730259297786L703.7432486848959,317.55730259297786L703.8274589557292,317.55730259297786L704.5982643046875,317.55730259297786L706.7350999270833,317.55730259297786L707.3271343072917,317.55730259297786L707.5812975859376,317.55730259297786L709.2255583932291,317.55730259297786L710.9709619661459,317.55730259297786L712.1718627317708,317.55730259297786L713.3436717630208,317.55730259297786L713.5546998880208,317.55730259297786L713.8077075364583,317.55730259297786L714.7930832682292,317.55730259297786L715.8579713828125,317.55730259297786L716.3652930442709,317.55730259297786L716.40762428125,317.55730259297786L716.6707311328124,317.55730259297786L717.0515866536458,317.55730259297786L717.7809400494791,317.55730259297786L718.2873573046875,317.55730259297786L718.5414954609375,317.55730259297786L719.3982947708333,317.55730259297786L719.5674187395833,317.55730259297786L720.5915332057292,317.55730259297786L720.6762459244792,317.55730259297786L721.06712528125,317.55730259297786L723.2299123385417,317.55730259297786L724.2551321901042,317.55730259297786L725.4381960546875,317.55730259297786L726.9446605208333,317.55730259297786L726.9869666354167,317.55730259297786L728.0104781640624,317.55730259297786L728.09496478125,317.55730259297786L728.1374718750001,317.55730259297786L729.4167042708333,317.55730259297786L730.6708896380208,317.55730259297786L730.8901076640625,317.55730259297786L731.5497715338541,317.55730259297786L731.8048140963541,317.55730259297786L733.0899502552084,317.55730259297786L733.1322814921874,317.55730259297786L733.4711323671876,317.55730259297786L733.6404321927083,317.55730259297786L733.8939925338542,317.55730259297786L734.5789295338542,317.55730259297786L736.4172859713542,317.55730259297786L736.9260144869792,317.55730259297786L737.4024858463542,317.55730259297786L737.8264262760417,317.55730259297786L737.8688580026042,317.55730259297786L738.0386351536458,317.55730259297786L738.208487671875,317.55730259297786L738.3883891484376,317.55730259297786L739.1084723802082,317.55730259297786L739.3724836380209,317.55730259297786L739.5420346875001,317.55730259297786L739.6269483854167,317.55730259297786L740.7149491041666,317.55730259297786L741.5306481744792,317.55730259297786L741.8260121822917,317.55730259297786L741.8682429296874,317.55730259297786L742.744085015625,317.55730259297786L742.8724102135417,317.55730259297786L744.2383651197918,317.55730259297786L744.2806209895833,317.55730259297786L744.3230778385417,317.55730259297786L745.3499557682292,317.55730259297786L745.9543001223958,317.55730259297786L748.1374865651042,317.55730259297786L748.6458633671874,317.55730259297786L751.55164528125,317.55730259297786L753.3653817708333,317.55730259297786L753.5349579427084,317.55730259297786L754.3917823749999,317.55730259297786L755.4167761250001,317.55730259297786L755.5015893333333,317.55730259297786L756.2299127109376,317.55730259297786L757.8321688723959,317.55730259297786L758.3509965911458,317.55730259297786L759.1219024296876,317.55730259297786L759.3328551875,317.55730259297786L759.4179447421875,317.55730259297786L759.842186640625,317.55730259297786L760.6152278828125,317.55730259297786L761.3014712473959,317.55730259297786L761.5976140494791,317.55730259297786L762.3254098567709,317.55730259297786L762.5788445859374,317.55730259297786L763.0651639244792,317.55730259297786L765.1008316588542,317.55730259297786L765.3122617421875,317.55730259297786L766.0018463854167,317.55730259297786L766.2565874791667,317.55730259297786L766.6807288880209,317.55730259297786L767.0294779869791,317.55730259297786L767.4527903567708,317.55730259297786L767.7490587708332,317.55730259297786L768.1832993828125,317.55730259297786L768.226032578125,317.55730259297786L768.2686150390625,317.55730259297786L768.820830421875,317.55730259297786L769.6386146510416,317.55730259297786L770.4953888385417,317.55730259297786L770.9618112395833,317.55730259297786L772.9757732239583,317.55730259297786L773.4945506979167,317.55730259297786L773.9604204062499,317.55730259297786L775.5549891145833,317.55730259297786L776.9193613098959,317.55730259297786L778.2429096119791,317.55730259297786L779.8303435598958,317.55730259297786L780.8568697760417,317.55730259297786L781.3285930026042,317.55730259297786L781.5830828723958,317.55730259297786L782.2339790260418,317.55730259297786L782.9549164192708,317.55730259297786L783.5584066119792,317.55730259297786L783.6855761796875,317.55730259297786L784.5025816145833,317.55730259297786L785.3185570312501,317.55730259297786L785.6575083958332,317.55730259297786L788.8565691588541,317.55730259297786L790.2656089739584,317.55730259297786L790.6041081354167,317.55730259297786L790.8685464739583,317.55730259297786L791.9860157630209,317.55730259297786L792.0483695494792,317.55730259297786L792.3474767942708,317.55730259297786L793.6688394479166,317.55730259297786L793.9236307864583,317.55730259297786L794.8244194114583,317.55730259297786L795.3440761692708,317.55730259297786L796.0650889296875,317.55730259297786L796.2446386927083,317.55730259297786L803.5582705677083,317.55730259297786L804.1115410911458,317.55730259297786L804.54502803125,317.55730259297786L804.7142022447916,317.55730259297786L804.9672852604167,317.55730259297786L805.8836246484375,317.55730259297786L806.85307278125,317.55730259297786L807.4040822890624,317.55730259297786L807.4985927421875,317.55730259297786" style="fill: none;" fill="none"></path></g></g></g></g></g></g><g transform="translate(58, 365)" clip-path="url(#clip_1)"><clipPath id="clip_1"><rect width="904" height="34"></rect></clipPath><g><g visibility="inherit"><g><g transform="translate(45.220312500000006,0)" style="visibility: inherit;"><text transform="translate(0,14.171875)" style="text-anchor: middle; font-family: &quot;Helvetica Neue&quot;, sans-serif; font-size: 12px; font-weight: 200;" fill="rgb(50, 49, 63)" stroke="none" stroke-width="1px">12 PM</text></g><g transform="translate(135.6609375,0)" style="visibility: inherit;"><text transform="translate(0,14.171875)" style="text-anchor: middle; font-family: &quot;Helvetica Neue&quot;, sans-serif; font-size: 12px; font-weight: 200;" fill="rgb(50, 49, 63)" stroke="none" stroke-width="1px">01 PM</text></g><g transform="translate(226.1015625,0)" style="visibility: inherit;"><text transform="translate(0,14.171875)" style="text-anchor: middle; font-family: &quot;Helvetica Neue&quot;, sans-serif; font-size: 12px; font-weight: 200;" fill="rgb(50, 49, 63)" stroke="none" stroke-width="1px">02 PM</text></g><g transform="translate(316.54218749999995,0)" style="visibility: inherit;"><text transform="translate(0,14.171875)" style="text-anchor: middle; font-family: &quot;Helvetica Neue&quot;, sans-serif; font-size: 12px; font-weight: 200;" fill="rgb(50, 49, 63)" stroke="none" stroke-width="1px">03 PM</text></g><g transform="translate(406.9828125,0)" style="visibility: inherit;"><text transform="translate(0,14.171875)" style="text-anchor: middle; font-family: &quot;Helvetica Neue&quot;, sans-serif; font-size: 12px; font-weight: 200;" fill="rgb(50, 49, 63)" stroke="none" stroke-width="1px">04 PM</text></g><g transform="translate(497.42343750000003,0)" style="visibility: inherit;"><text transform="translate(0,14.171875)" style="text-anchor: middle; font-family: &quot;Helvetica Neue&quot;, sans-serif; font-size: 12px; font-weight: 200;" fill="rgb(50, 49, 63)" stroke="none" stroke-width="1px">05 PM</text></g><g transform="translate(587.8640625,0)" style="visibility: inherit;"><text transform="translate(0,14.171875)" style="text-anchor: middle; font-family: &quot;Helvetica Neue&quot;, sans-serif; font-size: 12px; font-weight: 200;" fill="rgb(50, 49, 63)" stroke="none" stroke-width="1px">06 PM</text></g><g transform="translate(678.3046875,0)" style="visibility: inherit;"><text transform="translate(0,14.171875)" style="text-anchor: middle; font-family: &quot;Helvetica Neue&quot;, sans-serif; font-size: 12px; font-weight: 200;" fill="rgb(50, 49, 63)" stroke="none" stroke-width="1px">07 PM</text></g><g transform="translate(768.7453125,0)" style="visibility: inherit;"><text transform="translate(0,14.171875)" style="text-anchor: middle; font-family: &quot;Helvetica Neue&quot;, sans-serif; font-size: 12px; font-weight: 200;" fill="rgb(50, 49, 63)" stroke="none" stroke-width="1px">08 PM</text></g><g transform="translate(859.1859374999999,0)" style="visibility: inherit;"><text transform="translate(0,14.171875)" style="text-anchor: middle; font-family: &quot;Helvetica Neue&quot;, sans-serif; font-size: 12px; font-weight: 200;" fill="rgb(50, 49, 63)" stroke="none" stroke-width="1px">09 PM</text></g></g><g><line x1="0" y1="0" x2="0" y2="17.171875" fill="rgb(0, 0, 0)" stroke="rgb(204, 204, 204)" stroke-width="1px"></line><line x1="90.44062500000001" y1="0" x2="90.44062500000001" y2="17.171875" fill="rgb(0, 0, 0)" stroke="rgb(204, 204, 204)" stroke-width="1px"></line><line x1="180.88125000000002" y1="0" x2="180.88125000000002" y2="17.171875" fill="rgb(0, 0, 0)" stroke="rgb(204, 204, 204)" stroke-width="1px"></line><line x1="271.321875" y1="0" x2="271.321875" y2="17.171875" fill="rgb(0, 0, 0)" stroke="rgb(204, 204, 204)" stroke-width="1px"></line><line x1="361.76250000000005" y1="0" x2="361.76250000000005" y2="17.171875" fill="rgb(0, 0, 0)" stroke="rgb(204, 204, 204)" stroke-width="1px"></line><line x1="452.203125" y1="0" x2="452.203125" y2="17.171875" fill="rgb(0, 0, 0)" stroke="rgb(204, 204, 204)" stroke-width="1px"></line><line x1="542.64375" y1="0" x2="542.64375" y2="17.171875" fill="rgb(0, 0, 0)" stroke="rgb(204, 204, 204)" stroke-width="1px"></line><line x1="633.0843749999999" y1="0" x2="633.0843749999999" y2="17.171875" fill="rgb(0, 0, 0)" stroke="rgb(204, 204, 204)" stroke-width="1px"></line><line x1="723.5250000000001" y1="0" x2="723.5250000000001" y2="17.171875" fill="rgb(0, 0, 0)" stroke="rgb(204, 204, 204)" stroke-width="1px"></line><line x1="813.965625" y1="0" x2="813.965625" y2="17.171875" fill="rgb(0, 0, 0)" stroke="rgb(204, 204, 204)" stroke-width="1px"></line><line x1="904.40625" y1="0" x2="904.40625" y2="17.171875" fill="rgb(0, 0, 0)" stroke="rgb(204, 204, 204)" stroke-width="1px"></line></g><line x1="0" y1="0" x2="904.40625" y2="0" style="visibility: inherit;" fill="rgb(0, 0, 0)" stroke="rgb(204, 204, 204)" stroke-width="1px"></line></g><g visibility="inherit"><g><g transform="translate(45.220312500000006,0)" style="visibility: inherit;"><text transform="translate(0,31.34375)" style="text-anchor: middle; font-family: &quot;Helvetica Neue&quot;, sans-serif; font-size: 12px; font-weight: 200;" fill="rgb(50, 49, 63)" stroke="none" stroke-width="1px">April 30, 2020</text></g><g transform="translate(135.6609375,0)" style="visibility: inherit;"><text transform="translate(0,31.34375)" style="text-anchor: middle; font-family: &quot;Helvetica Neue&quot;, sans-serif; font-size: 12px; font-weight: 200;" fill="rgb(50, 49, 63)" stroke="none" stroke-width="1px">April 30, 2020</text></g><g transform="translate(226.1015625,0)" style="visibility: inherit;"><text transform="translate(0,31.34375)" style="text-anchor: middle; font-family: &quot;Helvetica Neue&quot;, sans-serif; font-size: 12px; font-weight: 200;" fill="rgb(50, 49, 63)" stroke="none" stroke-width="1px">April 30, 2020</text></g><g transform="translate(316.54218749999995,0)" style="visibility: inherit;"><text transform="translate(0,31.34375)" style="text-anchor: middle; font-family: &quot;Helvetica Neue&quot;, sans-serif; font-size: 12px; font-weight: 200;" fill="rgb(50, 49, 63)" stroke="none" stroke-width="1px">April 30, 2020</text></g><g transform="translate(406.9828125,0)" style="visibility: inherit;"><text transform="translate(0,31.34375)" style="text-anchor: middle; font-family: &quot;Helvetica Neue&quot;, sans-serif; font-size: 12px; font-weight: 200;" fill="rgb(50, 49, 63)" stroke="none" stroke-width="1px">April 30, 2020</text></g><g transform="translate(497.42343750000003,0)" style="visibility: inherit;"><text transform="translate(0,31.34375)" style="text-anchor: middle; font-family: &quot;Helvetica Neue&quot;, sans-serif; font-size: 12px; font-weight: 200;" fill="rgb(50, 49, 63)" stroke="none" stroke-width="1px">April 30, 2020</text></g><g transform="translate(587.8640625,0)" style="visibility: inherit;"><text transform="translate(0,31.34375)" style="text-anchor: middle; font-family: &quot;Helvetica Neue&quot;, sans-serif; font-size: 12px; font-weight: 200;" fill="rgb(50, 49, 63)" stroke="none" stroke-width="1px">April 30, 2020</text></g><g transform="translate(678.3046875,0)" style="visibility: inherit;"><text transform="translate(0,31.34375)" style="text-anchor: middle; font-family: &quot;Helvetica Neue&quot;, sans-serif; font-size: 12px; font-weight: 200;" fill="rgb(50, 49, 63)" stroke="none" stroke-width="1px">April 30, 2020</text></g><g transform="translate(768.7453125,0)" style="visibility: inherit;"><text transform="translate(0,31.34375)" style="text-anchor: middle; font-family: &quot;Helvetica Neue&quot;, sans-serif; font-size: 12px; font-weight: 200;" fill="rgb(50, 49, 63)" stroke="none" stroke-width="1px">April 30, 2020</text></g><g transform="translate(859.1859374999999,0)" style="visibility: inherit;"><text transform="translate(0,31.34375)" style="text-anchor: middle; font-family: &quot;Helvetica Neue&quot;, sans-serif; font-size: 12px; font-weight: 200;" fill="rgb(50, 49, 63)" stroke="none" stroke-width="1px">April 30, 2020</text></g></g><g><line x1="0" y1="17.171875" x2="0" y2="34.34375" fill="rgb(0, 0, 0)" stroke="rgb(204, 204, 204)" stroke-width="1px"></line><line x1="90.44062500000001" y1="17.171875" x2="90.44062500000001" y2="34.34375" fill="rgb(0, 0, 0)" stroke="rgb(204, 204, 204)" stroke-width="1px"></line><line x1="180.88125000000002" y1="17.171875" x2="180.88125000000002" y2="34.34375" fill="rgb(0, 0, 0)" stroke="rgb(204, 204, 204)" stroke-width="1px"></line><line x1="271.321875" y1="17.171875" x2="271.321875" y2="34.34375" fill="rgb(0, 0, 0)" stroke="rgb(204, 204, 204)" stroke-width="1px"></line><line x1="361.76250000000005" y1="17.171875" x2="361.76250000000005" y2="34.34375" fill="rgb(0, 0, 0)" stroke="rgb(204, 204, 204)" stroke-width="1px"></line><line x1="452.203125" y1="17.171875" x2="452.203125" y2="34.34375" fill="rgb(0, 0, 0)" stroke="rgb(204, 204, 204)" stroke-width="1px"></line><line x1="542.64375" y1="17.171875" x2="542.64375" y2="34.34375" fill="rgb(0, 0, 0)" stroke="rgb(204, 204, 204)" stroke-width="1px"></line><line x1="633.0843749999999" y1="17.171875" x2="633.0843749999999" y2="34.34375" fill="rgb(0, 0, 0)" stroke="rgb(204, 204, 204)" stroke-width="1px"></line><line x1="723.5250000000001" y1="17.171875" x2="723.5250000000001" y2="34.34375" fill="rgb(0, 0, 0)" stroke="rgb(204, 204, 204)" stroke-width="1px"></line><line x1="813.965625" y1="17.171875" x2="813.965625" y2="34.34375" fill="rgb(0, 0, 0)" stroke="rgb(204, 204, 204)" stroke-width="1px"></line><line x1="904.40625" y1="17.171875" x2="904.40625" y2="34.34375" fill="rgb(0, 0, 0)" stroke="rgb(204, 204, 204)" stroke-width="1px"></line></g><line x1="0" y1="17.171875" x2="904.40625" y2="17.171875" style="visibility: inherit;" fill="rgb(0, 0, 0)" stroke="rgb(204, 204, 204)" stroke-width="1px"></line></g></g></g></g></g></svg>